<svg xmlns="http://www.w3.org/2000/svg" xmlns:xlink="http://www.w3.org/1999/xlink" width="254" height="33" viewBox="0 0 254 33">
  <defs>
    <polygon id="dfg_logo_schriftzug_weiss-a" points=".06 .444 28.892 .444 28.892 28.792 .06 28.792"/>
  </defs>
  <g fill="none" fill-rule="evenodd">
    <g transform="translate(0 1)">
      <mask id="dfg_logo_schriftzug_weiss-b" fill="#fff">
        <use xlink:href="#dfg_logo_schriftzug_weiss-a"/>
      </mask>
      <path fill="#FFFFFE" d="M0,28.792 L15.048,28.792 C19.027,28.792 22.484,27.937 24.935,25.776 C27.386,23.616 28.889,20.124 28.892,14.701 C28.89,8.877 27.488,5.34 25.154,3.245 C22.82,1.148 19.478,0.444 15.49,0.445 L15.49,0.444 L0,0.444 L0,6.566 L13.12,6.566 C15.108,6.556 16.467,7.261 17.235,8.625 C18.005,9.978 18.236,11.904 18.239,14.411 C18.236,16.834 18.025,18.738 17.272,20.093 C16.52,21.455 15.17,22.185 13.16,22.173 L10.171,22.173 L10.171,12.139 L0,12.139 L0,28.792" mask="url(#dfg_logo_schriftzug_weiss-b)"/>
    </g>
    <polyline fill="#FFFFFE" points="31.101 29.792 41.272 29.792 41.272 19.509 53.943 19.509 53.943 13.139 41.272 13.139 41.272 7.566 53.943 7.566 53.943 1.444 31.101 1.444 31.101 29.792"/>
    <path fill="#FFFFFE" d="M60.947 4.522C57.942 6.899 56.043 10.434 56.039 15.204 56.043 20.296 57.871 24.039 60.834 26.539 63.799 29.038 67.926 30.289 72.533 30.289 76.849 30.288 80.258 29.853 83.846 28.789L83.846 15.709 75.203 15.709 75.203 23.327 75.012 23.401C74.285 23.679 73.379 23.667 72.613 23.671 70.385 23.677 68.797 22.745 67.822 21.301 66.846 19.858 66.453 17.936 66.451 15.908 66.449 13.212 67.365 11.1 68.988 9.688 70.61 8.274 72.905 7.566 75.627 7.566 78.41 7.566 80.604 8.192 82.164 9.015L82.164 1.962C79.594 1.334 77.638.949 72.533.947L72.531.947C68.086.947 63.953 2.148 60.947 4.522M99.353 10.949L100.181 10.949C103.261 11.018 104.842 9.551 104.922 6.551 104.898 4.974 104.502 3.861 103.733 3.213 102.95 2.595 101.978 2.29 100.817 2.3L99.353 2.3 99.353 10.949zM98.361 1.41L100.862 1.41C102.656 1.43 103.954 1.912 104.755 2.855 105.537 3.804 105.923 5.054 105.913 6.606 105.895 8.47 105.348 9.81 104.274 10.627 103.215 11.435 101.832 11.839 100.127 11.839L98.361 11.839 98.361 1.41 98.361 1.41zM112.818 7.498C112.818 6.797 112.677 6.186 112.394 5.662 112.096 5.133 111.606 4.859 110.927 4.839 110.261 4.859 109.734 5.138 109.347 5.676 108.95 6.22 108.752 6.827 108.752 7.498L112.818 7.498zM113.261 11.602C112.568 11.872 111.854 12.012 111.119 12.021 109.912 11.997 109.048 11.613 108.524 10.868 108.006 10.139 107.751 9.192 107.761 8.029 107.771 6.842 108.06 5.881 108.63 5.146 109.181 4.417 109.928 4.047 110.87 4.038 111.901 4.057 112.655 4.432 113.131 5.161 113.583 5.876 113.81 6.762 113.81 7.817L113.81 8.299 108.752 8.299C108.752 9.128 108.96 9.812 109.375 10.348 109.78 10.919 110.385 11.209 111.187 11.219 111.546 11.219 111.923 11.153 112.319 11.021 112.716 10.915 113.03 10.79 113.261 10.648L113.261 11.602 113.261 11.602zM121.537 10.044C121.527 10.623 121.548 11.221 121.6 11.839L120.717 11.839 120.717 10.482 120.688 10.482C120.622 10.647 120.53 10.815 120.413 10.985 120.3 11.165 120.151 11.335 119.968 11.496 119.784 11.647 119.557 11.766 119.283 11.853 119.015 11.965 118.688 12.021 118.302 12.021 117.407 12.012 116.763 11.732 116.367 11.182 115.972 10.642 115.778 9.944 115.788 9.087L115.788 4.22 116.691 4.22 116.691 8.852C116.691 9.583 116.831 10.152 117.109 10.562 117.383 11 117.829 11.219 118.447 11.219 118.862 11.219 119.214 11.129 119.501 10.949 119.794 10.778 120.016 10.56 120.167 10.292 120.341 10.014 120.462 9.714 120.527 9.393 120.599 9.076 120.634 8.757 120.634 8.436L120.634 4.22 121.537 4.22 121.537 10.044M127.274 5.022L125.596 5.022 125.596 9.962C125.596 10.313 125.673 10.608 125.829 10.847 125.971 11.095 126.221 11.219 126.58 11.219 126.91 11.219 127.191 11.158 127.422 11.037L127.479 11.811C127.371 11.85 127.221 11.894 127.027 11.942 126.825 11.995 126.604 12.021 126.364 12.021 125.969 12.021 125.656 11.951 125.426 11.81 125.204 11.668 125.037 11.484 124.925 11.255 124.826 11.017 124.763 10.749 124.734 10.452 124.706 10.15 124.691 9.824 124.691 9.474L124.691 5.022 123.245 5.022 123.245 4.22 124.691 4.22 124.691 2.381 125.596 2.052 125.596 4.22 127.274 4.22 127.274 5.022M128.512 10.736C129.072 11.048 129.712 11.209 130.433 11.219 130.889 11.219 131.274 11.095 131.59 10.847 131.9 10.618 132.061 10.289 132.07 9.86 132.061 9.407 131.882 9.052 131.533 8.793 131.185 8.545 130.774 8.321 130.304 8.122 130.082 8.014 129.87 7.9 129.668 7.778 129.466 7.656 129.272 7.522 129.089 7.376 128.924 7.215 128.787 7.03 128.679 6.821 128.575 6.622 128.523 6.388 128.523 6.12 128.533 5.36 128.782 4.822 129.271 4.505 129.747 4.193 130.298 4.038 130.924 4.038 131.136 4.038 131.411 4.057 131.75 4.095 132.084 4.153 132.415 4.248 132.745 4.378L132.66 5.197C132.127 4.968 131.58 4.849 131.019 4.839 130.547 4.839 130.172 4.927 129.894 5.103 129.748 5.195 129.635 5.322 129.555 5.482 129.47 5.638 129.427 5.848 129.427 6.111 129.427 6.267 129.481 6.416 129.59 6.557 129.693 6.688 129.832 6.807 130.007 6.915 130.182 7.017 130.379 7.122 130.601 7.229 130.822 7.331 131.039 7.44 131.251 7.557 131.732 7.767 132.151 8.047 132.51 8.397 132.868 8.749 133.052 9.233 133.062 9.852 133.062 10.251 132.983 10.584 132.829 10.852 132.664 11.13 132.457 11.354 132.208 11.524 131.667 11.855 131.094 12.021 130.487 12.021 129.777 12.021 129.09 11.901 128.428 11.66L128.512 10.736M139.694 5.228C139.171 4.979 138.644 4.849 138.11 4.839 137.224 4.849 136.545 5.142 136.073 5.717 135.578 6.308 135.331 7.079 135.331 8.029 135.331 8.917 135.574 9.661 136.06 10.261 136.531 10.89 137.182 11.209 138.012 11.219 138.582 11.219 139.138 11.104 139.681 10.875L139.765 11.754C139.167 11.942 138.536 12.031 137.872 12.021 136.686 11.997 135.802 11.593 135.223 10.81 134.634 10.041 134.34 9.114 134.34 8.029 134.35 6.823 134.686 5.862 135.35 5.146 136.01 4.417 136.888 4.047 137.985 4.038 138.438 4.038 138.813 4.071 139.115 4.139 139.271 4.167 139.405 4.199 139.518 4.232 139.626 4.271 139.709 4.305 139.765 4.333L139.694 5.228M141.528.629L142.432.629 142.432 5.498 142.46 5.498C142.663 5.072 142.962 4.718 143.357 4.437 143.753 4.18 144.219 4.047 144.756 4.038 145.74 4.047 146.411 4.347 146.77 4.935 147.118 5.534 147.287 6.314 147.277 7.278L147.277 11.839 146.374 11.839 146.374 7.287C146.374 6.951 146.355 6.632 146.317 6.33 146.275 6.042 146.192 5.79 146.069 5.57 145.839 5.093 145.354 4.849 144.619 4.839 143.826 4.859 143.26 5.173 142.92 5.782 142.585 6.391 142.422 7.048 142.432 7.755L142.432 11.839 141.528 11.839 141.528.629M154.343 7.498C154.343 6.797 154.201 6.186 153.918 5.662 153.62 5.133 153.131 4.859 152.451 4.839 151.785 4.859 151.259 5.138 150.871 5.676 150.475 6.22 150.276 6.827 150.276 7.498L154.343 7.498zM154.785 11.602C154.093 11.872 153.379 12.012 152.644 12.021 151.437 11.997 150.572 11.613 150.049 10.868 149.53 10.139 149.275 9.192 149.285 8.029 149.295 6.842 149.584 5.881 150.154 5.146 150.705 4.417 151.452 4.047 152.395 4.038 153.426 4.057 154.18 4.432 154.655 5.161 155.107 5.876 155.334 6.762 155.334 7.817L155.334 8.299 150.276 8.299C150.276 9.128 150.484 9.812 150.899 10.348 151.305 10.919 151.909 11.209 152.711 11.219 153.07 11.219 153.447 11.153 153.844 11.021 154.24 10.915 154.555 10.79 154.785 10.648L154.785 11.602 154.785 11.602z"/>
    <polyline fill="#FFFFFE" points="98.317 19.346 103.118 19.346 103.118 20.235 99.309 20.235 99.309 23.966 102.941 23.966 102.941 24.854 99.309 24.854 99.309 29.774 98.317 29.774 98.317 19.346"/>
    <path fill="#FFFFFE" d="M105.402 25.965C105.402 26.872 105.615 27.621 106.04 28.211 106.446 28.83 107.052 29.145 107.855 29.154 108.658 29.145 109.272 28.83 109.698 28.211 110.104 27.621 110.308 26.872 110.308 25.965 110.308 25.053 110.104 24.294 109.698 23.689 109.272 23.09 108.658 22.785 107.855 22.775 107.052 22.785 106.446 23.09 106.04 23.689 105.615 24.294 105.402 25.053 105.402 25.965zM104.411 25.965C104.411 24.88 104.691 23.953 105.252 23.185 105.808 22.396 106.674 21.992 107.852 21.973 109.048 21.992 109.926 22.396 110.486 23.185 111.028 23.953 111.299 24.88 111.299 25.965 111.299 27.03 111.028 27.952 110.486 28.73 109.926 29.523 109.048 29.933 107.852 29.957 106.674 29.933 105.808 29.523 105.252 28.73 104.691 27.952 104.411 27.03 104.411 25.965L104.411 25.965zM113.293 23.855C113.293 23.15 113.274 22.584 113.236 22.155L114.141 22.155 114.141 23.614 114.168 23.614C114.343 23.167 114.588 22.785 114.904 22.469 115.215 22.148 115.602 21.982 116.063 21.973 116.304 21.982 116.516 22.012 116.699 22.06L116.699 23.038C116.497 22.979 116.275 22.95 116.035 22.95 115.677 22.96 115.382 23.05 115.151 23.221 114.92 23.4 114.731 23.644 114.586 23.951 114.448 24.253 114.352 24.577 114.296 24.923 114.229 25.293 114.196 25.653 114.196 26.004L114.196 29.774 113.293 29.774 113.293 23.855M117.703 28.672C118.264 28.984 118.903 29.145 119.624 29.154 120.08 29.154 120.466 29.03 120.781 28.782 121.092 28.554 121.252 28.225 121.262 27.796 121.252 27.343 121.073 26.987 120.725 26.729 120.376 26.48 119.966 26.257 119.495 26.057 119.273 25.95 119.062 25.835 118.859 25.714 118.657 25.592 118.464 25.458 118.28 25.311 118.115 25.151 117.979 24.966 117.87 24.757 117.767 24.557 117.715 24.323 117.715 24.055 117.725 23.295 117.974 22.757 118.463 22.44 118.938 22.129 119.489 21.973 120.115 21.973 120.327 21.973 120.603 21.992 120.941 22.031 121.275 22.089 121.606 22.184 121.937 22.313L121.852 23.133C121.318 22.904 120.771 22.785 120.21 22.775 119.738 22.775 119.363 22.862 119.085 23.038 118.939 23.131 118.826 23.257 118.746 23.418 118.661 23.574 118.618 23.783 118.618 24.046 118.618 24.202 118.673 24.351 118.781 24.492 118.885 24.624 119.023 24.743 119.198 24.85 119.373 24.952 119.57 25.057 119.792 25.164 120.014 25.267 120.23 25.376 120.442 25.493 120.924 25.702 121.343 25.982 121.701 26.333 122.06 26.684 122.243 27.169 122.253 27.787 122.253 28.186 122.175 28.52 122.021 28.788 121.855 29.065 121.648 29.29 121.399 29.46 120.858 29.791 120.285 29.957 119.679 29.957 118.969 29.957 118.281 29.837 117.619 29.596L117.703 28.672M128.886 23.163C128.362 22.914 127.835 22.785 127.302 22.775 126.415 22.785 125.736 23.077 125.265 23.653 124.77 24.243 124.522 25.014 124.522 25.965 124.522 26.852 124.766 27.597 125.251 28.196 125.723 28.825 126.373 29.145 127.203 29.154 127.773 29.154 128.329 29.04 128.872 28.811L128.956 29.689C128.358 29.877 127.728 29.967 127.063 29.957 125.877 29.933 124.993 29.528 124.414 28.745 123.825 27.977 123.531 27.05 123.531 25.965 123.541 24.759 123.877 23.798 124.541 23.082 125.201 22.352 126.079 21.982 127.177 21.973 127.629 21.973 128.005 22.007 128.307 22.074 128.462 22.103 128.597 22.135 128.709 22.168 128.817 22.207 128.9 22.24 128.956 22.269L128.886 23.163M130.72 18.564L131.623 18.564 131.623 23.434 131.651 23.434C131.854 23.007 132.153 22.653 132.549 22.373 132.944 22.116 133.41 21.982 133.947 21.973 134.932 21.982 135.603 22.282 135.961 22.871 136.31 23.469 136.479 24.25 136.469 25.213L136.469 29.774 135.565 29.774 135.565 25.223C135.565 24.887 135.547 24.567 135.509 24.266 135.467 23.978 135.384 23.725 135.261 23.506 135.03 23.028 134.546 22.785 133.811 22.775 133.018 22.795 132.451 23.108 132.111 23.718 131.776 24.326 131.613 24.984 131.623 25.69L131.623 29.774 130.72 29.774 130.72 18.564M144.781 27.979C144.771 28.559 144.792 29.157 144.844 29.774L143.961 29.774 143.961 28.418 143.933 28.418C143.866 28.583 143.774 28.751 143.657 28.921 143.544 29.101 143.396 29.271 143.212 29.432 143.028 29.582 142.801 29.701 142.527 29.789 142.259 29.9 141.932 29.957 141.546 29.957 140.651 29.947 140.007 29.667 139.611 29.117 139.216 28.577 139.022 27.88 139.032 27.023L139.032 22.155 139.936 22.155 139.936 26.787C139.936 27.519 140.075 28.088 140.354 28.497 140.627 28.936 141.073 29.154 141.691 29.154 142.106 29.154 142.458 29.064 142.745 28.885 143.038 28.714 143.26 28.495 143.411 28.227 143.585 27.949 143.706 27.649 143.771 27.328 143.843 27.012 143.878 26.692 143.878 26.371L143.878 22.155 144.781 22.155 144.781 27.979M147.345 23.942C147.345 23.359 147.326 22.764 147.288 22.155L148.17 22.155 148.17 23.512 148.198 23.512C148.282 23.332 148.384 23.152 148.501 22.973 148.614 22.792 148.758 22.63 148.932 22.483 149.115 22.323 149.341 22.196 149.609 22.104 149.882 22.017 150.204 21.973 150.575 21.973 151.483 21.982 152.135 22.263 152.529 22.812 152.906 23.348 153.094 24.043 153.094 24.899L153.094 29.774 152.19 29.774 152.19 25.135C152.19 24.409 152.061 23.832 151.801 23.403 151.518 22.994 151.063 22.785 150.436 22.775 149.624 22.795 149.053 23.092 148.723 23.666 148.553 23.939 148.433 24.234 148.361 24.551 148.286 24.882 148.248 25.218 148.248 25.559L148.248 29.774 147.345 29.774 147.345 23.942M156.21 25.965C156.199 26.745 156.362 27.429 156.698 28.014 157.029 28.634 157.577 28.953 158.343 28.973 159.165 28.953 159.748 28.624 160.094 27.984 160.424 27.365 160.59 26.692 160.59 25.965 160.59 25.014 160.436 24.248 160.129 23.668 159.808 23.082 159.231 22.785 158.399 22.775 157.965 22.775 157.61 22.87 157.337 23.061 157.058 23.236 156.831 23.484 156.656 23.807 156.5 24.104 156.385 24.443 156.309 24.823 156.242 25.204 156.21 25.585 156.21 25.965zM161.493 29.147C161.493 30.232 161.238 31.14 160.729 31.869 160.197 32.603 159.3 32.98 158.038 33 157.553 32.99 157.107 32.937 156.702 32.841 156.307 32.738 156.007 32.659 155.805 32.601L155.883 31.665C156.491 32.001 157.216 32.179 158.056 32.198 158.646 32.188 159.107 32.079 159.443 31.87 159.792 31.671 160.049 31.392 160.215 31.032 160.389 30.673 160.5 30.26 160.547 29.793 160.586 29.326 160.604 28.824 160.604 28.284L160.575 28.284C160.053 29.297 159.306 29.794 158.335 29.774 157.176 29.745 156.365 29.317 155.904 28.49 155.659 28.11 155.489 27.702 155.395 27.264 155.277 26.826 155.219 26.394 155.219 25.965 155.209 24.778 155.446 23.822 155.933 23.097 156.413 22.357 157.188 21.982 158.258 21.973 158.742 21.973 159.169 22.028 159.536 22.14 159.89 22.275 160.231 22.564 160.562 23.009L160.59 23.009 160.59 22.153 161.493 22.155 161.493 29.147 161.493 29.147zM163.402 28.672C163.963 28.984 164.603 29.145 165.323 29.154 165.779 29.154 166.165 29.03 166.48 28.782 166.791 28.554 166.951 28.225 166.961 27.796 166.951 27.343 166.772 26.987 166.424 26.729 166.075 26.48 165.665 26.257 165.194 26.057 164.973 25.95 164.761 25.835 164.559 25.714 164.356 25.592 164.163 25.458 163.979 25.311 163.814 25.151 163.678 24.966 163.569 24.757 163.466 24.557 163.414 24.323 163.414 24.055 163.424 23.295 163.673 22.757 164.162 22.44 164.638 22.129 165.188 21.973 165.814 21.973 166.026 21.973 166.302 21.992 166.641 22.031 166.975 22.089 167.306 22.184 167.636 22.313L167.551 23.133C167.018 22.904 166.471 22.785 165.909 22.775 165.438 22.775 165.063 22.862 164.784 23.038 164.639 23.131 164.525 23.257 164.445 23.418 164.36 23.574 164.317 23.783 164.317 24.046 164.317 24.202 164.372 24.351 164.48 24.492 164.584 24.624 164.723 24.743 164.897 24.85 165.072 24.952 165.27 25.057 165.491 25.164 165.713 25.267 165.93 25.376 166.142 25.493 166.623 25.702 167.042 25.982 167.4 26.333 167.759 26.684 167.942 27.169 167.952 27.787 167.952 28.186 167.874 28.52 167.72 28.788 167.555 29.065 167.348 29.29 167.099 29.46 166.558 29.791 165.984 29.957 165.378 29.957 164.668 29.957 163.98 29.837 163.318 29.596L163.402 28.672M170.339 25.965C170.328 26.745 170.491 27.429 170.827 28.014 171.158 28.634 171.706 28.953 172.472 28.973 173.294 28.953 173.877 28.624 174.223 27.984 174.553 27.365 174.719 26.692 174.719 25.965 174.719 25.014 174.564 24.248 174.258 23.668 173.937 23.082 173.36 22.785 172.528 22.775 172.094 22.775 171.739 22.87 171.466 23.061 171.187 23.236 170.96 23.484 170.785 23.807 170.629 24.104 170.514 24.443 170.438 24.823 170.371 25.204 170.339 25.585 170.339 25.965zM175.622 29.147C175.622 30.232 175.367 31.14 174.858 31.869 174.326 32.603 173.429 32.98 172.167 33 171.682 32.99 171.236 32.937 170.831 32.841 170.436 32.738 170.136 32.659 169.934 32.601L170.012 31.665C170.62 32.001 171.345 32.179 172.185 32.198 172.774 32.188 173.236 32.079 173.572 31.87 173.921 31.671 174.178 31.392 174.344 31.032 174.518 30.673 174.629 30.26 174.676 29.793 174.715 29.326 174.733 28.824 174.733 28.284L174.704 28.284C174.182 29.297 173.435 29.794 172.464 29.774 171.305 29.745 170.494 29.317 170.033 28.49 169.788 28.11 169.618 27.702 169.523 27.264 169.406 26.826 169.348 26.394 169.348 25.965 169.338 24.778 169.575 23.822 170.062 23.097 170.542 22.357 171.316 21.982 172.387 21.973 172.871 21.973 173.298 22.028 173.665 22.14 174.019 22.275 174.36 22.564 174.69 23.009L174.719 23.009 174.719 22.153 175.622 22.155 175.622 29.147 175.622 29.147zM182.601 25.433C182.601 24.733 182.459 24.121 182.176 23.598 181.878 23.068 181.389 22.795 180.709 22.775 180.043 22.795 179.517 23.073 179.129 23.612 178.732 24.155 178.534 24.763 178.534 25.433L182.601 25.433zM183.043 29.538C182.351 29.808 181.637 29.947 180.901 29.957 179.694 29.933 178.83 29.548 178.307 28.804 177.788 28.074 177.533 27.128 177.543 25.965 177.553 24.778 177.842 23.817 178.412 23.082 178.963 22.352 179.71 21.982 180.652 21.973 181.684 21.992 182.438 22.367 182.913 23.097 183.365 23.811 183.592 24.697 183.592 25.753L183.592 26.234 178.534 26.234C178.534 27.063 178.742 27.747 179.157 28.284 179.563 28.854 180.167 29.145 180.969 29.154 181.328 29.154 181.705 29.089 182.102 28.957 182.498 28.85 182.813 28.726 183.043 28.584L183.043 29.538 183.043 29.538zM194.627 29.774L194.627 24.704C194.627 24.422 194.607 24.161 194.568 23.922 194.509 23.693 194.413 23.493 194.28 23.323 194.162 23.147 193.998 23.009 193.786 22.906 193.575 22.819 193.312 22.775 192.997 22.775 192.467 22.775 191.994 22.994 191.582 23.433 191.159 23.891 190.942 24.6 190.933 25.559L190.933 29.774 190.029 29.774 190.029 24.704C190.029 24.422 190.007 24.161 189.963 23.922 189.904 23.693 189.808 23.493 189.676 23.323 189.558 23.147 189.393 23.009 189.182 22.906 188.97 22.819 188.707 22.775 188.393 22.775 187.861 22.775 187.39 22.994 186.977 23.433 186.554 23.891 186.338 24.6 186.328 25.559L186.328 29.774 185.423 29.774 185.423 23.943C185.423 23.359 185.404 22.764 185.366 22.155L186.275 22.155 186.275 23.44 186.304 23.454C186.372 23.313 186.467 23.158 186.588 22.987 186.685 22.817 186.823 22.659 187.002 22.513 187.182 22.362 187.404 22.23 187.671 22.119 187.938 22.021 188.27 21.973 188.667 21.973 188.847 21.973 189.041 21.992 189.249 22.031 189.448 22.07 189.646 22.15 189.846 22.271 190.044 22.383 190.219 22.543 190.369 22.751 190.515 22.969 190.619 23.245 190.682 23.58L190.711 23.58C190.899 23.124 191.203 22.744 191.62 22.438 192.027 22.138 192.533 21.982 193.14 21.973 193.91 21.982 194.504 22.221 194.921 22.688 195.328 23.15 195.532 23.764 195.532 24.527L195.532 29.774 194.627 29.774M202.523 25.433C202.523 24.733 202.382 24.121 202.099 23.598 201.801 23.068 201.312 22.795 200.632 22.775 199.966 22.795 199.439 23.073 199.052 23.612 198.655 24.155 198.457 24.763 198.457 25.433L202.523 25.433zM202.966 29.538C202.273 29.808 201.56 29.947 200.824 29.957 199.617 29.933 198.753 29.548 198.229 28.804 197.711 28.074 197.456 27.128 197.466 25.965 197.476 24.778 197.765 23.817 198.335 23.082 198.886 22.352 199.633 21.982 200.575 21.973 201.606 21.992 202.36 22.367 202.836 23.097 203.288 23.811 203.515 24.697 203.515 25.753L203.515 26.234 198.457 26.234C198.457 27.063 198.665 27.747 199.08 28.284 199.485 28.854 200.09 29.145 200.892 29.154 201.251 29.154 201.628 29.089 202.024 28.957 202.421 28.85 202.735 28.726 202.966 28.584L202.966 29.538 202.966 29.538zM205.494 29.774L206.397 29.774 206.397 22.155 205.494 22.155 205.494 29.774zM205.494 20.119L206.397 20.119 206.397 18.865 205.494 18.865 205.494 20.119zM208.814 23.942C208.814 23.359 208.796 22.764 208.758 22.155L209.64 22.155 209.64 23.512 209.668 23.512C209.752 23.332 209.854 23.152 209.971 22.973 210.084 22.792 210.228 22.63 210.401 22.483 210.585 22.323 210.811 22.196 211.079 22.104 211.352 22.017 211.674 21.973 212.045 21.973 212.953 21.982 213.604 22.263 213.999 22.812 214.376 23.348 214.563 24.043 214.563 24.899L214.563 29.774 213.66 29.774 213.66 25.135C213.66 24.409 213.53 23.832 213.271 23.403 212.987 22.994 212.532 22.785 211.905 22.775 211.094 22.795 210.522 23.092 210.192 23.666 210.022 23.939 209.902 24.234 209.831 24.551 209.756 24.882 209.718 25.218 209.718 25.559L209.718 29.774 208.814 29.774 208.814 23.942M216.561 28.672C217.121 28.984 217.761 29.145 218.481 29.154 218.938 29.154 219.323 29.03 219.639 28.782 219.949 28.554 220.109 28.225 220.119 27.796 220.109 27.343 219.931 26.987 219.582 26.729 219.233 26.48 218.823 26.257 218.353 26.057 218.131 25.95 217.919 25.835 217.717 25.714 217.515 25.592 217.321 25.458 217.138 25.311 216.973 25.151 216.836 24.966 216.728 24.757 216.624 24.557 216.572 24.323 216.572 24.055 216.582 23.295 216.831 22.757 217.32 22.44 217.796 22.129 218.347 21.973 218.973 21.973 219.185 21.973 219.46 21.992 219.799 22.031 220.133 22.089 220.464 22.184 220.794 22.313L220.709 23.133C220.176 22.904 219.629 22.785 219.067 22.775 218.596 22.775 218.221 22.862 217.942 23.038 217.797 23.131 217.684 23.257 217.604 23.418 217.519 23.574 217.476 23.783 217.476 24.046 217.476 24.202 217.53 24.351 217.639 24.492 217.742 24.624 217.881 24.743 218.056 24.85 218.23 24.952 218.428 25.057 218.649 25.164 218.871 25.267 219.088 25.376 219.3 25.493 219.781 25.702 220.2 25.982 220.559 26.333 220.917 26.684 221.101 27.169 221.11 27.787 221.11 28.186 221.032 28.52 220.878 28.788 220.713 29.065 220.506 29.29 220.257 29.46 219.716 29.791 219.143 29.957 218.536 29.957 217.826 29.957 217.139 29.837 216.477 29.596L216.561 28.672M227.743 23.163C227.22 22.914 226.692 22.785 226.159 22.775 225.272 22.785 224.594 23.077 224.122 23.653 223.627 24.243 223.38 25.014 223.38 25.965 223.38 26.852 223.623 27.597 224.108 28.196 224.58 28.825 225.23 29.145 226.061 29.154 226.631 29.154 227.187 29.04 227.729 28.811L227.813 29.689C227.216 29.877 226.585 29.967 225.921 29.957 224.734 29.933 223.851 29.528 223.271 28.745 222.683 27.977 222.389 27.05 222.389 25.965 222.398 24.759 222.734 23.798 223.398 23.082 224.059 22.352 224.937 21.982 226.034 21.973 226.486 21.973 226.862 22.007 227.164 22.074 227.319 22.103 227.454 22.135 227.566 22.168 227.675 22.207 227.758 22.24 227.813 22.269L227.743 23.163M229.576 18.564L230.479 18.564 230.479 23.434 230.508 23.434C230.711 23.007 231.01 22.653 231.405 22.373 231.801 22.116 232.267 21.982 232.804 21.973 233.788 21.982 234.459 22.282 234.817 22.871 235.166 23.469 235.335 24.25 235.325 25.213L235.325 29.774 234.422 29.774 234.422 25.223C234.422 24.887 234.403 24.567 234.365 24.266 234.323 23.978 234.24 23.725 234.117 23.506 233.887 23.028 233.402 22.785 232.667 22.775 231.874 22.795 231.308 23.108 230.968 23.718 230.633 24.326 230.47 24.984 230.479 25.69L230.479 29.774 229.576 29.774 229.576 18.564M242.041 25.935L241.779 25.935C241.383 25.935 240.986 25.945 240.59 25.965 240.175 26.003 239.797 26.089 239.457 26.221 239.117 26.338 238.846 26.52 238.644 26.769 238.421 27.023 238.311 27.359 238.311 27.779 238.311 28.267 238.466 28.616 238.777 28.825 239.065 29.045 239.422 29.154 239.847 29.154 240.38 29.154 240.8 29.045 241.106 28.825 241.409 28.616 241.628 28.367 241.765 28.079 241.906 27.767 241.987 27.462 242.006 27.164 242.029 26.852 242.041 26.596 242.041 26.396L242.041 25.935zM242.125 28.555L242.097 28.555C241.885 29 241.56 29.342 241.122 29.579 240.688 29.821 240.231 29.947 239.751 29.957 239.237 29.947 238.822 29.862 238.507 29.702 238.177 29.552 237.925 29.362 237.751 29.134 237.443 28.639 237.3 28.196 237.319 27.808 237.319 27.171 237.468 26.669 237.765 26.3 238.057 25.931 238.429 25.666 238.882 25.505 239.334 25.34 239.826 25.23 240.358 25.178 240.882 25.148 241.384 25.134 241.864 25.134L242.041 25.134 242.041 24.744C242.07 23.432 241.509 22.775 240.356 22.775 239.593 22.766 238.868 22.976 238.184 23.407L238.184 22.493C238.867 22.166 239.59 21.992 240.353 21.973 242.1 21.954 242.964 22.899 242.944 24.811L242.944 28.176C242.93 28.755 242.955 29.288 243.021 29.774L242.125 29.774 242.125 28.555 242.125 28.555zM245.982 22.958L244.492 22.958 244.492 22.155 245.982 22.155 245.982 21.601C245.982 21.192 246.001 20.793 246.039 20.404 246.058 20.024 246.131 19.686 246.258 19.39 246.38 19.078 246.577 18.833 246.851 18.652 247.108 18.477 247.469 18.39 247.93 18.39 248.085 18.39 248.244 18.394 248.409 18.404 248.574 18.434 248.698 18.477 248.783 18.535L248.727 19.359C248.523 19.248 248.283 19.191 248.005 19.191 247.702 19.191 247.474 19.263 247.318 19.403 247.152 19.564 247.042 19.759 246.985 19.987 246.929 20.216 246.9 20.46 246.9 20.718 246.891 20.985 246.886 21.243 246.886 21.491L246.886 22.155 248.55 22.155 248.55 22.958 246.886 22.958 246.886 29.774 245.982 29.774 245.982 22.958M253.513 22.958L251.834 22.958 251.834 27.897C251.834 28.249 251.911 28.543 252.067 28.782 252.209 29.03 252.459 29.154 252.818 29.154 253.148 29.154 253.43 29.094 253.66 28.972L253.717 29.747C253.609 29.786 253.459 29.829 253.266 29.877 253.063 29.931 252.842 29.957 252.603 29.957 252.207 29.957 251.895 29.887 251.664 29.745 251.442 29.604 251.275 29.419 251.163 29.19 251.064 28.952 251.001 28.685 250.973 28.388 250.944 28.086 250.93 27.76 250.93 27.41L250.93 22.958 249.483 22.958 249.483 22.155 250.93 22.155 250.93 20.316 251.834 19.988 251.834 22.155 253.513 22.155 253.513 22.958"/>
  </g>
</svg>
