<svg xmlns="http://www.w3.org/2000/svg" xmlns:xlink="http://www.w3.org/1999/xlink" width="264" height="83" viewBox="0 0 264 83">
  <defs>
    <polygon id="dfg_logo_schriftzug_blau_foerderung_en-a" points=".06 .74 28.893 .74 28.893 29.087 .06 29.087"/>
  </defs>
  <g fill="none" fill-rule="evenodd">
    <rect width="264" height="83" fill="#FFF"/>
    <g transform="translate(5 29)">
      <mask id="dfg_logo_schriftzug_blau_foerderung_en-b" fill="#fff">
        <use xlink:href="#dfg_logo_schriftzug_blau_foerderung_en-a"/>
      </mask>
      <path fill="#005093" d="M0,29.087 L15.048,29.087 C19.027,29.087 22.484,28.233 24.936,26.071 C27.387,23.911 28.889,20.42 28.893,14.997 C28.891,9.172 27.488,5.635 25.154,3.541 C22.82,1.444 19.478,0.74 15.49,0.741 L15.49,0.74 L0,0.74 L0,6.862 L13.12,6.862 C15.108,6.851 16.467,7.556 17.235,8.92 C18.005,10.274 18.236,12.2 18.239,14.707 C18.236,17.129 18.025,19.034 17.272,20.388 C16.52,21.751 15.17,22.48 13.16,22.468 L10.171,22.468 L10.171,12.434 L0,12.434 L0,29.087" mask="url(#dfg_logo_schriftzug_blau_foerderung_en-b)"/>
    </g>
    <polyline fill="#005093" points="36 58 46.239 58 46.239 47.843 59 47.843 59 41.551 46.239 41.551 46.239 36.047 59 36.047 59 30 36 30 36 58"/>
    <path fill="#005093" d="M65.9422427 32.5333311C62.9152701 34.8826256 61.0040279 38.3754345 61 43.0908254 61.0040279 48.1224865 62.8447817 51.8228478 65.8274473 54.2937087 68.8131339 56.7625929 72.9689276 58 77.6090772 58 81.9531756 57.9980233 85.3869668 57.5690819 89 56.5174835L89 43.588951 80.2977055 43.588951 80.2977055 51.1191466 80.104366 51.1922841C79.3733007 51.4660555 78.4599727 51.4541954 77.6896353 51.4581487 75.4450838 51.4640788 73.8460045 50.5439302 72.8652089 49.1157726 71.8813925 47.6905801 71.4866576 45.7909822 71.4846436 43.7866199 71.4826296 41.1210551 72.4050205 39.0336719 74.039344 37.6381296 75.6716536 36.2415991 77.9826656 35.5418513 80.7236568 35.5418513 83.5270805 35.5418513 85.7353809 36.1605548 87.3072718 36.9729739L87.3072718 30.0021812C84.7183342 29.3815009 82.7476804 29.0019767 77.6090772 29L77.6070632 29C73.1300439 29 68.9692153 30.1870016 65.9422427 32.5333311M104.048846 39.1474875L104.926063 39.1474875C108.18914 39.2126966 109.865175 37.8059072 109.949931 34.9290372 109.925563 33.4167626 109.504966 32.3504028 108.690256 31.7280399 107.860714 31.1354047 106.829878 30.8438819 105.600927 30.8525125L104.048846 30.8525125 104.048846 39.1474875zM103 30L105.648602 30C107.550298 30.0182202 108.924392 30.4813962 109.771945 31.3856924 110.602546 32.2947833 111.009371 33.4944381 110.999836 34.9827388 110.980766 36.769275 110.401252 38.0552359 109.263413 38.8377445 108.141465 39.6135405 106.677318 40 104.869913 40L103 40 103 30 103 30zM118.018065 35.4679359C118.018065 34.7645291 117.87623 34.1523046 117.595536 33.6282565 117.300955 33.0971944 116.814947 32.8236473 116.140487 32.8036072 115.479913 32.8236473 114.95919 33.1032064 114.573359 33.6412826 114.180585 34.1863727 113.984198 34.7945892 113.984198 35.4679359L118.018065 35.4679359zM118.455473 39.5791583C117.770102 39.8507014 117.060927 39.98998 116.332907 40 115.13574 39.9759519 114.276795 39.5911824 113.758056 38.8446894 113.244276 38.1132265 112.990361 37.1653307 113.00028 36 113.010198 34.8096192 113.296844 33.8466934 113.8622 33.1112224 114.408711 32.3797595 115.150618 32.009018 116.084943 32 117.107544 32.0190381 117.855401 32.3947896 118.327523 33.1262525 118.775841 33.8426854 119 34.7294589 119 35.7875752L119 36.2695391 113.984198 36.2695391C113.984198 37.1012024 114.189512 37.7855711 114.602123 38.3226453 115.003823 38.8957916 115.603894 39.1853707 116.398369 39.1953908 116.754444 39.1953908 117.128373 39.1302605 117.522139 38.997996 117.914913 38.8907816 118.227346 38.7665331 118.455473 38.6242485L118.455473 39.5791583 118.455473 39.5791583zM126.935999 37.9728275C126.925676 38.5665214 126.945289 39.1786721 127 39.8123558L126.088496 39.8123558 126.088496 38.4219431 126.058559 38.4219431C125.990429 38.5911305 125.895459 38.763394 125.774682 38.9377083 125.657002 39.1222763 125.504224 39.2965906 125.314285 39.4616765 125.125377 39.6154832 124.891049 39.7375032 124.609237 39.8277365 124.330521 39.9415534 123.993997 40 123.594504 40 122.671645 39.9897462 122.005823 39.7036657 121.599104 39.1386824 121.189289 38.5860036 120.990059 37.8692643 121.000381 36.9915406L121.000381 32 121.933564 32 121.933564 36.7495514C121.933564 37.4991028 122.077051 38.0835683 122.365057 38.502948 122.64687 38.9520636 123.107267 39.1766214 123.746249 39.1766214 124.173614 39.1766214 124.535945 39.0843373 124.832209 38.9007947 125.134668 38.725455 125.364866 38.5008972 125.520741 38.2250705 125.699326 37.9410408 125.824232 37.6344527 125.893394 37.304281 125.965654 36.9802615 126.001784 36.6531659 126.001784 36.3229941L126.001784 32 126.935999 32 126.935999 37.9728275M131.80633 32.9782325L130.221068 32.9782325 130.221068 37.9345973C130.221068 38.2856856 130.292867 38.581603 130.44119 38.8213462 130.575342 39.0711205 130.811526 39.194503 131.15163 39.194503 131.463392 39.194503 131.728862 39.1343164 131.94615 39.0129401L132 39.789347C131.898914 39.8274651 131.756259 39.871602 131.573925 39.9197512 131.382145 39.972916 131.173359 40 130.946623 40 130.573453 40 130.278696 39.9297823 130.060463 39.7873408 129.850732 39.6448992 129.693906 39.4613301 129.586207 39.2306149 129.494568 38.9918748 129.43316 38.7240445 129.407652 38.426121 129.380255 38.1231819 129.367029 37.7961681 129.367029 37.4450797L129.367029 32.9782325 128 32.9782325 128 32.1737386 129.367029 32.1737386 129.367029 30.32902 130.221068 30 130.221068 32.1737386 131.80633 32.1737386 131.80633 32.9782325M133.090654 38.7124248C133.696093 39.0250501 134.384632 39.1853707 135.162746 39.1953908 135.655946 39.1953908 136.071444 39.0721443 136.412476 38.8226453 136.748111 38.5931864 136.920786 38.2645291 136.931578 37.8346693 136.920786 37.3807615 136.726527 37.0240481 136.35204 36.7645291 135.974315 36.5160321 135.531837 36.2925852 135.023527 36.0921844 134.7861 35.9839679 134.556227 35.8707415 134.338226 35.747495 134.119145 35.6262525 133.910857 35.491984 133.712281 35.3456914 133.53529 35.1833667 133.388517 34.998998 133.269804 34.7885772 133.158645 34.5891784 133.103605 34.3547094 133.103605 34.0861723 133.114397 33.3246493 133.382042 32.7865731 133.910857 32.4679359 134.423484 32.1563126 135.017052 32 135.693719 32 135.921433 32 136.219296 32.0190381 136.58515 32.0581162 136.945608 32.1162325 137.302828 32.2114228 137.658968 32.3406814L137.568314 33.1623246C136.992014 32.9328657 136.402763 32.8136273 135.795165 32.8036072 135.286855 32.8036072 134.88215 32.8917836 134.581049 33.0671343 134.425642 33.1603206 134.302612 33.2875752 134.216275 33.4478958 134.123462 33.6042084 134.077056 33.8136273 134.077056 34.0781563 134.077056 34.2334669 134.136413 34.3827655 134.254047 34.5240481 134.366285 34.6553106 134.516296 34.7745491 134.703 34.8827655 134.892942 34.9849699 135.105547 35.0901804 135.344054 35.1973948 135.584718 35.3006012 135.818908 35.4098196 136.045543 35.5260521 136.566803 35.7374749 137.017915 36.0170341 137.405353 36.3687375 137.791712 36.7204409 137.989208 37.2054108 138 37.8256513 138 38.2254509 137.915821 38.5591182 137.749622 38.8286573 137.572631 39.1062124 137.349234 39.3306613 137.07943 39.502004 136.495575 39.8336673 135.877185 40 135.222102 40 134.456939 40 133.71444 39.8787575 133 39.6382766L133.090654 38.7124248M144.935472 33.1922727C144.452434 32.9427972 143.96663 32.8135508 143.475295 32.8035317 142.657633 32.8135508 142.032633 33.1071104 141.597529 33.6822067 141.142146 34.2743354 140.913532 35.0468079 140.913532 35.9996242 140.913532 36.8883182 141.138459 37.634741 141.584624 38.2348851 142.020649 38.8660883 142.619838 39.1846956 143.384956 39.1947147 143.91132 39.1947147 144.422013 39.080497 144.922566 38.8500577L145 39.7307365C144.449668 39.9190955 143.867994 40.0092674 143.2559 39.9992483 142.162611 39.9752025 141.346792 39.5704309 140.813975 38.7859355 140.270096 38.0144649 140 37.0866964 140 35.9996242 140.009218 34.790319 140.318953 33.8274836 140.931047 33.111118 141.539454 32.3797238 142.347898 32.0090172 143.360066 32 143.777655 32 144.123341 32.0340649 144.402655 32.1011929 144.544617 32.1302483 144.669063 32.1623094 144.77323 32.1953724 144.871866 32.2344469 144.949299 32.2675099 145 32.2965653L144.935472 33.1922727M146 29L146.943236 29 146.943236 33.778769 146.971408 33.778769C147.184262 33.3607493 147.495196 33.0133809 147.909427 32.737645 148.320527 32.4844781 148.807797 32.3539697 149.368104 32.3451383 150.395855 32.3539697 151.094935 32.6483497 151.469517 33.2263158 151.832621 33.8131133 152.009999 34.5794826 151.999565 35.5244425L151.999565 40 151.056329 40 151.056329 35.5342551C151.056329 35.2045495 151.037548 34.8905442 150.996855 34.5951829 150.954076 34.3125781 150.86643 34.0643176 150.738091 33.8494202 150.497065 33.3803747 149.992059 33.1419269 149.226201 33.1321142 148.398783 33.1517395 147.807173 33.4598573 147.452416 34.0574487 147.101833 34.6540589 146.932802 35.2997324 146.943236 35.9925067L146.943236 40 146 40 146 29M159.015919 35.4679359C159.015919 34.7645291 158.877037 34.1523046 158.595304 33.6282565 158.299683 33.0971944 157.814587 32.8236473 157.141007 32.8036072 156.480324 32.8236473 155.956539 33.1032064 155.573621 33.6412826 155.17979 34.1863727 154.982379 34.7945892 154.982379 35.4679359L159.015919 35.4679359zM159.456375 39.5791583C158.767915 39.8507014 158.060607 39.98998 157.330483 40 156.133118 39.9759519 155.277008 39.5911824 154.757191 38.8446894 154.242334 38.1132265 153.990362 37.1653307 154.000282 36 154.00921 34.8096192 154.295903 33.8466934 154.862344 33.1112224 155.408946 32.3797595 156.14899 32.009018 157.084462 32 158.107232 32.0190381 158.855213 32.3947896 159.326421 33.1262525 159.775804 33.8426854 160 34.7294589 160 35.7875752L160 36.2695391 154.982379 36.2695391C154.982379 37.1012024 155.18971 37.7855711 155.600405 38.3226453 156.003164 38.8957916 156.602342 39.1853707 157.39794 39.1953908 157.755066 39.1953908 158.129056 39.1302605 158.521895 38.997996 158.915726 38.8907816 159.227219 38.7665331 159.456375 38.6242485L159.456375 39.5791583 159.456375 39.5791583z"/>
    <polyline fill="#005093" points="103 48 108 48 108 48.853 104.033 48.853 104.033 52.43 107.817 52.43 107.817 53.282 104.033 53.282 104.033 58 103 58 103 48"/>
    <path fill="#005093" d="M110.00813 54.0005009C110.00813 54.9082029 110.224593 55.6596118 110.655488 56.2507201 111.068089 56.8708829 111.682927 57.1864746 112.501016 57.1954915 113.317073 57.1864746 113.940041 56.8708829 114.372967 56.2507201 114.785569 55.6596118 114.99187 54.9082029 114.99187 54.0005009 114.99187 53.0867877 114.785569 52.3253601 114.372967 51.7202254 113.940041 51.1190983 113.317073 50.8145272 112.501016 50.8045085 111.682927 50.8145272 111.068089 51.1190983 110.655488 51.7202254 110.224593 52.3253601 110.00813 53.0867877 110.00813 54.0005009zM109 54.0005009C109 52.9124609 109.285569 51.9847214 109.854675 51.2142768 110.418699 50.4247965 111.299797 50.0200376 112.496951 50 113.711382 50.0200376 114.604675 50.4247965 115.174797 51.2142768 115.724593 51.9847214 116 52.9124609 116 54.0005009 116 55.0664997 115.724593 55.9902317 115.174797 56.7706951 114.604675 57.5651847 113.711382 57.974953 112.496951 58 111.299797 57.974953 110.418699 57.5651847 109.854675 56.7706951 109.285569 55.9902317 109 55.0664997 109 54.0005009L109 54.0005009zM118.048513 51.9310345C118.048513 51.2080502 118.032053 50.6265863 118 50.1876682L118.783136 50.1876682 118.783136 51.6838867 118.806526 51.6838867C118.957262 51.2244584 119.170373 50.8337393 119.44499 50.5086527 119.713543 50.1804897 120.048802 50.0102551 120.448166 50 120.656079 50.0102551 120.840601 50.0399949 121 50.0892193L121 51.0931932C120.824141 51.0326881 120.632688 51.0029483 120.424776 51.0029483 120.112908 51.0121779 119.857349 51.1044738 119.6581 51.2798359 119.457984 51.4644276 119.294254 51.714652 119.16864 52.0294834 119.04909 52.3381618 118.965925 52.6704269 118.916546 53.0252532 118.85937 53.4057172 118.830783 53.7738751 118.830783 54.1348545L118.830783 58 118.048513 58 118.048513 51.9310345M122.090674 56.7125861C122.695164 57.0251722 123.384931 57.1864746 124.163212 57.1954915 124.65652 57.1954915 125.071028 57.0702567 125.413212 56.8217909 125.747841 56.5933626 125.920553 56.2647464 125.931347 55.8339386 125.920553 55.3800877 125.727332 55.0234189 125.351684 54.7649343 124.973877 54.5164684 124.531304 54.2920476 124.023964 54.0926738 123.785406 53.9844709 123.555484 53.8692549 123.338515 53.7480276 123.119387 53.6268003 122.909974 53.4915466 122.712435 53.3452724 122.535406 53.1839699 122.387522 52.9986224 122.269862 52.7892298 122.157599 52.589856 122.102547 52.3554164 122.102547 52.0859111 122.113342 51.3244834 122.381045 50.7854728 122.909974 50.4688791 123.422712 50.156293 124.017487 50 124.694301 50 124.922064 50 125.218912 50.0200376 125.585924 50.0591108 125.946459 50.1162179 126.302677 50.2113964 126.658895 50.3416406L126.568221 51.1621791C125.992876 50.9337508 125.402418 50.8145272 124.794689 50.8045085 124.287349 50.8045085 123.882556 50.8916719 123.580311 51.0680025 123.42487 51.1601753 123.302893 51.286412 123.216537 51.4477145 123.123705 51.6050094 123.077288 51.814402 123.077288 52.0768942 123.077288 52.2341891 123.135579 52.3824671 123.254318 52.5247339 123.365501 52.65598 123.515544 52.7752035 123.703368 52.8834064 123.893351 52.9845961 124.106002 53.0907952 124.34456 53.1979962 124.584197 53.3001879 124.818437 53.4093926 125.0462 53.5266124 125.566494 53.736005 126.017703 54.0175329 126.406304 54.3681904 126.791667 54.7208516 126.990285 55.2057608 127 55.8259236 127 56.2256731 126.915803 56.5603006 126.749568 56.8278021 126.572539 57.1053225 126.349093 57.3307451 126.079231 57.5010645 125.49525 57.8336882 124.877807 58 124.221503 58 123.456174 58 122.714594 57.8787727 122 57.6383219L122.090674 56.7125861M133.93455 51.1931252C133.452434 50.9436809 132.965708 50.8144507 132.474373 50.8044329 131.657633 50.8144507 131.032633 51.1069718 130.596608 51.6839996 130.141224 52.2750524 129.912611 53.0474281 129.912611 54.0001251 129.912611 54.8887079 130.137537 55.6340354 130.583702 56.2341043 131.019727 56.8642267 131.619838 57.1857995 132.384956 57.1948155 132.910398 57.1948155 133.422013 57.0796103 133.922566 56.8512035L134 57.7307702C133.448746 57.9191057 132.867072 58.0092663 132.254978 57.9992484 131.161689 57.9742038 130.346792 57.5684811 129.813975 56.7840839 129.270096 56.0157153 129 55.0860594 129 54.0001251 129.009218 52.7909713 129.318031 51.8282565 129.931047 51.1119807 130.539454 50.3806781 131.347898 50.0100178 132.359145 50 132.776733 50 133.122419 50.0340607 133.401733 50.102182 133.543695 50.1312338 133.668142 50.1622891 133.772308 50.195348 133.871866 50.2354193 133.949299 50.2684782 134 50.29753L133.93455 51.1931252M136 47L136.944279 47 136.944279 51.7782139 136.972451 51.7782139C137.184262 51.3591757 137.496239 51.0127576 137.909427 50.7379784 138.321571 50.4857704 138.80884 50.3542689 139.369147 50.3444553 140.395855 50.3542689 141.094935 50.6486752 141.469517 51.2266928 141.832621 51.8125613 142.009999 52.578999 141.999565 53.5250245L141.999565 58 141.056329 58 141.056329 53.5348381C141.056329 53.205103 141.037548 52.8900883 140.996855 52.5947007 140.954076 52.313052 140.86643 52.063788 140.738091 51.8488714 140.498109 51.3807655 139.992059 51.1422964 139.226201 51.1324828 138.398783 51.1511286 137.808217 51.4592738 137.45346 52.0569185 137.102877 52.6545633 136.933845 53.3002944 136.944279 53.9921492L136.944279 58 136 58 136 47M149.935999 55.9707767C149.925676 56.5665214 149.946321 57.1786721 150 57.8113304L149.088496 57.8113304 149.088496 56.4219431 149.058559 56.4219431C148.990429 56.5901051 148.895459 56.7623686 148.774682 56.9366829 148.657002 57.121251 148.504224 57.2965906 148.314285 57.4616765 148.125377 57.6154832 147.891049 57.7375032 147.609237 57.8277365 147.330521 57.9415534 146.993997 58 146.594504 58 145.671645 57.9897462 145.005823 57.701615 144.599104 57.1386824 144.189289 56.5839528 143.990059 55.8692643 144.000381 54.9915406L144.000381 50 144.933564 50 144.933564 54.7495514C144.933564 55.4991028 145.077051 56.0835683 145.365057 56.5019226 145.64687 56.953089 146.107267 57.1766214 146.746249 57.1766214 147.173614 57.1766214 147.536977 57.0843373 147.833242 56.9007947 148.1357 56.7244296 148.364866 56.4998718 148.520741 56.2260959 148.699326 55.9410408 148.825264 55.6324019 148.893394 55.304281 148.965654 54.9802615 149.001784 54.6511151 149.001784 54.3229941L149.001784 50 149.935999 50 149.935999 55.9707767M152.057871 52.0202538C152.057871 51.4223817 152.040303 50.8111781 152 50.1876682L152.911471 50.1876682 152.911471 51.5782592 152.940406 51.5782592C153.027213 51.394693 153.131588 51.2101013 153.252497 51.0255096 153.370307 50.8398923 153.519118 50.6737598 153.698932 50.5240354 153.88908 50.3599539 154.120565 50.2297141 154.399587 50.1353673 154.679642 50.0451224 155.013434 50 155.396831 50 156.335171 50.0102551 157.008956 50.2973978 157.417155 50.861428 157.806752 51.4100756 158 52.1228048 158 53.0006409L158 58 157.065794 58 157.065794 53.2436867C157.065794 52.4981413 156.932484 51.9074478 156.663796 51.4675042 156.37134 51.0480708 155.901137 50.8337393 155.253186 50.8234842 154.414054 50.8429689 153.823975 51.1475452 153.482949 51.7361877 153.307268 52.0171773 153.182225 52.3197026 153.109886 52.6447891 153.031347 52.9832073 152.993111 53.3277785 152.993111 53.6785028L152.993111 58 152.057871 58 152.057871 52.0202538M160.947009 53.9828618C160.938402 54.7598839 161.09332 55.4421473 161.414631 56.0266594 161.732116 56.6440878 162.255202 56.9632753 162.986757 56.9832245 163.773777 56.9632753 164.332245 56.6341132 164.662162 55.9967356 164.977735 55.3793072 165.136478 54.7070185 165.136478 53.9828618 165.136478 53.0342764 164.989211 52.2702213 164.695632 51.6906964 164.38771 51.1071817 163.836891 50.8109358 163.041265 50.8009612 162.626239 50.8009612 162.286759 50.89572 162.024738 51.0852376 161.757936 51.2607907 161.541816 51.508161 161.375423 51.8293435 161.225287 52.1265869 161.115314 52.4647262 161.042637 52.8427639 160.979523 53.2227965 160.947009 53.6028292 160.947009 53.9828618zM166 57.1557853C166 58.2390279 165.757105 59.1437251 165.269401 59.8718716 164.761616 60.604008 163.901919 60.9800508 162.696048 61 162.232251 60.9900254 161.806706 60.93716 161.418456 60.8404062 161.040725 60.7386652 160.752884 60.6588683 160.560671 60.6010156L160.635261 59.6673921C161.21668 60.002539 161.909028 60.1800871 162.712304 60.1990388 163.276511 60.1890642 163.719269 60.080341 164.040579 59.8718716 164.373365 59.6733769 164.61913 59.3950852 164.777872 59.0359993 164.944265 58.6779108 165.050413 58.2669568 165.095358 57.8011425 165.132653 57.3353283 165.149866 56.8346028 165.149866 56.2949764L165.122134 56.2949764C164.622955 57.3064019 163.907656 57.8011425 162.979107 57.7811933 161.871733 57.752267 161.097145 57.3253536 160.656299 56.5014509 160.421054 56.1214182 160.258486 55.7144541 160.168596 55.2785637 160.056711 54.8416757 160.00029 54.4097751 160.00029 53.9828618 159.990728 52.7978781 160.217366 51.8453029 160.682119 51.1211462 161.14209 50.3840225 161.883208 50.0099746 162.90643 50 163.370226 50 163.776646 50.0558578 164.128557 50.166576 164.466125 50.3022307 164.793173 50.5904969 165.108746 51.0333696L165.136478 51.0333696 165.136478 50.1805404 166 50.1825354 166 57.1557853 166 57.1557853zM168.090654 56.7125861C168.695014 57.0251722 169.384632 57.1864746 170.162746 57.1954915 170.655946 57.1954915 171.071444 57.0702567 171.412476 56.8217909 171.748111 56.5933626 171.920786 56.2647464 171.930499 55.8339386 171.920786 55.3800877 171.726527 55.0234189 171.350961 54.7649343 170.974315 54.5164684 170.531837 54.2920476 170.023527 54.0926738 169.785021 53.9844709 169.555148 53.8692549 169.338226 53.7480276 169.119145 53.6268003 168.910857 53.4915466 168.712281 53.3452724 168.53529 53.1839699 168.387438 52.9986224 168.269804 52.7892298 168.157565 52.589856 168.103605 52.3554164 168.103605 52.0859111 168.113318 51.3244834 168.380963 50.7854728 168.910857 50.4688791 169.422404 50.156293 170.017052 50 170.693719 50 170.921433 50 171.218217 50.0200376 171.58515 50.0591108 171.945608 50.1162179 172.301748 50.2113964 172.657889 50.3416406L172.567235 51.1621791C171.992014 50.9337508 171.401684 50.8145272 170.795165 50.8045085 170.286855 50.8045085 169.88215 50.8916719 169.581049 51.0680025 169.424563 51.1601753 169.302612 51.286412 169.216275 51.4477145 169.123462 51.6050094 169.077056 51.814402 169.077056 52.0768942 169.077056 52.2341891 169.136413 52.3824671 169.254047 52.5247339 169.365206 52.65598 169.515217 52.7752035 169.703 52.8834064 169.892942 52.9845961 170.105547 53.0907952 170.344054 53.1979962 170.583639 53.3001879 170.817829 53.4093926 171.045543 53.5266124 171.566803 53.736005 172.017915 54.0175329 172.405353 54.3681904 172.790632 54.7208516 172.989208 55.2057608 173 55.8259236 173 56.2256731 172.915821 56.5603006 172.748543 56.8278021 172.571552 57.1053225 172.348155 57.3307451 172.078351 57.5010645 171.494496 57.8336882 170.877185 58 170.221023 58 169.45586 58 168.71444 57.8787727 168 57.6383219L168.090654 56.7125861M174.947009 53.9828618C174.938402 54.7598839 175.09332 55.4421473 175.414631 56.0266594 175.732116 56.6440878 176.255202 56.9632753 176.986757 56.9832245 177.772821 56.9632753 178.331289 56.6341132 178.662162 55.9967356 178.977735 55.3793072 179.136478 54.7070185 179.136478 53.9828618 179.136478 53.0342764 178.989211 52.2702213 178.695632 51.6906964 178.38771 51.1071817 177.836891 50.8109358 177.041265 50.8009612 176.626239 50.8009612 176.286759 50.89572 176.024738 51.0852376 175.757936 51.2607907 175.54086 51.508161 175.375423 51.8293435 175.225287 52.1265869 175.115314 52.4647262 175.042637 52.8427639 174.979523 53.2227965 174.947009 53.6028292 174.947009 53.9828618zM180 57.1557853C180 58.2390279 179.757105 59.1437251 179.269401 59.8718716 178.761616 60.604008 177.901919 60.9800508 176.696048 61 176.232251 60.9900254 175.806706 60.93716 175.418456 60.8404062 175.040725 60.7386652 174.752884 60.6588683 174.560671 60.6010156L174.635261 59.6673921C175.21668 60.002539 175.909028 60.1800871 176.712304 60.1990388 177.276511 60.1890642 177.719269 60.080341 178.040579 59.8718716 178.372409 59.6733769 178.61913 59.3950852 178.777872 59.0359993 178.944265 58.6779108 179.050413 58.2669568 179.095358 57.8011425 179.132653 57.3353283 179.149866 56.8346028 179.149866 56.2949764L179.122134 56.2949764C178.622955 57.3064019 177.907656 57.8011425 176.979107 57.7811933 175.871733 57.752267 175.097145 57.3253536 174.656299 56.5014509 174.421054 56.1214182 174.258486 55.7144541 174.168596 55.2785637 174.056711 54.8416757 174.00029 54.4097751 174.00029 53.9828618 173.990728 52.7978781 174.217366 51.8453029 174.682119 51.1211462 175.14209 50.3840225 175.883208 50.0099746 176.90643 50 177.370226 50 177.776646 50.0558578 178.128557 50.166576 178.466125 50.3022307 178.793173 50.5904969 179.108746 51.0333696L179.136478 51.0333696 179.136478 50.1805404 180 50.1825354 180 57.1557853 180 57.1557853zM188.016073 53.4664997C188.016073 52.7651847 187.876221 52.1530369 187.595524 51.6280526 187.298957 51.0980589 186.814929 50.8235441 186.140463 50.8045085 185.479883 50.8235441 184.957172 51.1030683 184.573322 51.6430808 184.180544 52.1871008 183.983164 52.7952411 183.983164 53.4664997L188.016073 53.4664997zM188.455468 57.579211C187.768108 57.8497182 187.060911 57.9899812 186.3309 58 185.133723 57.974953 184.277747 57.5892298 183.758011 56.8438322 183.243235 56.1134627 182.991302 55.1646838 183.000229 54.0005009 183.010148 52.8102693 183.296796 51.8484659 183.863149 51.1120852 184.408673 50.3807138 185.148601 50.0100188 186.084919 50 187.107528 50.0200376 187.855392 50.395742 188.326526 51.1261115 188.775839 51.8424546 189 52.730119 189 53.7871008L189 54.2700063 183.983164 54.2700063C183.983164 55.0995617 184.190463 55.7848466 184.601094 56.3228554 185.00379 56.8939261 185.602874 57.1864746 186.398347 57.1954915 186.755417 57.1954915 187.129349 57.1293676 187.522126 56.9981215 187.915895 56.8909205 188.22734 56.7656857 188.455468 56.6244208L188.455468 57.579211 188.455468 57.579211zM199.109778 58L199.109778 52.8006666C199.109778 52.5124984 199.091088 52.2448404 199.052725 51.9987181 198.992721 51.7649019 198.899272 51.5598 198.768444 51.3854634 198.653354 51.2049737 198.492032 51.0624279 198.28251 50.9578259 198.074956 50.8686066 197.815267 50.8234842 197.506394 50.8234842 196.985048 50.8234842 196.520755 51.0480708 196.115483 51.4972439 195.698406 51.9669273 195.48495 52.6950391 195.475113 53.6785028L195.475113 58 194.587842 58 194.587842 52.8006666C194.587842 52.5124984 194.564234 52.2448404 194.521936 51.9987181 194.464883 51.7649019 194.368483 51.5598 194.239622 51.3854634 194.122565 51.2049737 193.961243 51.0624279 193.753689 50.9578259 193.544167 50.8686066 193.287429 50.8234842 192.977572 50.8234842 192.455243 50.8234842 191.989967 51.0480708 191.584694 51.4972439 191.167618 51.9669273 190.956128 52.6950391 190.947275 53.6785028L190.947275 58 190.055086 58 190.055086 52.0212793C190.055086 51.4223817 190.038363 50.8111781 190 50.1876682L190.895141 50.1876682 190.895141 51.505448 190.9217 51.5198052C190.989573 51.3752083 191.083022 51.2162543 191.202046 51.0408922 191.296478 50.8665556 191.433209 50.7045251 191.609286 50.5537752 191.786347 50.3999487 192.005705 50.2645815 192.266378 50.1507499 192.530002 50.05025 192.856581 50 193.247098 50 193.423175 50 193.615975 50.0205102 193.819595 50.0605051 194.015345 50.1004999 194.211096 50.1825407 194.406846 50.3066274 194.60063 50.4204589 194.773756 50.5845404 194.92229 50.7978464 195.063939 51.0214075 195.168208 51.3054737 195.229195 51.6490194L195.257722 51.6490194C195.442652 51.181387 195.742672 50.7916934 196.151879 50.4778875 196.553217 50.1692091 197.050954 50.0102551 197.646075 50 198.405469 50.0102551 198.988786 50.2543264 199.397993 50.7342648 199.800315 51.2080502 200 51.8366876 200 52.6201769L200 58 199.109778 58M207.018057 53.4664997C207.018057 52.7651847 206.876221 52.1530369 206.595524 51.6280526 206.300941 51.0980589 205.814929 50.8235441 205.140463 50.8045085 204.479883 50.8235441 203.959155 51.1030683 203.573321 51.6430808 203.180544 52.1871008 202.985147 52.7952411 202.985147 53.4664997L207.018057 53.4664997zM207.455468 57.579211C206.770091 57.8497182 206.06091 57.9899812 205.332884 58 204.135707 57.974953 203.276754 57.5892298 202.758011 56.8438322 202.244226 56.1134627 201.991301 55.1646838 202.000228 54.0005009 202.010147 52.8102693 202.296795 51.8484659 202.862156 51.1120852 203.408672 50.3807138 204.150585 50.0100188 205.084918 50 206.107528 50.0200376 206.855392 50.395742 207.327518 51.1261115 207.775839 51.8424546 208 52.730119 208 53.7871008L208 54.2700063 202.985147 54.2700063C202.985147 55.0995617 203.190462 55.7848466 203.603077 56.3228554 204.003789 56.8939261 204.603865 57.1864746 205.398347 57.1954915 205.754425 57.1954915 206.128357 57.1293676 206.522126 56.9981215 206.914903 56.8909205 207.22734 56.7656857 207.455468 56.6244208L207.455468 57.579211 207.455468 57.579211zM210 58L210.902 58 210.902 50.3174443 210 50.3174443 210 58zM210 48.2644605L210.902 48.2644605 210.902 47 210 47 210 48.2644605zM214.058915 52.0202538C214.058915 51.4223817 214.038243 50.8111781 214 50.1876682L214.910594 50.1876682 214.910594 51.5782592 214.940568 51.5782592C215.02739 51.394693 215.132817 51.2101013 215.253747 51.0255096 215.370543 50.8398923 215.518346 50.6737598 215.698191 50.5240354 215.887339 50.3599539 216.121964 50.2297141 216.398966 50.1353673 216.681137 50.0451224 217.013953 50 217.397416 50 218.336951 50.0102551 219.008786 50.2973978 219.417054 50.861428 219.805685 51.4100756 220 52.1228048 220 53.0006409L220 58 219.0677 58 219.0677 53.2436867C219.0677 52.4981413 218.9323 51.9074478 218.663566 51.4675042 218.371059 51.0480708 217.900775 50.8337393 217.252713 50.8234842 216.41447 50.8429689 215.823256 51.1475452 215.482171 51.7361877 215.30646 52.0171773 215.183463 52.3197026 215.109044 52.6447891 215.031525 52.9832073 214.991214 53.3277785 214.991214 53.6785028L214.991214 58 214.058915 58 214.058915 52.0202538M221.090654 56.7125861C221.696093 57.0251722 222.384632 57.1864746 223.162746 57.1954915 223.655946 57.1954915 224.071444 57.0702567 224.412476 56.8217909 224.748111 56.5933626 224.920786 56.2647464 224.931578 55.8339386 224.920786 55.3800877 224.726527 55.0234189 224.35204 54.7649343 223.974315 54.5164684 223.531837 54.2920476 223.023527 54.0926738 222.785021 53.9844709 222.555148 53.8692549 222.338226 53.7480276 222.119145 53.6268003 221.910857 53.4915466 221.712281 53.3452724 221.53529 53.1839699 221.387438 52.9986224 221.269804 52.7892298 221.158645 52.589856 221.103605 52.3554164 221.103605 52.0859111 221.114397 51.3244834 221.382042 50.7854728 221.910857 50.4688791 222.422404 50.156293 223.017052 50 223.693719 50 223.921433 50 224.218217 50.0200376 224.58515 50.0591108 224.945608 50.1162179 225.301748 50.2113964 225.657889 50.3416406L225.567235 51.1621791C224.992014 50.9337508 224.401684 50.8145272 223.795165 50.8045085 223.286855 50.8045085 222.88215 50.8916719 222.581049 51.0680025 222.424563 51.1601753 222.302612 51.286412 222.216275 51.4477145 222.123462 51.6050094 222.077056 51.814402 222.077056 52.0768942 222.077056 52.2341891 222.136413 52.3824671 222.254047 52.5247339 222.366285 52.65598 222.515217 52.7752035 222.703 52.8834064 222.892942 52.9845961 223.105547 53.0907952 223.344054 53.1979962 223.584718 53.3001879 223.817829 53.4093926 224.045543 53.5266124 224.566803 53.736005 225.017915 54.0175329 225.405353 54.3681904 225.791712 54.7208516 225.989208 55.2057608 226 55.8259236 226 56.2256731 225.915821 56.5603006 225.748543 56.8278021 225.571552 57.1053225 225.348155 57.3307451 225.078351 57.5010645 224.494496 57.8336882 223.877185 58 223.222102 58 222.456939 58 221.71444 57.8787727 221 57.6383219L221.090654 56.7125861M232.935472 51.1931252C232.452434 50.9436809 231.96663 50.8144507 231.475295 50.8044329 230.657633 50.8144507 230.032633 51.1069718 229.597529 51.6839996 229.141224 52.2750524 228.912611 53.0474281 228.912611 54.0001251 228.912611 54.8887079 229.138459 55.6340354 229.584624 56.2341043 230.020649 56.8642267 230.619838 57.1857995 231.384956 57.1948155 231.910398 57.1948155 232.422013 57.0796103 232.922566 56.8512035L233 57.7307702C232.448746 57.9191057 231.867072 58.0092663 231.254978 57.9992484 230.162611 57.9742038 229.346792 57.5684811 228.813975 56.7840839 228.270096 56.0157153 228 55.0860594 228 54.0001251 228.009218 52.7909713 228.318953 51.8282565 228.931047 51.1119807 229.539454 50.3806781 230.347898 50.0100178 231.360066 50 231.777655 50 232.123341 50.0340607 232.402655 50.102182 232.544617 50.1312338 232.669063 50.1622891 232.77323 50.195348 232.871866 50.2354193 232.949299 50.2684782 233 50.29753L232.935472 51.1931252M234 47L234.941488 47 234.941488 51.7782139 234.971758 51.7782139C235.183645 51.3591757 235.495735 51.0127576 235.908027 50.7379784 236.321364 50.4857704 236.806721 50.3542689 237.36723 50.3444553 238.395352 50.3542689 239.095728 50.6486752 239.4694 51.2266928 239.834723 51.8125613 240.009034 52.578999 239.99964 53.5250245L239.99964 58 239.057108 58 239.057108 53.5348381C239.057108 53.205103 239.037276 52.8900883 238.998656 52.5947007 238.953774 52.313052 238.868184 52.063788 238.739799 51.8488714 238.498686 51.3807655 237.993497 51.1422964 237.225276 51.1324828 236.39756 51.1511286 235.805737 51.4592738 235.450852 52.0569185 235.10223 52.6545633 234.931051 53.3002944 234.941488 53.9921492L234.941488 58 234 58 234 47M246.971035 53.9695701L246.695382 53.9695701C246.277694 53.9695701 245.861058 53.9805904 245.44337 54.0006273 245.005691 54.0376957 244.609045 54.1238545 244.25238 54.2571001 243.894662 54.3743162 243.608488 54.5566523 243.394909 54.807114 243.160288 55.0605813 243.045608 55.3972019 243.045608 55.8179775 243.045608 56.305877 243.207633 56.6555215 243.536944 56.8649075 243.8389 57.0863157 244.214504 57.195517 244.660599 57.195517 245.221374 57.195517 245.663261 57.0863157 245.986259 56.8649075 246.305049 56.6555215 246.534409 56.4070635 246.678548 56.1175297 246.829 55.8049535 246.913169 55.4993902 246.933159 55.2018417 246.95841 54.8892655 246.971035 54.6327927 246.971035 54.4324233L246.971035 53.9695701zM247.05836 56.5954107L247.027849 56.5954107C246.805854 57.0412326 246.462865 57.3838642 246.003093 57.6203 245.546477 57.862747 245.065662 57.9899815 244.559596 58 244.019863 57.9899815 243.584289 57.9038227 243.25077 57.7435272 242.903573 57.5932502 242.638441 57.4028993 242.455374 57.1744782 242.133428 56.6795658 241.980872 56.2347458 242.001914 55.8460292 242.001914 55.2078528 242.157626 54.7049257 242.470103 54.3352442 242.778372 53.9655627 243.168705 53.7010751 243.645312 53.5387759 244.121918 53.374473 244.640609 53.2642699 245.19928 53.2121738 245.749534 53.1821184 246.277694 53.1670907 246.783759 53.1670907L246.971035 53.1670907 246.971035 52.7773723C247.001546 51.4619474 246.409208 50.8047358 245.197176 50.8047358 244.393363 50.7947174 243.631634 51.0051052 242.91199 51.437903L242.91199 50.522215C243.631634 50.1936092 244.391258 50.0202897 245.192967 50.0002528 247.032058 49.9822196 247.94003 50.9289648 247.92004 52.844496L247.92004 56.2157107C247.90531 56.7947782 247.932665 57.3287626 248 57.8156602L247.05836 57.8156602 247.05836 56.5954107 247.05836 56.5954107zM251.388954 51.4139143L250 51.4139143 250 50.638967 251.388954 50.638967 251.388954 50.102688C251.388954 49.7084505 251.404801 49.3219431 251.442088 48.9470309 251.457935 48.5798489 251.526917 48.2532502 251.645304 47.9662684 251.758098 47.665759 251.942671 47.4280569 252.197157 47.2541286 252.43766 47.0850316 252.774179 47 253.203915 47 253.347471 47 253.497553 47.0048313 253.650431 47.014494 253.805174 47.0425158 253.919832 47.0850316 254 47.1410752L253.946866 47.9372804C253.757632 47.8300246 253.533908 47.7749473 253.272897 47.7749473 252.991377 47.7749473 252.777907 47.8435524 252.634351 47.9797962 252.479608 48.1353654 252.376136 48.3228215 252.323002 48.544097 252.269867 48.7644062 252.244698 49.0001757 252.244698 49.2494729 252.235376 49.5084329 252.229783 49.7577301 252.229783 49.9973647L252.229783 50.638967 253.780937 50.638967 253.780937 51.4139143 252.229783 51.4139143 252.229783 58 251.388954 58 251.388954 51.4139143M258.80633 50.9782325L257.221068 50.9782325 257.221068 55.932591C257.221068 56.2856856 257.293812 56.581603 257.44119 56.8203431 257.575342 57.0691143 257.811526 57.194503 258.15163 57.194503 258.463392 57.194503 258.728862 57.1343164 258.947095 57.0109339L259 57.7883439C258.898914 57.8274651 258.756259 57.8705989 258.573925 57.9197512 258.382145 57.972916 258.173359 58 257.946623 58 257.574398 58 257.278696 57.9297823 257.061408 57.7863376 256.850732 57.6448992 256.693906 57.4593239 256.587152 57.2296118 256.494568 56.9908717 256.43316 56.7230414 256.407652 56.4251179 256.380255 56.1231819 256.367029 55.7961681 256.367029 55.4450797L256.367029 50.9782325 255 50.9782325 255 50.1737386 256.367029 50.1737386 256.367029 48.32902 257.221068 48 257.221068 50.1737386 258.80633 50.1737386 258.80633 50.9782325"/>
    <text fill="#5F97C4" font-family="LucidaGrande, Lucida Grande" font-size="11">
      <tspan x="102" y="76">German Resea</tspan> <tspan x="178.125" y="76" letter-spacing="-.199">r</tspan> <tspan x="182.426" y="76">ch Foundation</tspan>
    </text>
    <text fill="#5F97C4" font-family="LucidaGrande, Lucida Grande" font-size="12.287">
      <tspan x="5" y="15">Funded by</tspan>
    </text>
  </g>
</svg>
