<svg xmlns="http://www.w3.org/2000/svg" xmlns:xlink="http://www.w3.org/1999/xlink" width="263" height="82" viewBox="0 0 263 82">
  <defs>
    <polygon id="artboard-a" points=".06 .74 28.893 .74 28.893 29.087 .06 29.087"/>
  </defs>
  <g fill="none" fill-rule="evenodd">
    <rect width="263" height="82" fill="#FFF"/>
    <g transform="translate(4 28)">
      <mask id="artboard-b" fill="#fff">
        <use xlink:href="#artboard-a"/>
      </mask>
      <path fill="#005093" d="M0,29.087 L15.048,29.087 C19.027,29.087 22.484,28.233 24.936,26.071 C27.387,23.911 28.889,20.42 28.893,14.997 C28.891,9.172 27.488,5.635 25.154,3.541 C22.82,1.444 19.478,0.74 15.49,0.741 L15.49,0.74 L0,0.74 L0,6.862 L13.12,6.862 C15.108,6.851 16.467,7.556 17.235,8.92 C18.005,10.274 18.236,12.2 18.239,14.707 C18.236,17.129 18.025,19.034 17.272,20.388 C16.52,21.751 15.17,22.48 13.16,22.468 L10.171,22.468 L10.171,12.434 L0,12.434 L0,29.087" mask="url(#artboard-b)"/>
    </g>
    <polyline fill="#005093" points="35.102 57.087 45.271 57.087 45.271 46.804 57.944 46.804 57.944 40.434 45.271 40.434 45.271 34.862 57.944 34.862 57.944 28.74 35.102 28.74 35.102 57.087"/>
    <path fill="#005093" d="M64.948 31.818C61.942 34.195 60.044 37.729 60.04 42.5 60.044 47.591 61.872 51.335 64.834 53.835 67.799 56.333 71.926 57.585 76.534 57.585 80.848 57.583 84.258 57.149 87.846 56.085L87.846 43.004 79.204 43.004 79.204 50.623 79.012 50.697C78.286 50.974 77.379 50.962 76.614 50.966 74.385 50.972 72.797 50.041 71.823 48.596 70.846 47.154 70.454 45.232 70.452 43.204 70.45 40.507 71.366 38.395 72.989 36.983 74.61 35.57 76.905 34.862 79.627 34.862 82.411 34.862 84.604 35.488 86.165 36.31L86.165 29.257C83.594 28.629 81.637 28.245 76.534 28.243L76.532 28.243C72.086 28.243 67.954 29.444 64.948 31.818M103.352 38.245L104.18 38.245C107.26 38.313 108.842 36.846 108.922 33.846 108.899 32.269 108.502 31.157 107.733 30.508 106.95 29.89 105.977 29.586 104.817 29.595L103.352 29.595 103.352 38.245zM102.362 28.706L104.862 28.706C106.657 28.725 107.954 29.208 108.754 30.151 109.538 31.099 109.922 32.35 109.913 33.902 109.895 35.765 109.348 37.106 108.274 37.922 107.215 38.731 105.833 39.134 104.127 39.134L102.362 39.134 102.362 28.706 102.362 28.706zM116.819 34.794C116.819 34.092 116.676 33.481 116.393 32.958 116.096 32.428 115.606 32.155 114.926 32.135 114.26 32.155 113.735 32.434 113.346 32.971 112.95 33.515 112.752 34.122 112.752 34.794L116.819 34.794zM117.26 38.897C116.569 39.168 115.854 39.307 115.12 39.317 113.913 39.293 113.047 38.909 112.524 38.164 112.006 37.434 111.75 36.488 111.76 35.325 111.77 34.137 112.059 33.176 112.629 32.442 113.18 31.712 113.928 31.342 114.87 31.333 115.901 31.352 116.655 31.727 117.131 32.457 117.583 33.172 117.809 34.057 117.809 35.113L117.809 35.594 112.752 35.594C112.752 36.424 112.959 37.107 113.375 37.643 113.78 38.215 114.385 38.504 115.186 38.514 115.545 38.514 115.922 38.449 116.319 38.317 116.715 38.21 117.03 38.086 117.26 37.944L117.26 38.897 117.26 38.897zM125.538 37.34C125.528 37.919 125.547 38.516 125.6 39.134L124.717 39.134 124.717 37.778 124.688 37.778C124.622 37.943 124.53 38.111 124.413 38.281 124.299 38.461 124.151 38.631 123.967 38.792 123.784 38.942 123.557 39.061 123.284 39.149 123.014 39.26 122.688 39.317 122.301 39.317 121.407 39.307 120.762 39.028 120.368 38.477 119.971 37.938 119.778 37.239 119.788 36.383L119.788 31.515 120.692 31.515 120.692 36.147C120.692 36.878 120.831 37.448 121.11 37.857 121.383 38.295 121.829 38.514 122.448 38.514 122.862 38.514 123.213 38.424 123.5 38.245 123.793 38.074 124.016 37.855 124.167 37.586 124.34 37.309 124.461 37.01 124.528 36.688 124.598 36.372 124.633 36.053 124.633 35.731L124.633 31.515 125.538 31.515 125.538 37.34M131.274 32.317L129.596 32.317 129.596 37.258C129.596 37.608 129.672 37.903 129.829 38.142 129.971 38.391 130.221 38.514 130.581 38.514 130.911 38.514 131.192 38.454 131.422 38.333L131.479 39.107C131.372 39.145 131.221 39.189 131.028 39.237 130.825 39.29 130.604 39.317 130.364 39.317 129.969 39.317 129.657 39.247 129.426 39.105 129.204 38.963 129.038 38.78 128.924 38.55 128.827 38.312 128.762 38.045 128.735 37.748 128.706 37.446 128.692 37.12 128.692 36.77L128.692 32.317 127.245 32.317 127.245 31.515 128.692 31.515 128.692 29.676 129.596 29.348 129.596 31.515 131.274 31.515 131.274 32.317M132.512 38.032C133.073 38.344 133.711 38.504 134.432 38.514 134.889 38.514 135.274 38.391 135.59 38.142 135.901 37.913 136.061 37.585 136.071 37.156 136.061 36.703 135.881 36.347 135.534 36.088 135.184 35.84 134.774 35.617 134.303 35.417 134.083 35.309 133.87 35.196 133.668 35.073 133.465 34.952 133.272 34.818 133.088 34.672 132.924 34.51 132.788 34.326 132.678 34.116 132.575 33.917 132.524 33.683 132.524 33.415 132.534 32.655 132.782 32.118 133.272 31.8 133.747 31.489 134.297 31.333 134.924 31.333 135.135 31.333 135.411 31.352 135.75 31.391 136.084 31.449 136.415 31.544 136.745 31.673L136.661 32.493C136.127 32.264 135.581 32.145 135.018 32.135 134.547 32.135 134.172 32.223 133.893 32.398 133.749 32.491 133.635 32.618 133.555 32.778 133.469 32.934 133.426 33.143 133.426 33.407 133.426 33.562 133.481 33.711 133.59 33.852 133.694 33.983 133.833 34.102 134.006 34.21 134.182 34.312 134.379 34.417 134.6 34.524 134.823 34.627 135.04 34.736 135.25 34.852 135.733 35.063 136.151 35.342 136.51 35.693 136.868 36.044 137.051 36.528 137.061 37.147 137.061 37.546 136.983 37.879 136.829 38.148 136.665 38.425 136.458 38.649 136.208 38.82 135.667 39.151 135.094 39.317 134.487 39.317 133.778 39.317 133.09 39.196 132.428 38.956L132.512 38.032M143.694 32.523C143.17 32.274 142.643 32.145 142.11 32.135 141.223 32.145 140.545 32.438 140.073 33.012 139.579 33.603 139.331 34.374 139.331 35.325 139.331 36.212 139.575 36.957 140.059 37.556 140.532 38.186 141.182 38.504 142.012 38.514 142.583 38.514 143.137 38.4 143.68 38.17L143.764 39.049C143.167 39.237 142.536 39.327 141.872 39.317 140.686 39.293 139.801 38.889 139.223 38.106 138.633 37.336 138.34 36.41 138.34 35.325 138.35 34.118 138.686 33.157 139.35 32.442 140.01 31.712 140.887 31.342 141.985 31.333 142.438 31.333 142.813 31.367 143.116 31.434 143.27 31.463 143.405 31.495 143.518 31.528 143.625 31.567 143.709 31.6 143.764 31.629L143.694 32.523M145.528 27.924L146.432 27.924 146.432 32.794 146.459 32.794C146.663 32.368 146.961 32.014 147.358 31.733 147.752 31.475 148.219 31.342 148.756 31.333 149.741 31.342 150.411 31.642 150.77 32.231 151.118 32.829 151.288 33.61 151.278 34.573L151.278 39.134 150.374 39.134 150.374 34.583C150.374 34.247 150.356 33.927 150.317 33.626 150.276 33.338 150.192 33.085 150.069 32.866 149.838 32.388 149.354 32.145 148.62 32.135 147.827 32.155 147.26 32.469 146.92 33.078 146.584 33.686 146.422 34.344 146.432 35.05L146.432 39.134 145.528 39.134 145.528 27.924M158.342 34.794C158.342 34.092 158.202 33.481 157.918 32.958 157.62 32.428 157.131 32.155 156.452 32.135 155.786 32.155 155.258 32.434 154.872 32.971 154.475 33.515 154.276 34.122 154.276 34.794L158.342 34.794zM158.786 38.897C158.092 39.168 157.379 39.307 156.643 39.317 155.436 39.293 154.573 38.909 154.049 38.164 153.53 37.434 153.276 36.488 153.286 35.325 153.295 34.137 153.584 33.176 154.155 32.442 154.706 31.712 155.452 31.342 156.395 31.333 157.426 31.352 158.18 31.727 158.655 32.457 159.108 33.172 159.334 34.057 159.334 35.113L159.334 35.594 154.276 35.594C154.276 36.424 154.485 37.107 154.899 37.643 155.305 38.215 155.909 38.504 156.711 38.514 157.071 38.514 157.448 38.449 157.844 38.317 158.241 38.21 158.555 38.086 158.786 37.944L158.786 38.897 158.786 38.897z"/>
    <polyline fill="#005093" points="102.317 46.641 107.118 46.641 107.118 47.531 103.309 47.531 103.309 51.261 106.942 51.261 106.942 52.149 103.309 52.149 103.309 57.069 102.317 57.069 102.317 46.641"/>
    <path fill="#005093" d="M109.403 53.261C109.403 54.167 109.616 54.917 110.04 55.507 110.446 56.126 111.051 56.441 111.856 56.45 112.659 56.441 113.272 56.126 113.698 55.507 114.104 54.917 114.307 54.167 114.307 53.261 114.307 52.349 114.104 51.589 113.698 50.985 113.272 50.385 112.659 50.081 111.856 50.071 111.051 50.081 110.446 50.385 110.04 50.985 109.616 51.589 109.403 52.349 109.403 53.261zM108.411 53.261C108.411 52.175 108.692 51.249 109.252 50.48 109.807 49.692 110.674 49.288 111.852 49.268 113.047 49.288 113.926 49.692 114.487 50.48 115.028 51.249 115.299 52.175 115.299 53.261 115.299 54.325 115.028 55.247 114.487 56.026 113.926 56.819 113.047 57.228 111.852 57.253 110.674 57.228 109.807 56.819 109.252 56.026 108.692 55.247 108.411 54.325 108.411 53.261L108.411 53.261zM117.293 51.151C117.293 50.446 117.274 49.879 117.237 49.451L118.141 49.451 118.141 50.91 118.168 50.91C118.342 50.462 118.588 50.081 118.905 49.764 119.215 49.444 119.602 49.278 120.063 49.268 120.303 49.278 120.516 49.307 120.7 49.355L120.7 50.334C120.497 50.275 120.276 50.246 120.036 50.246 119.676 50.255 119.381 50.345 119.151 50.516 118.92 50.696 118.731 50.94 118.586 51.247 118.448 51.548 118.352 51.872 118.295 52.218 118.229 52.589 118.196 52.948 118.196 53.3L118.196 57.069 117.293 57.069 117.293 51.151M121.704 55.968C122.264 56.28 122.903 56.441 123.624 56.45 124.081 56.45 124.465 56.325 124.782 56.077 125.092 55.849 125.252 55.521 125.262 55.091 125.252 54.638 125.073 54.282 124.725 54.024 124.375 53.776 123.965 53.552 123.495 53.353 123.274 53.245 123.061 53.13 122.86 53.009 122.657 52.888 122.463 52.753 122.28 52.607 122.116 52.446 121.979 52.261 121.87 52.052 121.766 51.853 121.715 51.619 121.715 51.35 121.725 50.59 121.973 50.052 122.463 49.736 122.938 49.424 123.489 49.268 124.116 49.268 124.327 49.268 124.602 49.288 124.942 49.327 125.276 49.384 125.606 49.479 125.936 49.609L125.852 50.428C125.319 50.2 124.772 50.081 124.209 50.071 123.739 50.071 123.364 50.158 123.084 50.334 122.94 50.426 122.827 50.552 122.747 50.713 122.661 50.87 122.618 51.079 122.618 51.341 122.618 51.498 122.672 51.646 122.782 51.788 122.885 51.919 123.024 52.038 123.198 52.146 123.374 52.247 123.571 52.353 123.792 52.46 124.014 52.562 124.231 52.671 124.442 52.788 124.924 52.997 125.342 53.278 125.702 53.628 126.059 53.98 126.243 54.464 126.252 55.083 126.252 55.482 126.174 55.816 126.02 56.083 125.856 56.36 125.649 56.585 125.399 56.755 124.858 57.087 124.286 57.253 123.678 57.253 122.969 57.253 122.282 57.132 121.62 56.892L121.704 55.968M132.885 50.459C132.362 50.21 131.834 50.081 131.301 50.071 130.415 50.081 129.737 50.373 129.264 50.949 128.77 51.539 128.522 52.31 128.522 53.261 128.522 54.148 128.766 54.892 129.25 55.491 129.723 56.12 130.374 56.441 131.204 56.45 131.774 56.45 132.329 56.335 132.872 56.107L132.956 56.985C132.358 57.173 131.727 57.263 131.063 57.253 129.877 57.228 128.993 56.823 128.415 56.04 127.825 55.273 127.532 54.345 127.532 53.261 127.542 52.054 127.877 51.093 128.542 50.378 129.202 49.648 130.079 49.278 131.176 49.268 131.629 49.268 132.004 49.302 132.307 49.37 132.461 49.399 132.596 49.43 132.709 49.463 132.817 49.503 132.901 49.536 132.956 49.565L132.885 50.459M134.719 45.86L135.624 45.86 135.624 50.729 135.651 50.729C135.854 50.302 136.153 49.949 136.549 49.669 136.944 49.412 137.411 49.278 137.948 49.268 138.932 49.278 139.602 49.578 139.961 50.167 140.309 50.764 140.479 51.545 140.469 52.509L140.469 57.069 139.565 57.069 139.565 52.519C139.565 52.183 139.547 51.862 139.508 51.561 139.467 51.274 139.383 51.02 139.26 50.801 139.03 50.324 138.545 50.081 137.811 50.071 137.018 50.09 136.452 50.404 136.112 51.013 135.776 51.622 135.614 52.28 135.624 52.985L135.624 57.069 134.719 57.069 134.719 45.86M148.782 55.274C148.772 55.855 148.792 56.452 148.844 57.069L147.961 57.069 147.961 55.714 147.932 55.714C147.866 55.878 147.774 56.046 147.657 56.216 147.543 56.396 147.395 56.567 147.211 56.728 147.028 56.878 146.801 56.997 146.528 57.085 146.258 57.196 145.932 57.253 145.545 57.253 144.651 57.243 144.006 56.962 143.612 56.413 143.215 55.872 143.022 55.175 143.032 54.319L143.032 49.451 143.936 49.451 143.936 54.083C143.936 54.814 144.075 55.384 144.354 55.792 144.627 56.232 145.073 56.45 145.692 56.45 146.106 56.45 146.458 56.36 146.745 56.181 147.038 56.009 147.26 55.79 147.411 55.523 147.584 55.245 147.706 54.944 147.772 54.624 147.842 54.308 147.877 53.987 147.877 53.667L147.877 49.451 148.782 49.451 148.782 55.274M151.344 51.238C151.344 50.655 151.327 50.059 151.288 49.451L152.17 49.451 152.17 50.807 152.198 50.807C152.282 50.628 152.383 50.448 152.5 50.268 152.614 50.087 152.758 49.925 152.932 49.779 153.116 49.619 153.34 49.492 153.61 49.4 153.881 49.312 154.204 49.268 154.575 49.268 155.483 49.278 156.135 49.558 156.53 50.108 156.907 50.643 157.094 51.338 157.094 52.194L157.094 57.069 156.19 57.069 156.19 52.431C156.19 51.704 156.061 51.128 155.801 50.699 155.518 50.29 155.063 50.081 154.436 50.071 153.624 50.09 153.053 50.387 152.723 50.961 152.553 51.235 152.432 51.53 152.362 51.847 152.286 52.177 152.249 52.513 152.249 52.855L152.249 57.069 151.344 57.069 151.344 51.238M160.209 53.261C160.2 54.04 160.362 54.724 160.698 55.31 161.03 55.929 161.577 56.249 162.342 56.269 163.165 56.249 163.749 55.919 164.094 55.28 164.424 54.661 164.59 53.987 164.59 53.261 164.59 52.31 164.436 51.544 164.129 50.963 163.807 50.378 163.231 50.081 162.399 50.071 161.965 50.071 161.61 50.166 161.336 50.356 161.057 50.532 160.831 50.78 160.657 51.102 160.5 51.4 160.385 51.739 160.309 52.118 160.243 52.499 160.209 52.88 160.209 53.261zM165.493 56.442C165.493 57.528 165.239 58.435 164.729 59.165 164.198 59.899 163.299 60.276 162.038 60.296 161.553 60.286 161.108 60.233 160.702 60.136 160.307 60.034 160.006 59.954 159.805 59.896L159.883 58.96C160.491 59.296 161.215 59.474 162.055 59.493 162.645 59.483 163.108 59.374 163.444 59.165 163.792 58.966 164.049 58.687 164.215 58.327 164.389 57.968 164.5 57.556 164.547 57.089 164.586 56.622 164.604 56.12 164.604 55.579L164.575 55.579C164.053 56.593 163.305 57.089 162.334 57.069 161.176 57.04 160.366 56.612 159.905 55.786 159.659 55.405 159.489 54.997 159.395 54.56 159.278 54.122 159.219 53.689 159.219 53.261 159.209 52.073 159.446 51.118 159.932 50.392 160.413 49.653 161.188 49.278 162.258 49.268 162.743 49.268 163.168 49.324 163.536 49.435 163.889 49.571 164.231 49.86 164.561 50.304L164.59 50.304 164.59 49.449 165.493 49.451 165.493 56.442 165.493 56.442zM167.403 55.968C167.963 56.28 168.602 56.441 169.323 56.45 169.78 56.45 170.165 56.325 170.481 56.077 170.792 55.849 170.952 55.521 170.961 55.091 170.952 54.638 170.772 54.282 170.424 54.024 170.075 53.776 169.665 53.552 169.194 53.353 168.973 53.245 168.76 53.13 168.559 53.009 168.356 52.888 168.163 52.753 167.979 52.607 167.815 52.446 167.678 52.261 167.569 52.052 167.465 51.853 167.415 51.619 167.415 51.35 167.424 50.59 167.672 50.052 168.163 49.736 168.637 49.424 169.188 49.268 169.815 49.268 170.026 49.268 170.301 49.288 170.641 49.327 170.975 49.384 171.305 49.479 171.635 49.609L171.551 50.428C171.018 50.2 170.471 50.081 169.909 50.071 169.438 50.071 169.063 50.158 168.784 50.334 168.639 50.426 168.526 50.552 168.446 50.713 168.36 50.87 168.317 51.079 168.317 51.341 168.317 51.498 168.372 51.646 168.481 51.788 168.584 51.919 168.723 52.038 168.897 52.146 169.073 52.247 169.27 52.353 169.491 52.46 169.713 52.562 169.93 52.671 170.141 52.788 170.624 52.997 171.042 53.278 171.401 53.628 171.758 53.98 171.942 54.464 171.952 55.083 171.952 55.482 171.874 55.816 171.719 56.083 171.555 56.36 171.348 56.585 171.098 56.755 170.557 57.087 169.985 57.253 169.377 57.253 168.668 57.253 167.981 57.132 167.319 56.892L167.403 55.968M174.338 53.261C174.329 54.04 174.491 54.724 174.827 55.31 175.159 55.929 175.706 56.249 176.471 56.269 177.293 56.249 177.877 55.919 178.223 55.28 178.553 54.661 178.719 53.987 178.719 53.261 178.719 52.31 178.565 51.544 178.258 50.963 177.936 50.378 177.36 50.081 176.528 50.071 176.094 50.071 175.739 50.166 175.465 50.356 175.186 50.532 174.959 50.78 174.786 51.102 174.629 51.4 174.514 51.739 174.438 52.118 174.372 52.499 174.338 52.88 174.338 53.261zM179.622 56.442C179.622 57.528 179.368 58.435 178.858 59.165 178.327 59.899 177.428 60.276 176.167 60.296 175.682 60.286 175.237 60.233 174.831 60.136 174.436 60.034 174.135 59.954 173.934 59.896L174.012 58.96C174.62 59.296 175.344 59.474 176.184 59.493 176.774 59.483 177.237 59.374 177.573 59.165 177.92 58.966 178.178 58.687 178.344 58.327 178.518 57.968 178.629 57.556 178.676 57.089 178.715 56.622 178.733 56.12 178.733 55.579L178.704 55.579C178.182 56.593 177.434 57.089 176.463 57.069 175.305 57.04 174.495 56.612 174.034 55.786 173.788 55.405 173.618 54.997 173.524 54.56 173.407 54.122 173.348 53.689 173.348 53.261 173.338 52.073 173.575 51.118 174.061 50.392 174.542 49.653 175.317 49.278 176.387 49.268 176.872 49.268 177.297 49.324 177.665 49.435 178.018 49.571 178.36 49.86 178.69 50.304L178.719 50.304 178.719 49.449 179.622 49.451 179.622 56.442 179.622 56.442zM186.6 52.728C186.6 52.028 186.459 51.417 186.176 50.893 185.877 50.364 185.389 50.09 184.709 50.071 184.043 50.09 183.516 50.369 183.129 50.908 182.733 51.451 182.534 52.058 182.534 52.728L186.6 52.728zM187.043 56.833C186.35 57.103 185.637 57.243 184.901 57.253 183.694 57.228 182.831 56.843 182.307 56.099 181.788 55.37 181.534 54.423 181.543 53.261 181.553 52.073 181.842 51.113 182.413 50.378 182.963 49.648 183.709 49.278 184.653 49.268 185.684 49.288 186.438 49.663 186.913 50.392 187.366 51.107 187.592 51.993 187.592 53.048L187.592 53.53 182.534 53.53C182.534 54.358 182.743 55.042 183.157 55.579 183.563 56.149 184.167 56.441 184.969 56.45 185.329 56.45 185.706 56.384 186.102 56.253 186.499 56.146 186.813 56.021 187.043 55.88L187.043 56.833 187.043 56.833zM198.627 57.069L198.627 51.999C198.627 51.718 198.608 51.457 198.569 51.217 198.508 50.989 198.413 50.789 198.28 50.619 198.163 50.443 197.999 50.304 197.786 50.202 197.575 50.115 197.311 50.071 196.997 50.071 196.467 50.071 195.995 50.29 195.583 50.728 195.159 51.186 194.942 51.896 194.932 52.855L194.932 57.069 194.03 57.069 194.03 51.999C194.03 51.718 194.006 51.457 193.963 51.217 193.905 50.989 193.807 50.789 193.676 50.619 193.557 50.443 193.393 50.304 193.182 50.202 192.969 50.115 192.708 50.071 192.393 50.071 191.862 50.071 191.389 50.29 190.977 50.728 190.553 51.186 190.338 51.896 190.329 52.855L190.329 57.069 189.422 57.069 189.422 51.239C189.422 50.655 189.405 50.059 189.366 49.451L190.276 49.451 190.276 50.736 190.303 50.75C190.372 50.609 190.467 50.454 190.588 50.283 190.684 50.113 190.823 49.955 191.002 49.808 191.182 49.658 191.405 49.526 191.67 49.415 191.938 49.317 192.27 49.268 192.667 49.268 192.846 49.268 193.042 49.288 193.249 49.327 193.448 49.366 193.647 49.446 193.846 49.567 194.043 49.678 194.219 49.838 194.37 50.046 194.514 50.264 194.62 50.541 194.682 50.876L194.711 50.876C194.899 50.42 195.204 50.04 195.62 49.734 196.028 49.433 196.534 49.278 197.139 49.268 197.911 49.278 198.504 49.516 198.92 49.984 199.329 50.446 199.532 51.059 199.532 51.823L199.532 57.069 198.627 57.069M206.524 52.728C206.524 52.028 206.381 51.417 206.098 50.893 205.801 50.364 205.311 50.09 204.631 50.071 203.965 50.09 203.44 50.369 203.051 50.908 202.655 51.451 202.458 52.058 202.458 52.728L206.524 52.728zM206.965 56.833C206.274 57.103 205.559 57.243 204.825 57.253 203.618 57.228 202.752 56.843 202.229 56.099 201.711 55.37 201.456 54.423 201.465 53.261 201.475 52.073 201.764 51.113 202.334 50.378 202.885 49.648 203.633 49.278 204.575 49.268 205.606 49.288 206.36 49.663 206.836 50.392 207.288 51.107 207.514 51.993 207.514 53.048L207.514 53.53 202.458 53.53C202.458 54.358 202.665 55.042 203.081 55.579 203.485 56.149 204.09 56.441 204.891 56.45 205.25 56.45 205.627 56.384 206.024 56.253 206.42 56.146 206.735 56.021 206.965 55.88L206.965 56.833 206.965 56.833zM209.495 57.07L210.397 57.07 210.397 49.451 209.495 49.451 209.495 57.07zM209.495 47.415L210.397 47.415 210.397 46.161 209.495 46.161 209.495 47.415zM212.815 51.238C212.815 50.655 212.795 50.059 212.758 49.451L213.639 49.451 213.639 50.807 213.668 50.807C213.752 50.628 213.854 50.448 213.971 50.268 214.084 50.087 214.227 49.925 214.401 49.779 214.584 49.619 214.811 49.492 215.079 49.4 215.352 49.312 215.674 49.268 216.045 49.268 216.954 49.278 217.604 49.558 217.999 50.108 218.375 50.643 218.563 51.338 218.563 52.194L218.563 57.069 217.661 57.069 217.661 52.431C217.661 51.704 217.53 51.128 217.27 50.699 216.987 50.29 216.532 50.081 215.905 50.071 215.094 50.09 214.522 50.387 214.192 50.961 214.022 51.235 213.903 51.53 213.831 51.847 213.756 52.177 213.717 52.513 213.717 52.855L213.717 57.069 212.815 57.069 212.815 51.238M220.561 55.968C221.122 56.28 221.76 56.441 222.481 56.45 222.938 56.45 223.323 56.325 223.639 56.077 223.95 55.849 224.11 55.521 224.12 55.091 224.11 54.638 223.93 54.282 223.583 54.024 223.233 53.776 222.823 53.552 222.352 53.353 222.131 53.245 221.918 53.13 221.717 53.009 221.514 52.888 221.321 52.753 221.137 52.607 220.973 52.446 220.836 52.261 220.727 52.052 220.624 51.853 220.573 51.619 220.573 51.35 220.583 50.59 220.831 50.052 221.321 49.736 221.795 49.424 222.346 49.268 222.973 49.268 223.184 49.268 223.459 49.288 223.799 49.327 224.133 49.384 224.463 49.479 224.793 49.609L224.709 50.428C224.176 50.2 223.629 50.081 223.067 50.071 222.596 50.071 222.221 50.158 221.942 50.334 221.797 50.426 221.684 50.552 221.604 50.713 221.518 50.87 221.475 51.079 221.475 51.341 221.475 51.498 221.53 51.646 221.639 51.788 221.743 51.919 221.881 52.038 222.055 52.146 222.231 52.247 222.428 52.353 222.649 52.46 222.872 52.562 223.088 52.671 223.299 52.788 223.782 52.997 224.2 53.278 224.559 53.628 224.917 53.98 225.1 54.464 225.11 55.083 225.11 55.482 225.032 55.816 224.877 56.083 224.713 56.36 224.506 56.585 224.256 56.755 223.715 57.087 223.143 57.253 222.536 57.253 221.827 57.253 221.139 57.132 220.477 56.892L220.561 55.968M231.743 50.459C231.219 50.21 230.692 50.081 230.159 50.071 229.272 50.081 228.594 50.373 228.122 50.949 227.627 51.539 227.379 52.31 227.379 53.261 227.379 54.148 227.624 54.892 228.108 55.491 228.581 56.12 229.231 56.441 230.061 56.45 230.631 56.45 231.186 56.335 231.729 56.107L231.813 56.985C231.215 57.173 230.584 57.263 229.92 57.253 228.735 57.228 227.85 56.823 227.272 56.04 226.682 55.273 226.389 54.345 226.389 53.261 226.399 52.054 226.735 51.093 227.399 50.378 228.059 49.648 228.936 49.278 230.034 49.268 230.487 49.268 230.862 49.302 231.165 49.37 231.319 49.399 231.454 49.43 231.567 49.463 231.674 49.503 231.758 49.536 231.813 49.565L231.743 50.459M233.577 45.86L234.479 45.86 234.479 50.729 234.508 50.729C234.711 50.302 235.01 49.949 235.405 49.669 235.801 49.412 236.266 49.278 236.803 49.268 237.788 49.278 238.459 49.578 238.817 50.167 239.167 50.764 239.334 51.545 239.325 52.509L239.325 57.069 238.422 57.069 238.422 52.519C238.422 52.183 238.403 51.862 238.366 51.561 238.323 51.274 238.241 51.02 238.118 50.801 237.887 50.324 237.403 50.081 236.667 50.071 235.874 50.09 235.307 50.404 234.967 51.013 234.633 51.622 234.469 52.28 234.479 52.985L234.479 57.069 233.577 57.069 233.577 45.86M246.042 53.23L245.78 53.23C245.383 53.23 244.987 53.241 244.59 53.261 244.174 53.298 243.797 53.384 243.458 53.517 243.118 53.634 242.846 53.816 242.643 54.066 242.42 54.319 242.311 54.655 242.311 55.075 242.311 55.562 242.465 55.911 242.778 56.12 243.065 56.341 243.422 56.45 243.846 56.45 244.379 56.45 244.799 56.341 245.106 56.12 245.409 55.911 245.627 55.663 245.764 55.374 245.907 55.062 245.987 54.757 246.006 54.46 246.03 54.148 246.042 53.892 246.042 53.692L246.042 53.23zM246.125 55.851L246.096 55.851C245.885 56.296 245.559 56.638 245.122 56.874 244.688 57.116 244.231 57.243 243.75 57.253 243.237 57.243 242.823 57.157 242.506 56.997 242.176 56.847 241.924 56.657 241.75 56.429 241.444 55.935 241.299 55.491 241.319 55.103 241.319 54.466 241.467 53.964 241.764 53.595 242.057 53.226 242.428 52.962 242.881 52.8 243.334 52.636 243.827 52.526 244.358 52.474 244.881 52.444 245.383 52.429 245.864 52.429L246.042 52.429 246.042 52.04C246.071 50.727 245.508 50.071 244.356 50.071 243.592 50.061 242.868 50.271 242.184 50.703L242.184 49.789C242.868 49.461 243.59 49.288 244.352 49.268 246.1 49.25 246.963 50.195 246.944 52.107L246.944 55.472C246.93 56.05 246.956 56.583 247.02 57.069L246.125 57.069 246.125 55.851 246.125 55.851zM249.983 50.253L248.493 50.253 248.493 49.451 249.983 49.451 249.983 48.896C249.983 48.488 250 48.088 250.04 47.7 250.057 47.32 250.131 46.982 250.258 46.685 250.379 46.374 250.577 46.128 250.85 45.948 251.108 45.773 251.469 45.685 251.93 45.685 252.084 45.685 252.245 45.69 252.409 45.7 252.575 45.729 252.698 45.773 252.784 45.831L252.727 46.655C252.524 46.544 252.284 46.487 252.004 46.487 251.702 46.487 251.473 46.558 251.319 46.699 251.153 46.86 251.042 47.054 250.985 47.283 250.928 47.511 250.901 47.755 250.901 48.013 250.891 48.281 250.885 48.539 250.885 48.787L250.885 49.451 252.549 49.451 252.549 50.253 250.885 50.253 250.885 57.069 249.983 57.069 249.983 50.253M257.512 50.253L255.834 50.253 255.834 55.192C255.834 55.544 255.911 55.839 256.067 56.077 256.209 56.325 256.459 56.45 256.819 56.45 257.149 56.45 257.43 56.39 257.661 56.267L257.717 57.042C257.61 57.081 257.459 57.124 257.266 57.173 257.063 57.226 256.842 57.253 256.602 57.253 256.208 57.253 255.895 57.183 255.665 57.04 255.442 56.899 255.276 56.714 255.163 56.485 255.065 56.247 255 55.98 254.973 55.683 254.944 55.382 254.93 55.056 254.93 54.706L254.93 50.253 253.483 50.253 253.483 49.451 254.93 49.451 254.93 47.612 255.834 47.284 255.834 49.451 257.512 49.451 257.512 50.253"/>
    <text fill="#5F97C4" font-family="LucidaGrande, Lucida Grande" font-size="11">
      <tspan x="101.461" y="75.295">German Resea</tspan> <tspan x="177.585" y="75.295" letter-spacing="-.199">r</tspan> <tspan x="181.887" y="75.295">ch Foundation</tspan>
    </text>
    <text fill="#5F97C4" font-family="LucidaGrande, Lucida Grande" font-size="12.287">
      <tspan x="4.022" y="13.574">Funded by</tspan>
    </text>
  </g>
</svg>
