<?xml version="1.0" encoding="utf-8"?>
<!-- Generator: Adobe Illustrator 14.0.0, SVG Export Plug-In . SVG Version: 6.00 Build 43363)  -->
<!DOCTYPE svg PUBLIC "-//W3C//DTD SVG 1.1//EN" "http://www.w3.org/Graphics/SVG/1.1/DTD/svg11.dtd">
<svg version="1.1" id="Layer_1" xmlns="http://www.w3.org/2000/svg" xmlns:xlink="http://www.w3.org/1999/xlink" x="0px" y="0px"
	 width="176.871px" height="52.384px" viewBox="0 0 176.871 52.384" enable-background="new 0 0 176.871 52.384"
	 xml:space="preserve">
<path fill="#00ADEE" d="M31.105,20.473H21.31c-3.481,0-5.467,0.521-5.467,5.257v4.743c0,3.227,0.951,5.234,4.364,5.234h2.777
	c3.061,0,3.779-1.174,3.779-3.688v-4.649c0-1.616,1.321-2.94,2.939-2.94h5.962c1.615,0,2.939,1.324,2.939,2.94v4.329
	c0,3.996,3.111,3.686,5.791,3.686h7.115c2.321,0,4.22,1.899,4.22,4.219v8.562c0,2.32-1.899,4.22-4.22,4.22h-8.56
	c-2.321,0-4.219-1.899-4.219-4.22v-7.015c0-3.093-0.669-4.881-4.56-4.881h-2.304c-2.745,0-4.559,0.756-4.559,4.1v4.379
	c0,1.644-1.343,2.984-2.985,2.984h-6.053c-1.643,0-2.985-1.341-2.985-2.984v-4.083c0-3.842-2.004-4.845-5.742-4.845H3.931
	C1.77,35.819,0,34.05,0,31.886v-7.979c0-2.161,1.77-3.933,3.931-3.933h6.06c4.523,0,5.493-1.607,5.493-5.457V4.852
	c0-2.101,1.719-3.821,3.821-3.821h11.8c2.101,0,3.82,1.72,3.82,3.821v11.8C34.925,18.753,33.206,20.473,31.105,20.473"/>
<path fill="#fff" d="M173.472,46.661h-0.643v3.476h0.656v-1.89c0-0.68,0.18-0.832,0.277-0.928
	c0.277-0.276,0.637-0.258,0.637-0.258c0.555,0,0.799,0.312,0.799,0.887v2.188h0.656v-2.403c0-1.113-1.072-1.176-1.316-1.176
	c-0.346,0-0.832,0.18-1.053,0.615h-0.014V46.661z M169.298,48.066c0-0.567,0.326-1.032,0.873-1.032c0.639,0,0.902,0.45,0.887,1.032
	H169.298z M171.75,48.523v-0.325c0-0.963-0.49-1.619-1.529-1.641c-1.1,0-1.613,0.852-1.613,1.869c0,1.025,0.441,1.814,1.557,1.814
	c0.832,0,1.441-0.395,1.545-1.185h-0.693c-0.074,0.506-0.33,0.707-0.844,0.707c-0.672,0-0.922-0.631-0.873-1.24H171.75z
	 M166.91,47.18c0,0.049-0.092-0.151-0.105-0.166c-0.215-0.317-0.59-0.456-0.93-0.456c-1.051,0-1.613,0.788-1.613,1.793
	c0,0.977,0.424,1.725,1.484,1.725c0.428,0,0.934-0.174,1.141-0.588h0.023c-0.023,0.781-0.023,1.558-0.957,1.558
	c-0.465,0-0.783-0.181-0.812-0.645h-0.689c0.006,0.804,0.539,1.121,1.287,1.121c1.273,0,1.828-0.518,1.828-1.793v-2.444
	c0-0.209,0.02-0.416,0.041-0.623h-0.68L166.91,47.18z M164.955,48.315c0-0.547,0.207-1.281,0.977-1.281
	c0.713,0,0.979,0.609,0.979,1.281s-0.266,1.282-0.979,1.282C165.162,49.598,164.955,48.862,164.955,48.315 M160.843,46.661h-0.643
	v3.476h0.656v-1.89c0-0.68,0.18-0.832,0.277-0.928c0.277-0.276,0.637-0.258,0.637-0.258c0.557,0,0.797,0.312,0.797,0.887v2.188
	h0.656v-2.403c0-1.113-1.072-1.176-1.312-1.176c-0.348,0-0.832,0.18-1.055,0.615h-0.014V46.661z M158.195,45.851h0.783v-0.712
	h-0.783V45.851z M158.914,46.661h-0.656v3.477h0.656V46.661z M155.3,46.641v0.491l0.596-0.008v2.209
	c0,0.465,0.033,0.479,0.152,0.645c0.111,0.152,0.283,0.207,0.387,0.229c0.158,0.027,0.283,0.035,0.443,0.035
	c0.154,0,0.297-0.035,0.449-0.043v-0.504c-0.104,0.027-0.242,0.041-0.346,0.041c-0.234,0-0.43-0.117-0.43-0.367v-2.244l0.805,0.008
	v-0.491l-0.805,0.021v-0.948l-0.656,0.208v0.74L155.3,46.641z M152.646,46.641v0.491l0.598-0.008v2.209
	c0,0.465,0.033,0.479,0.15,0.645c0.109,0.152,0.283,0.207,0.389,0.229c0.158,0.027,0.283,0.035,0.441,0.035
	c0.152,0,0.299-0.035,0.449-0.043v-0.504c-0.104,0.027-0.242,0.041-0.346,0.041c-0.234,0-0.428-0.117-0.428-0.367v-2.244
	l0.803,0.008v-0.491l-0.803,0.021v-0.948l-0.656,0.208v0.74L152.646,46.641z M149.318,48.398c0-0.741,0.256-1.364,1.039-1.364
	c0.781,0,1.039,0.623,1.039,1.364s-0.258,1.365-1.039,1.365C149.574,49.764,149.318,49.14,149.318,48.398 M150.357,46.558
	c-1.145,0-1.732,0.762-1.732,1.841c0,1.081,0.588,1.843,1.732,1.843c1.143,0,1.73-0.762,1.73-1.843
	C152.087,47.319,151.5,46.558,150.357,46.558 M150.009,45.138h-0.629v0.705h0.629V45.138z M151.312,45.138h-0.631v0.705h0.631
	V45.138z M147.503,46.384c-0.043-0.962-0.977-1.35-1.822-1.35c-0.852,0-1.586,0.305-2.02,1.065c-0.256,0.451-0.43,1.019-0.43,1.538
	c0,0.706,0.193,1.544,0.746,2.03c0.547,0.482,1.121,0.573,1.828,0.573c0.568,0,1.145-0.119,1.717-0.291v-2.472h-1.826v0.595h1.135
	v1.414c-0.318,0.104-0.658,0.158-0.998,0.158c-1.432-0.027-1.82-0.726-1.877-2.008c-0.027-0.936,0.416-2.009,1.643-2.009
	c0.533,0,1.053,0.159,1.178,0.755H147.503z M137.152,50.137V47.88h2.375v2.257h0.691v-4.999h-0.691v2.146h-2.375v-2.146h-0.693
	v4.999H137.152z M132.728,49.618l-0.014-0.035h0.014c0.234,0.484,0.691,0.658,1.197,0.658c1.033,0,1.447-0.948,1.447-1.843
	c0-0.942-0.484-1.841-1.564-1.841c-0.441,0-0.881,0.159-1.08,0.574h-0.014v-1.994h-0.658v4.445c0,0.139-0.02,0.347-0.033,0.554
	h0.678L132.728,49.618z M134.681,48.398c0,0.651-0.242,1.365-0.982,1.365c-0.797,0-0.984-0.714-0.984-1.365
	c0-0.63,0.236-1.364,0.984-1.364C134.488,47.034,134.681,47.747,134.681,48.398 M126.117,46.661h-0.645v3.476h0.658V48.35
	c0-0.083-0.027-0.54,0.047-0.72c0.201-0.465,0.59-0.568,0.861-0.568c0.629,0,0.768,0.416,0.768,1.018v2.058h0.656V48.35
	c0-0.083-0.02-0.429,0.072-0.747c0.123-0.43,0.566-0.541,0.768-0.541c0.77,0,0.838,0.541,0.838,1.018v2.058h0.656v-2.451
	c0-0.624-0.49-1.128-1.293-1.128c-0.512,0-0.908,0.221-1.158,0.65c-0.18-0.43-0.564-0.65-1.225-0.65
	c-0.354,0-0.783,0.166-0.99,0.602h-0.014V46.661z M121.707,47.18c0,0.049-0.09-0.151-0.104-0.166
	c-0.217-0.317-0.59-0.456-0.93-0.456c-1.053,0-1.611,0.788-1.611,1.793c0,0.977,0.422,1.725,1.48,1.725
	c0.43,0,0.936-0.174,1.143-0.588h0.021c-0.021,0.781-0.021,1.558-0.957,1.558c-0.463,0-0.783-0.181-0.809-0.645h-0.693
	c0.008,0.804,0.539,1.121,1.289,1.121c1.273,0,1.828-0.518,1.828-1.793v-2.444c0-0.209,0.02-0.416,0.041-0.623h-0.678L121.707,47.18
	z M119.753,48.315c0-0.547,0.207-1.281,0.977-1.281c0.713,0,0.977,0.609,0.977,1.281s-0.264,1.282-0.977,1.282
	C119.96,49.598,119.753,48.862,119.753,48.315 M115.642,46.661H115v3.476h0.656v-1.89c0-0.68,0.18-0.832,0.277-0.928
	c0.277-0.276,0.637-0.258,0.637-0.258c0.555,0,0.799,0.312,0.799,0.887v2.188h0.656v-2.403c0-1.113-1.072-1.176-1.316-1.176
	c-0.346,0-0.832,0.18-1.053,0.615h-0.014V46.661z M113.06,48.448c0,0.082-0.008,0.491-0.133,0.816
	c-0.137,0.359-0.506,0.499-0.775,0.499c-0.629,0-0.77-0.442-0.77-1.046v-2.057h-0.656v2.326c0,0.7,0.414,1.254,1.143,1.254
	c0.484,0,0.928-0.181,1.191-0.617h0.016v0.513h0.641v-3.476h-0.656V48.448z M107.777,46.641v0.491l0.596-0.008v2.209
	c0,0.465,0.035,0.479,0.152,0.645c0.109,0.152,0.283,0.207,0.387,0.229c0.158,0.027,0.283,0.035,0.443,0.035
	c0.152,0,0.297-0.035,0.449-0.043v-0.504c-0.102,0.027-0.242,0.041-0.346,0.041c-0.236,0-0.428-0.117-0.428-0.367v-2.244
	l0.801,0.008v-0.491l-0.801,0.021v-0.948l-0.658,0.208v0.74L107.777,46.641z M106.23,45.851h0.781v-0.712h-0.781V45.851z
	 M106.949,46.661h-0.656v3.477h0.656V46.661z M102.765,48.066c0-0.567,0.326-1.032,0.873-1.032c0.639,0,0.9,0.45,0.887,1.032
	H102.765z M105.216,48.523v-0.325c0-0.963-0.49-1.619-1.529-1.641c-1.102,0-1.611,0.852-1.611,1.869
	c0,1.025,0.441,1.814,1.557,1.814c0.83,0,1.441-0.395,1.543-1.185h-0.691c-0.074,0.506-0.332,0.707-0.846,0.707
	c-0.672,0-0.922-0.631-0.873-1.24H105.216z M98.587,49.618l-0.012-0.035h0.012c0.236,0.484,0.693,0.658,1.199,0.658
	c1.031,0,1.447-0.948,1.447-1.843c0-0.942-0.484-1.841-1.566-1.841c-0.443,0-0.879,0.159-1.08,0.574h-0.012v-1.994h-0.658v4.445
	c0,0.139-0.021,0.347-0.035,0.554h0.678L98.587,49.618z M100.541,48.398c0,0.651-0.242,1.365-0.984,1.365
	c-0.795,0-0.98-0.714-0.98-1.365c0-0.63,0.234-1.364,0.98-1.364C100.347,47.034,100.541,47.747,100.541,48.398 M95.806,48.413
	c0-0.734,0.146-1.178,0.979-1.205c0.088,0,0.193,0,0.283,0.035V46.62c-0.076,0-0.146-0.008-0.229-0.008
	c-0.479,0-0.922,0.242-1.018,0.719h-0.016v-0.67H95.15v3.476h0.656V48.413z M92.652,47.991c-0.824,0-1.689,0.283-1.689,1.261
	c0,0.678,0.609,0.989,1.211,0.989c0.479,0,0.867-0.188,1.082-0.623h0.014c0.006,0.16,0.02,0.312,0.033,0.471
	c0.008,0.083,0.125,0.048,0.189,0.048h0.439c-0.02-0.29-0.025-0.581-0.025-0.733v-1.662c0-0.97-0.705-1.184-1.42-1.184
	c-0.686,0-1.281,0.27-1.316,1.031h0.693c0.008-0.36,0.318-0.555,0.65-0.555c0.699,0,0.734,0.354,0.734,0.957H92.652z M93.248,48.446
	c0.014,0.646-0.131,1.317-0.908,1.317c-0.387,0-0.684-0.215-0.684-0.646c0-0.504,0.533-0.65,0.934-0.672H93.248z M89.09,48.413
	c0-0.734,0.146-1.178,0.976-1.205c0.092,0,0.193,0,0.283,0.035V46.62c-0.074,0-0.145-0.008-0.227-0.008
	c-0.479,0-0.92,0.242-1.018,0.719H89.09v-0.67h-0.657v3.476h0.657V48.413z M84.892,48.066c0-0.567,0.325-1.032,0.873-1.032
	c0.637,0,0.9,0.45,0.887,1.032H84.892z M87.343,48.523v-0.325c0-0.963-0.491-1.619-1.53-1.641c-1.101,0-1.612,0.852-1.612,1.869
	c0,1.025,0.442,1.814,1.557,1.814c0.831,0,1.441-0.395,1.544-1.185h-0.691c-0.076,0.506-0.334,0.707-0.846,0.707
	c-0.672,0-0.922-0.631-0.873-1.24H87.343z M82.192,50.137l1.523-3.476h-0.72l-1.08,2.757l-1.107-2.757h-0.727l1.455,3.476H82.192z
	 M76.993,46.661h-0.644v3.476h0.657v-1.89c0-0.68,0.18-0.832,0.278-0.928c0.276-0.276,0.636-0.258,0.636-0.258
	c0.554,0,0.797,0.312,0.797,0.887v2.188h0.657v-2.403c0-1.113-1.073-1.176-1.315-1.176c-0.347,0-0.832,0.18-1.053,0.615h-0.013
	V46.661z M72.818,48.066c0-0.567,0.326-1.032,0.873-1.032c0.638,0,0.901,0.45,0.887,1.032H72.818z M75.27,48.523v-0.325
	c0-0.963-0.49-1.619-1.529-1.641c-1.102,0-1.614,0.852-1.614,1.869c0,1.025,0.444,1.814,1.557,1.814
	c0.832,0,1.441-0.395,1.544-1.185h-0.691c-0.077,0.506-0.333,0.707-0.846,0.707c-0.672,0-0.921-0.631-0.873-1.24H75.27z
	 M69.461,46.641v0.491l0.596-0.008v2.209c0,0.465,0.034,0.479,0.152,0.645c0.111,0.152,0.284,0.207,0.387,0.229
	c0.159,0.027,0.284,0.035,0.443,0.035c0.152,0,0.298-0.035,0.451-0.043v-0.504c-0.105,0.027-0.243,0.041-0.347,0.041
	c-0.235,0-0.429-0.117-0.429-0.367v-2.244l0.803,0.008v-0.491l-0.803,0.021v-0.948l-0.657,0.208v0.74L69.461,46.641z M67.457,47.991
	c-0.825,0-1.689,0.283-1.689,1.261c0,0.678,0.608,0.989,1.211,0.989c0.478,0,0.866-0.188,1.081-0.623h0.014
	c0.006,0.16,0.02,0.312,0.034,0.471c0.008,0.083,0.124,0.048,0.187,0.048h0.443c-0.021-0.29-0.028-0.581-0.028-0.733v-1.662
	c0-0.97-0.706-1.184-1.42-1.184c-0.685,0-1.28,0.27-1.315,1.031h0.692c0.007-0.36,0.32-0.555,0.651-0.555
	c0.7,0,0.735,0.354,0.735,0.957H67.457z M68.053,48.446c0.013,0.646-0.132,1.317-0.908,1.317c-0.388,0-0.686-0.215-0.686-0.646
	c0-0.504,0.535-0.65,0.935-0.672H68.053z M60.908,50.137h1.662c0.464-0.015,0.955-0.048,1.356-0.304
	c0.728-0.465,1.06-1.247,1.06-2.195c0-0.949-0.332-1.732-1.06-2.195c-0.401-0.256-0.892-0.291-1.356-0.305h-1.662V50.137z
	 M61.599,45.732h1.012c0.699,0,1.073,0.284,1.267,0.568c0.298,0.429,0.381,0.873,0.381,1.337s-0.083,0.907-0.381,1.336
	c-0.194,0.284-0.568,0.569-1.267,0.569h-1.012V45.732z"/>
<path fill="#fff" d="M174.419,40.104c0-0.567,0.324-1.032,0.873-1.032c0.639,0,0.9,0.45,0.887,1.032H174.419z M176.871,40.56
	v-0.325c0-0.961-0.49-1.62-1.529-1.64c-1.102,0-1.613,0.851-1.613,1.869c0,1.024,0.443,1.813,1.557,1.813
	c0.832,0,1.441-0.394,1.543-1.185h-0.689c-0.076,0.507-0.332,0.707-0.846,0.707c-0.674,0-0.922-0.631-0.873-1.24H176.871z
	 M170.337,42.173v-1.787c0-0.193-0.041-0.442,0.111-0.803c0.125-0.291,0.527-0.492,0.789-0.484c0.617,0.014,0.777,0.408,0.777,1.018
	v2.057h0.656v-2.354c0-0.623-0.283-1.224-1.189-1.224c-0.506,0-0.879,0.18-1.129,0.566h-0.016v-1.986h-0.656v4.998H170.337z
	 M168.671,39.812c-0.035-0.755-0.588-1.218-1.322-1.218c-1.102,0-1.613,0.851-1.613,1.869c0,1.024,0.441,1.813,1.557,1.813
	c0.77,0,1.352-0.478,1.406-1.26h-0.656c-0.035,0.499-0.307,0.782-0.742,0.782c-0.631,0-0.873-0.547-0.873-1.364
	s0.242-1.364,0.873-1.364c0.471,0,0.678,0.305,0.715,0.74L168.671,39.812z M163.996,37.886h0.781v-0.711h-0.781V37.886z
	 M164.716,38.698h-0.656v3.475h0.656V38.698z M162.769,37.175h-0.656v4.998h0.656V37.175z M159.156,38.677v0.49l0.596-0.006v2.209
	c0,0.465,0.033,0.479,0.15,0.645c0.113,0.152,0.285,0.207,0.389,0.228c0.158,0.028,0.283,0.035,0.443,0.035
	c0.152,0,0.297-0.035,0.451-0.042v-0.504c-0.105,0.027-0.244,0.042-0.348,0.042c-0.234,0-0.43-0.119-0.43-0.368v-2.244l0.803,0.006
	v-0.49l-0.803,0.021v-0.948l-0.656,0.209v0.739L159.156,38.677z M157.822,42.173v-3.019h0.805v-0.456h-0.805v-0.555
	c-0.02-0.381,0.195-0.479,0.57-0.479c0.109,0,0.221,0.015,0.332,0.021V37.14c-0.16-0.027-0.312-0.069-0.471-0.069
	c-0.492,0-1.066,0.201-1.088,0.962v0.666h-0.678v0.456h0.678v3.019H157.822z M154.458,40.027c-0.826,0-1.689,0.283-1.689,1.261
	c0,0.678,0.607,0.989,1.211,0.989c0.479,0,0.867-0.187,1.082-0.623h0.012c0.008,0.16,0.021,0.312,0.035,0.47
	c0.006,0.084,0.123,0.049,0.188,0.049h0.441c-0.02-0.289-0.027-0.58-0.027-0.732v-1.663c0-0.969-0.705-1.183-1.42-1.183
	c-0.686,0-1.279,0.269-1.314,1.031h0.691c0.008-0.36,0.318-0.555,0.65-0.555c0.701,0,0.736,0.354,0.736,0.956H154.458z
	 M155.054,40.484c0.012,0.644-0.133,1.315-0.908,1.315c-0.389,0-0.686-0.215-0.686-0.645c0-0.505,0.533-0.65,0.934-0.671H155.054z
	 M149.394,42.173v-1.787c0-0.193-0.041-0.442,0.111-0.803c0.125-0.291,0.525-0.492,0.789-0.484c0.615,0.014,0.775,0.408,0.775,1.018
	v2.057h0.658v-2.354c0-0.623-0.285-1.224-1.191-1.224c-0.506,0-0.881,0.18-1.129,0.566h-0.014v-1.986h-0.658v4.998H149.394z
	 M147.728,39.812c-0.037-0.755-0.588-1.218-1.324-1.218c-1.102,0-1.611,0.851-1.611,1.869c0,1.024,0.441,1.813,1.557,1.813
	c0.768,0,1.35-0.478,1.404-1.26h-0.654c-0.037,0.499-0.307,0.782-0.744,0.782c-0.629,0-0.873-0.547-0.873-1.364
	s0.244-1.364,0.873-1.364c0.471,0,0.68,0.305,0.715,0.74L147.728,39.812z M141.238,39.646c0,1.357,2.113,0.775,2.113,1.552
	c0,0.451-0.396,0.603-0.785,0.603c-0.4,0-0.691-0.229-0.707-0.657h-0.689c-0.008,0.803,0.602,1.135,1.328,1.135
	c0.713,0,1.545-0.263,1.545-1.114c0-0.783-0.68-0.852-1.268-1.046c-0.25-0.077-0.844-0.104-0.844-0.491
	c0-0.389,0.283-0.555,0.635-0.555c0.381,0,0.721,0.145,0.693,0.588h0.691c0.049-0.789-0.691-1.064-1.348-1.064
	C141.972,38.595,141.238,38.919,141.238,39.646 M137.785,38.698h-0.641v3.475h0.656v-1.89c0-0.678,0.18-0.832,0.275-0.928
	c0.277-0.276,0.639-0.257,0.639-0.257c0.555,0,0.797,0.312,0.797,0.887v2.188h0.656v-2.402c0-1.114-1.072-1.176-1.314-1.176
	c-0.346,0-0.832,0.18-1.053,0.615h-0.016V38.698z M133.613,40.104c0-0.567,0.324-1.032,0.873-1.032c0.637,0,0.9,0.45,0.885,1.032
	H133.613z M136.064,40.56v-0.325c0-0.961-0.492-1.62-1.531-1.64c-1.1,0-1.611,0.851-1.611,1.869c0,1.024,0.441,1.813,1.557,1.813
	c0.832,0,1.441-0.394,1.545-1.185h-0.691c-0.076,0.507-0.334,0.707-0.846,0.707c-0.672,0-0.922-0.631-0.873-1.24H136.064z
	 M129.322,39.646c0,1.357,2.113,0.775,2.113,1.552c0,0.451-0.395,0.603-0.783,0.603c-0.402,0-0.693-0.229-0.707-0.657h-0.691
	c-0.008,0.803,0.602,1.135,1.33,1.135c0.713,0,1.543-0.263,1.543-1.114c0-0.783-0.678-0.852-1.268-1.046
	c-0.248-0.077-0.844-0.104-0.844-0.491c0-0.389,0.283-0.555,0.637-0.555c0.381,0,0.721,0.145,0.693,0.588h0.691
	c0.049-0.789-0.691-1.064-1.35-1.064C130.056,38.595,129.322,38.919,129.322,39.646 M125.667,39.646
	c0,1.357,2.111,0.775,2.111,1.552c0,0.451-0.395,0.603-0.783,0.603c-0.402,0-0.693-0.229-0.707-0.657h-0.689
	c-0.008,0.803,0.6,1.135,1.328,1.135c0.715,0,1.545-0.263,1.545-1.114c0-0.783-0.68-0.852-1.27-1.046
	c-0.248-0.077-0.844-0.104-0.844-0.491c0-0.389,0.285-0.555,0.637-0.555c0.381,0,0.721,0.145,0.693,0.588h0.691
	c0.049-0.789-0.691-1.064-1.35-1.064C126.4,38.595,125.667,38.919,125.667,39.646 M123.853,37.886h0.781v-0.711h-0.781V37.886z
	 M124.572,38.698h-0.656v3.475h0.656V38.698z M122.392,38.698l-0.867,2.742h-0.012l-0.783-2.742h-0.852l-0.865,2.797H119
	l-0.84-2.797h-0.713l1.15,3.475h0.768l0.902-2.857h0.012l0.811,2.857h0.748l1.225-3.475H122.392z M112.794,40.449
	c0-0.733,0.146-1.178,0.977-1.204c0.09,0,0.193,0,0.285,0.033v-0.622c-0.078,0-0.146-0.006-0.23-0.006
	c-0.477,0-0.92,0.241-1.016,0.718h-0.016v-0.67h-0.656v3.475h0.656V40.449z M110.187,40.484c0,0.083-0.004,0.492-0.129,0.817
	c-0.141,0.359-0.508,0.498-0.777,0.498c-0.631,0-0.768-0.442-0.768-1.045v-2.057h-0.658v2.327c0,0.698,0.414,1.252,1.141,1.252
	c0.486,0,0.93-0.18,1.191-0.616h0.014v0.512h0.645v-3.475h-0.658V40.484z M109.003,37.175h-0.629v0.705h0.629V37.175z
	 M110.306,37.175h-0.631v0.705h0.631V37.175z M106.228,42.173v-3.019h0.801v-0.456h-0.801v-0.555
	c-0.021-0.381,0.193-0.479,0.566-0.479c0.109,0,0.223,0.015,0.332,0.021V37.14c-0.158-0.027-0.312-0.069-0.471-0.069
	c-0.49,0-1.064,0.201-1.086,0.962v0.666h-0.678v0.456h0.678v3.019H106.228z M99.353,38.677v0.49l0.596-0.006v2.209
	c0,0.465,0.033,0.479,0.152,0.645c0.109,0.152,0.283,0.207,0.387,0.228c0.158,0.028,0.283,0.035,0.443,0.035
	c0.152,0,0.297-0.035,0.449-0.042v-0.504c-0.104,0.027-0.24,0.042-0.346,0.042c-0.234,0-0.43-0.119-0.43-0.368v-2.244l0.803,0.006
	v-0.49l-0.803,0.021v-0.948l-0.656,0.209v0.739L99.353,38.677z M98.021,42.173v-3.019h0.803v-0.456h-0.803v-0.555
	c-0.021-0.381,0.193-0.479,0.568-0.479c0.109,0,0.221,0.015,0.332,0.021V37.14c-0.158-0.027-0.312-0.069-0.473-0.069
	c-0.49,0-1.064,0.201-1.086,0.962v0.666h-0.678v0.456h0.678v3.019H98.021z M94.654,40.027c-0.822,0-1.688,0.283-1.688,1.261
	c0,0.678,0.607,0.989,1.211,0.989c0.477,0,0.865-0.187,1.08-0.623h0.014c0.008,0.16,0.021,0.312,0.037,0.47
	c0.004,0.084,0.123,0.049,0.184,0.049h0.445c-0.021-0.289-0.029-0.58-0.029-0.732v-1.663c0-0.969-0.705-1.183-1.42-1.183
	c-0.686,0-1.279,0.269-1.314,1.031h0.691c0.006-0.36,0.32-0.555,0.652-0.555c0.699,0,0.734,0.354,0.734,0.956H94.654z
	 M95.251,40.484c0.014,0.644-0.133,1.315-0.908,1.315c-0.387,0-0.686-0.215-0.686-0.645c0-0.505,0.533-0.65,0.936-0.671H95.251z
	 M89.591,42.173v-1.787c0-0.193-0.041-0.442,0.111-0.803c0.123-0.291,0.525-0.492,0.789-0.484c0.617,0.014,0.777,0.408,0.777,1.018
	v2.057h0.656v-2.354c0-0.623-0.283-1.224-1.191-1.224c-0.506,0-0.879,0.18-1.129,0.566h-0.014v-1.986h-0.656v4.998H89.591z
	 M87.923,39.812c-0.033-0.755-0.587-1.218-1.321-1.218c-1.102,0-1.614,0.851-1.614,1.869c0,1.024,0.444,1.813,1.558,1.813
	c0.769,0,1.35-0.478,1.405-1.26h-0.657c-0.035,0.499-0.305,0.782-0.74,0.782c-0.632,0-0.873-0.547-0.873-1.364
	s0.241-1.364,0.873-1.364c0.47,0,0.678,0.305,0.713,0.74L87.923,39.812z M81.437,39.646c0,1.357,2.111,0.775,2.111,1.552
	c0,0.451-0.395,0.603-0.782,0.603c-0.403,0-0.694-0.229-0.707-0.657h-0.693c-0.007,0.803,0.603,1.135,1.329,1.135
	c0.714,0,1.544-0.263,1.544-1.114c0-0.783-0.677-0.852-1.265-1.046c-0.25-0.077-0.847-0.104-0.847-0.491
	c0-0.389,0.284-0.555,0.639-0.555c0.38,0,0.719,0.145,0.692,0.588h0.691c0.049-0.789-0.691-1.064-1.35-1.064
	C82.168,38.595,81.437,38.919,81.437,39.646 M80.329,37.175h-0.657v4.998h0.657V37.175z M78.382,37.175h-0.656v4.998h0.656V37.175z
	 M74.184,40.104c0-0.567,0.324-1.032,0.873-1.032c0.636,0,0.899,0.45,0.885,1.032H74.184z M76.634,40.56v-0.325
	c0-0.961-0.49-1.62-1.53-1.64c-1.101,0-1.613,0.851-1.613,1.869c0,1.024,0.444,1.813,1.558,1.813c0.831,0,1.44-0.394,1.545-1.185
	H75.9C75.825,41.6,75.567,41.8,75.057,41.8c-0.673,0-0.923-0.631-0.873-1.24H76.634z M69.894,39.646
	c0,1.357,2.111,0.775,2.111,1.552c0,0.451-0.395,0.603-0.782,0.603c-0.403,0-0.694-0.229-0.706-0.657h-0.693
	c-0.007,0.803,0.602,1.135,1.329,1.135c0.714,0,1.544-0.263,1.544-1.114c0-0.783-0.677-0.852-1.266-1.046
	c-0.249-0.077-0.846-0.104-0.846-0.491c0-0.389,0.284-0.555,0.638-0.555c0.38,0,0.72,0.145,0.692,0.588h0.692
	c0.048-0.789-0.692-1.064-1.35-1.064C70.625,38.595,69.894,38.919,69.894,39.646 M66.557,40.104c0-0.567,0.325-1.032,0.873-1.032
	c0.637,0,0.9,0.45,0.886,1.032H66.557z M69.006,40.56v-0.325c0-0.961-0.49-1.62-1.529-1.64c-1.102,0-1.613,0.851-1.613,1.869
	c0,1.024,0.443,1.813,1.557,1.813c0.832,0,1.44-0.394,1.544-1.185h-0.692C68.198,41.6,67.941,41.8,67.43,41.8
	c-0.673,0-0.922-0.631-0.873-1.24H69.006z M64.749,38.421c-0.042-0.963-0.976-1.351-1.82-1.351c-0.853,0-1.587,0.304-2.023,1.065
	c-0.256,0.451-0.428,1.019-0.428,1.539c0,0.705,0.193,1.543,0.747,2.029c0.547,0.483,1.123,0.573,1.829,0.573
	c0.567,0,1.142-0.118,1.716-0.291v-2.471h-1.828v0.594h1.136v1.415c-0.318,0.104-0.658,0.158-0.997,0.158
	c-1.434-0.028-1.822-0.729-1.877-2.008c-0.028-0.936,0.415-2.01,1.642-2.01c0.533,0,1.052,0.159,1.177,0.756H64.749z"/>
<path fill="#fff" d="M163.447,15.836v3.251h8.545c-0.139,1.44-0.326,1.997-0.744,2.926c-1.58,3.343-5.248,5.387-9.799,5.387
	c-7.383,0-12.305-4.736-12.305-11.842c0-7.059,5.105-12.074,12.166-12.074c1.719,0,3.436,0.371,5.107,1.114
	c2.184,0.976,3.205,1.765,5.482,4.087l2.322-2.368c-2.604-2.74-3.857-3.669-6.549-4.83c-2.139-0.929-4.365-1.393-6.688-1.393
	c-8.5,0-15.234,6.78-15.234,15.371c0,9.057,6.455,15.326,15.789,15.326c4.137,0,7.479-1.207,10.033-3.669
	c1.252-1.207,2.275-2.74,2.924-4.272c0.885-2.09,1.115-3.391,1.162-7.013H163.447z M119.625,0.975v28.933h8.127
	c7.432,0,13.746-6.688,13.746-14.444c0-8.498-6.221-14.489-14.953-14.489H119.625z M122.875,4.226h2.787
	c4.182,0,7.061,1.021,9.381,3.297c2.043,2.043,3.113,4.784,3.113,7.849c0,6.501-4.877,11.238-11.611,11.238h-3.715V4.226H122.875z
	 M94.533,0l-9.242,22.291L76.84,0.975h-3.299l11.704,29.769l9.334-22.71l9.428,22.71l11.379-29.816h-3.25l-8.27,21.131L94.533,0z
	 M59.592,15.836v3.251h8.545c-0.14,1.44-0.325,1.997-0.743,2.926c-1.579,3.343-5.248,5.387-9.799,5.387
	c-7.385,0-12.308-4.736-12.308-11.842c0-7.059,5.11-12.074,12.168-12.074c1.719,0,3.437,0.371,5.109,1.114
	c2.182,0.976,3.205,1.765,5.479,4.087l2.322-2.368c-2.599-2.74-3.853-3.669-6.547-4.83c-2.136-0.929-4.366-1.393-6.688-1.393
	c-8.498,0-15.232,6.78-15.232,15.371c0,9.057,6.455,15.326,15.79,15.326c4.133,0,7.476-1.207,10.031-3.669
	c1.254-1.207,2.275-2.74,2.926-4.272c0.882-2.09,1.115-3.391,1.161-7.013H59.592z"/>
</svg>
