<svg xmlns="http://www.w3.org/2000/svg" width="456" height="89" viewBox="0 0 456 89">
  <g fill="none" fill-rule="evenodd">
    <path fill="#FFF" d="M25.281 85.187C25.105 85.611 25.074 85.807 25.068 86.228L24.169 85.871C24.639 85.371 24.697 85.226 24.903 84.722L26.106 81.777 25.034 82.122 24.848 81.912C25.044 81.846 26.724 81.19 26.954 81.135L25.281 85.187M50.15 83.309L49.303 83.387C48.389 83.471 48.09 83.672 47.808 83.891L47.84 83.297C47.849 83.168 47.845 83.117 47.823 83.025L50.934 82.742 49.846 85.252C51.189 85.387 51.282 86.407 51.297 86.572 51.334 86.978 51.115 88.192 49.496 88.34 48.703 88.413 48.361 88.293 48.131 88.207L48.506 87.264C48.598 87.488 48.816 87.993 49.58 87.924 50.35 87.853 50.734 87.178 50.683 86.613 50.648 86.228 50.376 85.936 50.102 85.846 49.707 85.709 49.316 85.752 49.003 85.789L50.15 83.309M38.613 85.484L38.591 85.488 37.787 85.406 39.148 82.918 36.361 82.637C36.176 82.619 36.076 82.607 35.998 82.593 35.928 82.578 35.879 82.566 35.808 82.553L35.666 83.461C36.044 83.209 36.2 83.102 37.446 83.228L38.309 83.315 37.212 85.35 36.403 85.268C36.254 85.252 36.175 85.244 36.113 85.232 36.056 85.221 36.017 85.211 35.961 85.199L35.888 85.532 35.866 85.537 35.887 85.538 35.886 85.543 35.908 85.54 37.048 85.655 36.556 86.566C36.245 87.147 35.937 87.627 35.573 87.958L36.692 88.07C36.69 88.019 36.69 87.876 36.699 87.783 36.732 87.455 36.88 87.067 37.33 86.24L37.62 85.713 38.096 85.761C38.243 85.775 38.323 85.783 38.385 85.795 38.442 85.807 38.481 85.818 38.538 85.828L38.611 85.495 38.633 85.492 38.612 85.49 38.613 85.484M62.645 83.88L62.626 83.892 61.818 84.065 62.352 81.276 59.613 81.866C59.43 81.905 59.332 81.926 59.254 81.935 59.182 81.942 59.133 81.946 59.061 81.956L59.203 82.862C59.486 82.507 59.602 82.358 60.826 82.097L61.674 81.913 61.254 84.186 60.475 84.352C60.33 84.384 60.252 84.401 60.189 84.407 60.131 84.415 60.091 84.417 60.033 84.423L60.066 84.763 60.047 84.773 60.067 84.769 60.068 84.773 60.088 84.765 61.191 84.527 61.004 85.545C60.886 86.194 60.74 86.743 60.494 87.171L61.594 86.935C61.577 86.888 61.532 86.751 61.514 86.659 61.443 86.338 61.465 85.923 61.641 84.999L61.754 84.407 62.238 84.302C62.383 84.272 62.461 84.255 62.525 84.246 62.582 84.241 62.622 84.238 62.68 84.231L62.646 83.893 62.667 83.882 62.646 83.888 62.645 83.88M17.96 37.092L12.007 37.092C12.007 47.318 18.467 58.149 32.366 62.44 33.196 60.75 34.03 58.945 34.871 57.013 21.802 53.391 17.96 43.467 17.96 37.092M46.022 58.398C42.99 58.398 40.272 58.14 37.822 57.686 36.849 60.023 36.011 62.009 35.42 63.242 38.611 63.953 42.137 64.352 46.022 64.352 47.86 64.352 49.635 64.176 51.359 63.874 50.426 62.034 49.591 60.144 48.87 58.221 47.936 58.326 46.991 58.398 46.022 58.398M53.294 67.363C51.109 67.835 48.846 68.115 46.51 68.158 42.145 68.238 37.783 67.717 33.644 66.686 32.501 68.805 31.352 70.728 30.197 72.485 35.45 73.995 41.046 74.778 46.63 74.676 50.354 74.607 53.909 74.054 57.275 73.118 56.878 72.607 56.477 72.083 56.065 71.531 55.079 70.206 54.159 68.808 53.294 67.363"/>
    <path fill="#FFF" d="M15.168,56.965 C9.999,51.932 7.348,45.789 7.289,38.708 C7.126,19.043 26.128,7.113 44.592,6.94 C62.703,6.771 77.649,18.19 77.799,18.305 L79.457,19.712 L81.036,11.901 C76.907,8.995 62.1,0.257 44.531,0.421 C22.866,0.623 0.573,15.02 0.77,38.762 C0.842,47.522 4.248,55.433 10.62,61.637 C14.993,65.895 20.763,69.275 27.19,71.531 C28.33,69.854 29.471,67.954 30.62,65.827 C24.579,63.901 19.169,60.861 15.168,56.965"/>
    <path fill="#FFF" d="M89.135,41.659 L90.356,37.484 L55.15,37.484 L55.15,44.004 C55.15,44.004 74.575,44.004 81.318,44.004 C77.14,53.476 68.305,62.685 56.811,66.421 C57.895,68.287 59.194,70.178 60.654,72.027 C75.124,66.68 85.507,54.054 89.135,41.659"/>
    <path fill="#FFF" d="M91.666,12.389 L83.726,12.389 L83.265,14.809 C80.271,30.521 69.767,53.091 52.321,57.588 C53.102,59.361 53.989,61.201 54.945,63.03 C73.463,57.443 84.766,35.148 88.582,18.342 C88.635,18.342 88.637,18.342 88.689,18.342 C88.689,23.563 88.689,62.288 88.689,62.288 L94.643,62.288 L94.643,12.389 L91.666,12.389"/>
    <path fill="#FFF" d="M80.583 78C79.667 77.833 79.265 79.634 80.667 79.833 81.25 80.083 81.084 81.083 79.917 82.083 78.75 83.083 72.917 84.833 68.417 81.083 63.917 77.333 59.249 72.167 56.083 66.667 53.678 62.489 50.892 56.823 49.324 52.002 55.824 52.158 55.083 49.25 55.083 49.25 53.955 51.184 51.505 51.554 49.132 51.389 48.732 50.09 48.424 48.858 48.25 47.75 47.417 42.417 47.584 37.167 47.834 36.083 47.833 36.083 47.694 36.174 47.463 36.352L47.5 36.166C47.5 36.166 40.334 40.75 32.084 35.667 23.834 30.583 25.75 12.083 40.084 12.166 42.834 12.083 47.167 12.916 48.917 15.666 48.917 15.666 49.416 14.749 50.583 14.416 50.583 14.416 49.416 14.5 48.583 14.083 47.75 13.666 46.584 11.5 39.584 11.5 32.584 11.5 25.084 16.416 25.084 25.666 25.084 34.628 34.861 41.713 46.232 37.447 44.482 39.174 41.564 42.778 38.81 49.423 37.294 49.369 36.003 49.665 35.965 50.833 35.921 52.213 36.742 52.591 37.517 52.647 33.381 62.943 29.301 70.662 25 75.667 21.083 80.227 17.084 84.333 9.167 83.333 6.333 82.917 2.25 78.917 5.666 74.5 6.078 73.969 6.334 75.583 7.834 74.75 9.334 73.917 6.833 71.834 5.084 73.917 3.334 76 1.5 83.751 12.666 84.417 23.834 85.083 32.333 67.75 34.583 63.25 35.678 61.061 37.876 55.504 40.17 50.132 42.395 50.493 45.255 51.418 46.916 51.833 47.176 51.861 47.425 51.886 47.668 51.906 49.086 57.783 51.928 64.716 56.667 71.083 67.833 86.083 73.667 84.999 79.25 83.583 81.083 82.75 83.916 78.667 80.583 78zM37 50.917C37 50.243 37.628 49.993 38.579 49.986 38.497 50.189 38.415 50.375 38.334 50.583 38.121 51.129 37.909 51.661 37.696 52.193 37.127 51.928 37 51.539 37 50.917zM43.5 50.25C43.009 50.119 41.754 49.785 40.406 49.581 42.758 44.106 45.175 38.952 46.584 37.917 46.584 37.917 45.888 42.834 47.18 49.664 47.273 50.161 47.398 50.685 47.514 51.2 45.621 50.897 44.006 50.385 43.5 50.25L43.5 50.25zM124.07 15.316C122.746 13.804 120.755 13.023 118.74 13.023 114.711 13.023 111.914 15.671 111.914 20.445 111.914 25.124 114.331 28.032 119 28.032 120.28 28.032 121.608 27.796 122.697 27.228L122.697 21.154C123.029 21.178 123.384 21.213 123.738 21.213 124.07 21.213 124.401 21.178 124.78 21.154L124.78 27.843C122.722 28.558 120.541 28.939 118.338 28.939 112.341 28.939 109.581 25.361 109.581 20.563 109.581 15.033 113.572 12.116 118.835 12.116 122.366 12.116 124.355 13.165 124.876 13.496 124.662 14.087 124.496 14.702 124.331 15.316L124.07 15.316M131.103 19.506L134.779 19.506C135.491 19.506 136.181 19.411 136.892 19.388 136.869 19.578 136.835 19.791 136.835 20.004 136.835 20.194 136.869 20.408 136.892 20.669 136.181 20.645 135.491 20.55 134.779 20.55L131.103 20.55 131.103 27.487C132.549 27.535 133.974 27.44 135.398 27.392 136.133 27.368 136.845 27.297 137.58 27.178 137.557 27.44 137.516 27.653 137.516 27.89 137.516 28.126 137.557 28.363 137.58 28.6L129.02 28.6 129.02 12.456 137.439 12.456C137.414 12.716 137.373 12.929 137.373 13.165 137.373 13.402 137.414 13.64 137.439 13.875 136.727 13.733 136.016 13.663 135.302 13.616L132.929 13.568 131.103 13.568 131.103 19.506M155.586 20.397C155.753 23.004 153.953 28.172 148.954 28.172 145.426 28.172 142.488 25.66 142.488 20.848 142.488 16.036 145 12.884 149.168 12.884 151.063 12.884 152.91 13.69 154.095 15.183 155.326 16.771 155.586 18.43 155.586 20.397zM148.885 28.942C154.165 28.942 157.92 25.494 157.92 20.208 157.92 14.519 153.384 12.113 148.93 12.113 144.027 12.113 140.156 15.373 140.156 20.563 140.156 25.636 143.649 28.942 148.885 28.942L148.885 28.942zM163.523 13.33C164.522 13.283 166.136 13.212 167.016 13.353 168.798 13.639 169.628 14.706 169.628 16.343 169.628 18.193 168.321 19.379 166.588 19.735 165.376 19.972 163.856 19.877 163.523 19.853L163.523 13.33zM161.44 28.657C161.773 28.633 162.128 28.6 162.482 28.6 162.814 28.6 163.145 28.633 163.523 28.657L163.523 20.755 164.427 20.755 166.326 22.981 169.128 26.602C169.628 27.266 170.102 27.928 170.625 28.657 171.05 28.633 171.525 28.6 171.976 28.6 172.426 28.6 172.855 28.633 173.352 28.657L172.901 28.069 171.762 26.746 166.873 20.565C169.271 20.138 171.738 18.81 171.738 16.058 171.738 13.662 170.125 12.456 166.469 12.456L161.44 12.456 161.44 28.657 161.44 28.657zM190.187 15.316C188.862 13.804 186.87 13.023 184.855 13.023 180.827 13.023 178.03 15.671 178.03 20.445 178.03 25.124 180.447 28.032 185.117 28.032 186.397 28.032 187.724 27.796 188.815 27.228L188.815 21.154C189.146 21.178 189.5 21.213 189.856 21.213 190.187 21.213 190.518 21.178 190.897 21.154L190.897 27.843C188.839 28.558 186.658 28.939 184.453 28.939 178.457 28.939 175.696 25.361 175.696 20.563 175.696 15.033 179.69 12.116 184.951 12.116 188.482 12.116 190.472 13.165 190.992 13.496 190.778 14.087 190.613 14.702 190.447 15.316L190.187 15.316"/>
    <polygon fill="#FFF" points="193.995 24.09 199.928 24.09 199.928 22.612 193.995 22.612"/>
    <path fill="#FFF" d="M211.42 21.27L206.207 21.27 208.79 15.209 211.42 21.27zM209.643 12.113L209.098 12.113 201.699 28.657C201.96 28.633 202.221 28.6 202.53 28.6 202.815 28.6 203.075 28.633 203.408 28.657 204.072 26.436 204.927 24.352 205.757 22.267L211.775 22.267C212.725 24.423 213.578 26.697 214.267 28.657 214.67 28.633 215.075 28.6 215.524 28.6 215.928 28.6 216.308 28.633 216.76 28.657L209.643 12.113 209.643 12.113zM221.823 21.528C221.823 25.701 223.011 27.858 227.075 27.858 230.854 27.858 232.209 25.132 232.209 21.291L232.209 12.456C232.422 12.478 232.638 12.512 232.875 12.512 233.091 12.512 233.305 12.478 233.543 12.456L233.543 21.884C233.543 26.578 230.782 28.942 226.6 28.942 224.247 28.942 222.678 28.4 221.443 27.289 219.954 25.939 219.765 23.828 219.74 21.931L219.74 12.456C220.071 12.478 220.426 12.512 220.781 12.512 221.112 12.512 221.443 12.478 221.823 12.456L221.823 21.528M252.364 15.316C251.037 13.804 249.048 13.023 247.032 13.023 243.003 13.023 240.207 15.671 240.207 20.445 240.207 25.124 242.624 28.032 247.294 28.032 248.573 28.032 249.901 27.796 250.992 27.228L250.992 21.154C251.323 21.178 251.678 21.213 252.032 21.213 252.364 21.213 252.694 21.178 253.074 21.154L253.074 27.843C251.015 28.558 248.834 28.939 246.63 28.939 240.633 28.939 237.874 25.361 237.874 20.563 237.874 15.033 241.866 12.116 247.128 12.116 250.66 12.116 252.648 13.165 253.169 13.496 252.955 14.087 252.789 14.702 252.624 15.316L252.364 15.316M259.51 21.528C259.51 25.701 260.697 27.858 264.762 27.858 268.539 27.858 269.894 25.132 269.894 21.291L269.894 12.456C270.107 12.478 270.323 12.512 270.561 12.512 270.776 12.512 270.989 12.478 271.228 12.456L271.228 21.884C271.228 26.578 268.468 28.942 264.285 28.942 261.932 28.942 260.364 28.4 259.13 27.289 257.639 25.939 257.45 23.828 257.427 21.931L257.427 12.456C257.758 12.478 258.113 12.512 258.468 12.512 258.798 12.512 259.13 12.478 259.51 12.456L259.51 21.528M275.814 25.458C276.739 26.972 277.807 27.918 279.654 27.918 281.572 27.918 282.947 26.333 282.947 24.465 282.947 20.067 275.528 22.006 275.528 16.661 275.528 13.61 277.949 12.116 280.792 12.116 281.928 12.116 283.304 12.472 284.185 13.256 283.898 13.871 283.733 14.533 283.542 15.195L283.304 15.195C282.805 13.918 281.763 13.138 280.364 13.138 278.731 13.138 277.381 14.226 277.381 15.904 277.381 20.255 284.853 18.506 284.853 23.543 284.853 26.924 282.212 28.939 278.991 28.939 277.83 28.939 275.933 28.44 275.125 27.563 275.363 26.878 275.48 26.168 275.577 25.458L275.814 25.458M294.049 28.705C293.67 28.681 293.339 28.666 293.008 28.666 292.652 28.666 292.297 28.681 291.966 28.705L291.966 13.595C289.569 13.595 288.122 13.738 286.77 13.88 286.792 13.644 286.839 13.406 286.839 13.168 286.839 12.931 286.792 12.718 286.77 12.456L299.009 12.456C298.985 12.718 298.957 12.931 298.957 13.168 298.957 13.406 298.985 13.644 299.009 13.88 297.821 13.738 296.16 13.595 294.049 13.595L294.049 28.705"/>
    <polygon fill="#FFF" points="298.805 24.09 304.739 24.09 304.739 22.612 298.805 22.612"/>
    <path fill="#FFF" d="M310.425 21.528C310.425 25.701 311.612 27.858 315.677 27.858 319.455 27.858 320.81 25.132 320.81 21.291L320.81 12.456C321.023 12.478 321.24 12.512 321.478 12.512 321.692 12.512 321.906 12.478 322.146 12.456L322.146 21.884C322.146 26.578 319.384 28.942 315.201 28.942 312.849 28.942 311.28 28.4 310.046 27.289 308.557 25.939 308.366 23.828 308.342 21.931L308.342 12.456C308.673 12.478 309.028 12.512 309.384 12.512 309.714 12.512 310.046 12.478 310.425 12.456L310.425 21.528M341.103 28.657L340.387 28.657C340.125 28.327 339.647 27.763 339.151 27.218L328.902 15.887 328.667 15.887 328.667 28.657C328.428 28.633 328.214 28.6 327.998 28.6 327.76 28.6 327.545 28.633 327.331 28.657L327.331 12.456 328.261 12.456 339.529 24.657 339.768 24.657 339.768 12.456C339.98 12.478 340.195 12.512 340.435 12.512 340.649 12.512 340.863 12.478 341.103 12.456L341.103 28.657M346.057 12.456C346.389 12.478 346.743 12.512 347.099 12.512 347.43 12.512 347.761 12.478 348.14 12.456L348.14 28.657C347.761 28.633 347.43 28.6 347.099 28.6 346.743 28.6 346.389 28.633 346.057 28.657L346.057 12.456M363.066 16.787L364.489 12.832 364.656 12.456C364.941 12.478 365.226 12.512 365.535 12.512 365.795 12.512 366.08 12.478 366.389 12.456 365.63 13.895 360.384 26.033 359.53 28.657 359.363 28.633 359.196 28.6 359.054 28.6 358.887 28.6 358.72 28.633 358.553 28.657 355.846 23.093 352.38 14.464 351.336 12.456 351.691 12.478 352.096 12.512 352.476 12.512 352.855 12.512 353.21 12.478 353.639 12.456 353.947 13.185 354.23 13.966 354.516 14.748L356.105 18.897 359.03 26.08 359.244 26.08C359.697 25.108 360.195 24.183 360.574 23.211L363.066 16.787M371.183 19.506L374.861 19.506C375.573 19.506 376.261 19.411 376.973 19.388 376.948 19.578 376.915 19.791 376.915 20.004 376.915 20.194 376.948 20.408 376.973 20.669 376.261 20.645 375.573 20.55 374.861 20.55L371.183 20.55 371.183 27.487C372.63 27.535 374.054 27.44 375.478 27.392 376.214 27.368 376.925 27.297 377.66 27.178 377.638 27.44 377.596 27.653 377.596 27.89 377.596 28.126 377.638 28.363 377.66 28.6L369.101 28.6 369.101 12.456 377.519 12.456C377.495 12.716 377.454 12.929 377.454 13.165 377.454 13.402 377.495 13.64 377.519 13.875 376.807 13.733 376.095 13.663 375.382 13.616L373.009 13.568 371.183 13.568 371.183 19.506M383.456 13.33C384.455 13.283 386.068 13.212 386.948 13.353 388.729 13.639 389.56 14.706 389.56 16.343 389.56 18.193 388.255 19.379 386.521 19.735 385.309 19.972 383.789 19.877 383.456 19.853L383.456 13.33zM381.374 28.657C381.705 28.633 382.06 28.6 382.414 28.6 382.746 28.6 383.077 28.633 383.456 28.657L383.456 20.755 384.358 20.755 386.259 22.981 389.06 26.602C389.56 27.266 390.035 27.927 390.557 28.657 390.982 28.633 391.457 28.6 391.909 28.6 392.358 28.6 392.787 28.633 393.284 28.657L392.835 28.068 391.694 26.745 386.805 20.565C389.204 20.138 391.671 18.809 391.671 16.058 391.671 13.662 390.059 12.456 386.402 12.456L381.374 12.456 381.374 28.657 381.374 28.657zM395.884 25.458C396.81 26.972 397.876 27.918 399.725 27.918 401.643 27.918 403.017 26.333 403.017 24.465 403.017 20.067 395.599 22.006 395.599 16.661 395.599 13.61 398.02 12.116 400.861 12.116 401.998 12.116 403.374 12.472 404.256 13.256 403.969 13.871 403.802 14.533 403.611 15.195L403.374 15.195C402.874 13.918 401.832 13.137 400.435 13.137 398.801 13.137 397.45 14.226 397.45 15.904 397.45 20.255 404.922 18.506 404.922 23.543 404.922 26.924 402.281 28.939 399.06 28.939 397.9 28.939 396.003 28.44 395.195 27.563 395.432 26.878 395.552 26.168 395.647 25.458L395.884 25.458M408.612 12.456C408.944 12.478 409.3 12.512 409.655 12.512 409.986 12.512 410.317 12.478 410.696 12.456L410.696 28.657C410.317 28.633 409.986 28.6 409.655 28.6 409.3 28.6 408.944 28.633 408.612 28.657L408.612 12.456M421.096 28.705C420.718 28.681 420.386 28.666 420.055 28.666 419.7 28.666 419.345 28.681 419.013 28.705L419.013 13.595C416.617 13.595 415.169 13.738 413.815 13.88 413.84 13.643 413.886 13.406 413.886 13.168 413.886 12.931 413.84 12.718 413.815 12.456L426.056 12.456C426.031 12.718 426.006 12.931 426.006 13.168 426.006 13.406 426.031 13.643 426.056 13.88 424.869 13.738 423.207 13.595 421.096 13.595L421.096 28.705M437.024 21.27L431.813 21.27 434.394 15.209 437.024 21.27zM437.137 10.644C437.706 10.644 438.232 10.121 438.232 9.549 438.232 8.977 437.731 8.454 437.137 8.454 436.541 8.454 436.041 8.977 436.041 9.549 436.041 10.121 436.565 10.644 437.137 10.644zM432.486 10.644C433.058 10.644 433.583 10.145 433.583 9.549 433.583 8.954 433.083 8.454 432.486 8.454 431.893 8.454 431.392 8.977 431.392 9.549 431.392 10.121 431.915 10.644 432.486 10.644zM435.247 12.113L434.702 12.113 427.304 28.657C427.564 28.633 427.826 28.6 428.134 28.6 428.419 28.6 428.681 28.633 429.014 28.657 429.677 26.436 430.531 24.352 431.361 22.267L437.38 22.267C438.329 24.423 439.183 26.697 439.872 28.657 440.275 28.633 440.68 28.6 441.129 28.6 441.532 28.6 441.913 28.633 442.365 28.657L435.247 12.113 435.247 12.113zM450.878 28.705C450.501 28.681 450.169 28.666 449.838 28.666 449.482 28.666 449.128 28.681 448.798 28.705L448.798 13.595C446.399 13.595 444.952 13.738 443.6 13.88 443.624 13.643 443.669 13.406 443.669 13.168 443.669 12.931 443.624 12.718 443.6 12.456L455.839 12.456C455.815 12.718 455.787 12.931 455.787 13.168 455.787 13.406 455.815 13.643 455.839 13.88 454.653 13.738 452.991 13.595 450.878 13.595L450.878 28.705M124.07 47.719C122.746 46.207 120.755 45.425 118.74 45.425 114.711 45.425 111.914 48.074 111.914 52.848 111.914 57.525 114.331 60.434 119 60.434 120.28 60.434 121.608 60.199 122.697 59.631L122.697 53.558C123.029 53.581 123.384 53.616 123.738 53.616 124.07 53.616 124.401 53.581 124.78 53.558L124.78 60.246C122.722 60.959 120.541 61.342 118.338 61.342 112.341 61.342 109.581 57.764 109.581 52.967 109.581 47.435 113.572 44.519 118.835 44.519 122.366 44.519 124.355 45.567 124.876 45.9 124.662 46.489 124.496 47.103 124.331 47.719L124.07 47.719M143.625 52.802C143.793 55.406 141.99 60.575 136.993 60.575 133.466 60.575 130.528 58.061 130.528 53.25 130.528 48.439 133.038 45.286 137.207 45.286 139.101 45.286 140.949 46.092 142.133 47.585 143.365 49.174 143.625 50.832 143.625 52.802zM139.388 43.047C139.958 43.047 140.482 42.523 140.482 41.952 140.482 41.38 139.983 40.856 139.388 40.856 138.792 40.856 138.292 41.38 138.292 41.952 138.292 42.523 138.815 43.047 139.388 43.047zM134.738 43.047C135.31 43.047 135.833 42.548 135.833 41.952 135.833 41.357 135.335 40.856 134.738 40.856 134.144 40.856 133.643 41.38 133.643 41.952 133.643 42.523 134.166 43.047 134.738 43.047zM136.922 61.346C142.204 61.346 145.959 57.897 145.959 52.611 145.959 46.922 141.424 44.517 136.971 44.517 132.067 44.517 128.193 47.774 128.193 52.967 128.193 58.038 131.689 61.346 136.922 61.346L136.922 61.346zM155.384 61.107C155.006 61.084 154.674 61.068 154.343 61.068 153.988 61.068 153.633 61.084 153.302 61.107L153.302 45.997C150.905 45.997 149.459 46.14 148.105 46.282 148.129 46.046 148.175 45.81 148.175 45.571 148.175 45.334 148.129 45.12 148.105 44.86L160.345 44.86C160.32 45.12 160.294 45.334 160.294 45.571 160.294 45.81 160.32 46.046 160.345 46.282 159.157 46.14 157.497 45.997 155.384 45.997L155.384 61.107M169.244 61.107C168.864 61.084 168.533 61.068 168.202 61.068 167.847 61.068 167.492 61.084 167.161 61.107L167.161 45.997C164.765 45.997 163.317 46.14 161.965 46.282 161.988 46.046 162.033 45.81 162.033 45.571 162.033 45.334 161.988 45.12 161.965 44.86L174.203 44.86C174.179 45.12 174.152 45.334 174.152 45.571 174.152 45.81 174.179 46.046 174.204 46.282 173.017 46.14 171.356 45.997 169.244 45.997L169.244 61.107M177.6 44.858C177.929 44.883 178.284 44.915 178.64 44.915 178.971 44.915 179.302 44.883 179.68 44.858L179.68 61.059C179.302 61.037 178.971 61.002 178.64 61.002 178.284 61.002 177.929 61.037 177.6 61.059L177.6 44.858M198.747 61.059L198.032 61.059C197.77 60.73 197.294 60.164 196.795 59.619L186.549 48.289 186.311 48.289 186.311 61.059C186.073 61.037 185.857 61.002 185.644 61.002 185.405 61.002 185.19 61.037 184.976 61.059L184.976 44.858 185.905 44.858 197.175 57.06 197.413 57.06 197.413 44.858C197.628 44.883 197.841 44.915 198.08 44.915 198.295 44.915 198.51 44.883 198.747 44.858L198.747 61.059M217.739 47.719C216.413 46.207 214.422 45.425 212.407 45.425 208.379 45.425 205.582 48.074 205.582 52.848 205.582 57.525 207.998 60.434 212.669 60.434 213.948 60.434 215.276 60.199 216.366 59.631L216.366 53.558C216.697 53.581 217.052 53.616 217.407 53.616 217.739 53.616 218.069 53.581 218.448 53.558L218.448 60.246C216.39 60.959 214.21 61.342 212.006 61.342 206.009 61.342 203.248 57.764 203.248 52.967 203.248 47.435 207.241 44.519 212.503 44.519 216.034 44.519 218.023 45.567 218.544 45.9 218.329 46.489 218.163 47.103 217.999 47.719L217.739 47.719M225.054 51.909L228.732 51.909C229.445 51.909 230.134 51.814 230.845 51.791 230.821 51.98 230.787 52.193 230.787 52.407 230.787 52.597 230.821 52.81 230.845 53.072 230.134 53.049 229.445 52.953 228.732 52.953L225.054 52.953 225.054 59.891C226.502 59.938 227.926 59.843 229.35 59.794 230.085 59.771 230.798 59.699 231.532 59.581 231.51 59.843 231.468 60.056 231.468 60.292 231.468 60.528 231.51 60.766 231.532 61.002L222.972 61.002 222.972 44.858 231.39 44.858C231.367 45.118 231.326 45.332 231.326 45.567 231.326 45.806 231.367 46.042 231.39 46.278 230.679 46.137 229.967 46.065 229.254 46.017L226.882 45.971 225.054 45.971 225.054 51.909M249.533 61.059L248.818 61.059C248.556 60.73 248.078 60.164 247.581 59.619L237.333 48.289 237.096 48.289 237.096 61.059C236.859 61.037 236.644 61.002 236.43 61.002 236.191 61.002 235.977 61.037 235.761 61.059L235.761 44.858 236.691 44.858 247.961 57.06 248.199 57.06 248.199 44.858C248.412 44.883 248.627 44.915 248.865 44.915 249.081 44.915 249.295 44.883 249.533 44.858L249.533 61.059"/>
  </g>
</svg>
