<svg xmlns="http://www.w3.org/2000/svg" width="491.109" height="44.242" viewBox="0 0 491.10901 44.242"><g fill="#fff"><path d="M140.726 11.76c-1.692-1.815-3.384-3.62-5.075-5.416a115.463 115.463 0 0 0-.05 4.976l.02 1.27c.008.444.017.89.03 1.347.013.456.027.878.04 1.27.012.39.025.73.04 1.024.012.294.024.493.038.597a6.002 6.002 0 0 0-1.407 0c.027-.13.057-.373.09-.723.033-.353.06-.772.087-1.26l.088-1.59a90.29 90.29 0 0 0 .127-3.397c.014-.546.02-1.034.02-1.463 0-1.25 0-2.323-.008-3.222a44.77 44.77 0 0 0-.05-2.012h.312c.795.86 1.644 1.782 2.548 2.764a863.334 863.334 0 0 0 5.232 5.62 98.4 98.4 0 0 0 2.097 2.178v-2.655c0-1.366-.01-2.696-.028-3.99a87.35 87.35 0 0 0-.127-3.66c.26.064.48.096.664.096.155 0 .365-.032.625-.097a34.94 34.94 0 0 0-.088 1.29c-.035.57-.066 1.183-.098 1.832-.034.652-.063 1.29-.088 1.913-.027.626-.04 1.127-.04 1.504v1.17c0 .443.004.907.01 1.387.007.482.012.967.02 1.455.005.488.012.944.02 1.366.006.426.01.79.01 1.105v.643h-.275a197.9 197.9 0 0 0-4.784-5.318zM149.755 5.945c-.033-.83-.07-1.67-.108-2.528.17.024.332.05.487.067a3.542 3.542 0 0 0 .938 0c.157-.018.32-.043.49-.067-.04.858-.076 1.7-.11 2.528-.032.826-.048 1.668-.048 2.526v3.358c0 .86.016 1.707.05 2.538.032.833.068 1.653.107 2.46-.3-.026-.617-.04-.956-.04-.34 0-.657.014-.958.04.04-.808.075-1.627.108-2.46.03-.83.047-1.677.047-2.538V8.47c.002-.857-.014-1.7-.045-2.525zM155.28 5.913c-.035-.83-.07-1.664-.11-2.497.586.024 1.168.05 1.748.067.58.02 1.16.03 1.748.03.585 0 1.164-.01 1.736-.03.573-.018 1.152-.043 1.738-.067a2.9 2.9 0 0 0 0 1.17 86.507 86.507 0 0 1-1.142-.078c-.346-.025-.71-.052-1.093-.077a36.767 36.767 0 0 0-2.9-.1c-.013.42-.028.817-.05 1.194-.018.377-.027.806-.027 1.287 0 .51.003 1.003.01 1.484.006.483.01.847.01 1.095a50.682 50.682 0 0 0 2.79-.07c.376-.02.727-.04 1.044-.06.318-.02.62-.04.908-.068a3.047 3.047 0 0 0 0 1.19c-.34-.04-.73-.07-1.18-.097-.45-.025-.9-.04-1.35-.048l-1.268-.02c-.396-.007-.71-.01-.946-.01 0 .115-.003.244-.01.38-.006.137-.01.31-.01.517V13.037c0 .742.004 1.354.01 1.835.007.483.017.847.03 1.092h1.366a38.585 38.585 0 0 0 2.802-.105c.422-.034.79-.082 1.102-.147a1.36 1.36 0 0 0-.05.303c-.006.11-.01.21-.01.302 0 .208.022.377.06.508a37.89 37.89 0 0 0-1.748-.04h-3.542c-.585 0-1.178.013-1.777.04.038-.833.074-1.665.108-2.49.03-.827.047-1.67.047-2.527v-3.36a62.322 62.322 0 0 0-.046-2.535zM165.136 5.945c-.033-.83-.07-1.67-.108-2.528.494.024.987.05 1.474.067.488.02.98.03 1.474.03s.986-.016 1.474-.047c.488-.034.978-.05 1.474-.05 1.145 0 2.125.15 2.938.45.813.297 1.48.724 2 1.277.52.553.9 1.23 1.143 2.03.24.8.36 1.702.36 2.704 0 1.3-.225 2.398-.674 3.29-.446.892-1.02 1.61-1.716 2.156a6.43 6.43 0 0 1-2.304 1.163 9.31 9.31 0 0 1-2.41.34c-.443 0-.878-.006-1.308-.02-.43-.014-.865-.02-1.308-.02h-1.307c-.43 0-.867.013-1.31.04.04-.81.076-1.628.11-2.46.03-.832.047-1.678.047-2.54V8.472c0-.857-.016-1.7-.048-2.525zm1.767 10.02c.273.067.643.117 1.112.148.47.034.95.05 1.445.05.715 0 1.43-.086 2.147-.255a4.642 4.642 0 0 0 1.924-.955c.565-.47 1.028-1.11 1.386-1.924.358-.814.536-1.865.536-3.153 0-1.133-.14-2.063-.42-2.792-.28-.727-.663-1.303-1.15-1.727a4.09 4.09 0 0 0-1.746-.878 9.513 9.513 0 0 0-2.226-.244 23.912 23.912 0 0 0-3.006.196c-.04.624-.07 1.278-.088 1.96-.02.684-.03 1.377-.03 2.08v3.356a70.088 70.088 0 0 0 .117 4.138zM180.42 5.913c-.03-.83-.067-1.664-.106-2.497.586.024 1.168.05 1.746.067.58.02 1.163.03 1.748.03.586 0 1.165-.01 1.738-.03.572-.018 1.152-.043 1.737-.067-.038.194-.06.39-.06.584 0 .197.022.39.06.587a88.722 88.722 0 0 1-1.14-.08l-1.095-.076a36.774 36.774 0 0 0-2.9-.1c-.01.42-.028.817-.047 1.194-.02.377-.027.806-.027 1.287 0 .51.002 1.003.01 1.484.006.483.01.847.01 1.095.572 0 1.085-.008 1.54-.022.457-.013.872-.03 1.25-.05.378-.018.726-.038 1.043-.058.318-.02.622-.04.908-.068a3.045 3.045 0 0 0 0 1.19c-.337-.04-.73-.07-1.18-.097a33.6 33.6 0 0 0-1.348-.048l-1.268-.02a66.18 66.18 0 0 0-.947-.01c0 .115-.003.244-.01.38-.007.137-.01.31-.01.517V13.037c0 .742.003 1.354.01 1.835.007.483.016.847.03 1.092h1.365a37.767 37.767 0 0 0 2.802-.105 9.11 9.11 0 0 0 1.102-.147c-.025.09-.043.192-.048.303-.007.11-.01.21-.01.302 0 .208.02.377.06.508a37.913 37.913 0 0 0-1.748-.04h-3.542c-.586 0-1.18.013-1.777.04.04-.833.076-1.665.107-2.49a63.32 63.32 0 0 0 .048-2.527v-3.36c0-.855-.017-1.702-.05-2.535zM190.277 5.945c-.03-.83-.067-1.67-.107-2.528.378.024.75.05 1.113.067.364.02.735.03 1.112.03.378 0 .75-.016 1.113-.047.364-.034.735-.05 1.112-.05a7.6 7.6 0 0 1 1.563.156c.495.104.926.278 1.298.517.37.242.665.558.88.946.213.39.32.878.32 1.465 0 .626-.14 1.16-.42 1.61-.278.45-.622.82-1.023 1.114a5.11 5.11 0 0 1-1.298.684 6.59 6.59 0 0 1-1.26.32c.155.197.37.47.642.82.274.352.58.74.92 1.163.336.423.687.865 1.053 1.33.363.462.715.904 1.052 1.326.34.422.66.808.958 1.16.3.353.54.62.723.803a4.26 4.26 0 0 0-.585-.042h-1.152a3.87 3.87 0 0 0-.566.04c-.194-.272-.49-.684-.89-1.23a77.647 77.647 0 0 0-1.315-1.756c-.484-.625-.974-1.246-1.476-1.865-.5-.618-.96-1.142-1.376-1.57h-.74v1.423c0 .86.016 1.707.048 2.538.033.833.07 1.653.107 2.46-.3-.026-.62-.04-.957-.04-.338 0-.657.014-.957.04.04-.808.075-1.627.106-2.46.034-.83.05-1.677.05-2.538V8.473c0-.86-.015-1.702-.05-2.528zm2.246 3.718c.215.012.453.02.712.02a6.17 6.17 0 0 0 1.26-.137c.436-.092.835-.25 1.2-.48a2.84 2.84 0 0 0 .907-.916c.24-.386.36-.87.36-1.456 0-.506-.093-.925-.283-1.257a2.236 2.236 0 0 0-.732-.79 2.78 2.78 0 0 0-.975-.402 5.31 5.31 0 0 0-1.035-.106c-.455 0-.833.008-1.132.028-.3.018-.553.04-.76.067-.028.716-.053 1.425-.08 2.127-.026.704-.04 1.407-.04 2.108v1.113c.183.04.382.066.597.08zM202.34 15c.176.242.392.46.646.655a3.25 3.25 0 0 0 2.02.664c.43 0 .815-.074 1.16-.223.346-.152.638-.353.88-.608a2.65 2.65 0 0 0 .556-.896 3.11 3.11 0 0 0 .195-1.104c0-.6-.153-1.072-.458-1.425a3.797 3.797 0 0 0-1.143-.878c-.456-.234-.946-.45-1.475-.643a7.638 7.638 0 0 1-1.473-.733 3.885 3.885 0 0 1-1.142-1.123c-.307-.457-.46-1.066-.46-1.833 0-.55.1-1.045.293-1.495.196-.45.48-.836.85-1.16.372-.326.817-.582 1.34-.765a5.344 5.344 0 0 1 1.755-.273c.625 0 1.164.077 1.62.226.455.15.878.38 1.268.693-.116.222-.214.458-.292.703-.078.25-.156.56-.234.937h-.234a5.143 5.143 0 0 0-.263-.596 2.223 2.223 0 0 0-.45-.593 2.503 2.503 0 0 0-.674-.46 2.183 2.183 0 0 0-.937-.185c-.364 0-.7.06-1.005.176a2.37 2.37 0 0 0-.8.5 2.216 2.216 0 0 0-.528.77c-.124.3-.185.626-.185.976 0 .612.152 1.095.458 1.445.306.353.686.65 1.142.89.455.24.946.456 1.473.643a8.23 8.23 0 0 1 1.473.693 3.75 3.75 0 0 1 1.142 1.054c.306.43.46 1.003.46 1.718 0 .6-.108 1.165-.322 1.698a4.032 4.032 0 0 1-.937 1.396c-.41.397-.91.702-1.502.92-.593.21-1.267.32-2.02.32-.808 0-1.46-.11-1.963-.32-.5-.218-.92-.462-1.26-.735a4.6 4.6 0 0 0 .245-.81c.047-.24.088-.55.128-.927h.232c.105.23.247.47.42.71zM218.124 5.613c.363.876.733 1.766 1.112 2.664a430.71 430.71 0 0 0 3.093 7.184c.266.6.483 1.053.653 1.367a3.53 3.53 0 0 0-.517-.04h-1.037a3.54 3.54 0 0 0-.516.04c-.09-.3-.215-.662-.37-1.084a42.75 42.75 0 0 0-.518-1.328l-.576-1.407c-.196-.474-.38-.925-.546-1.356l-1.27-.03c-.43-.004-.86-.008-1.288-.008-.404 0-.8.004-1.19.01-.392.008-.79.017-1.192.028a91.235 91.235 0 0 0-1.132 2.898c-.338.92-.593 1.675-.762 2.276-.22-.027-.46-.04-.72-.04-.263 0-.502.013-.723.04a539.92 539.92 0 0 0 3.084-6.794c1.002-2.25 2.01-4.542 3.026-6.872h.37c.313.757.65 1.572 1.018 2.453zM214.18.29a.96.96 0 0 1 .7-.29c.276 0 .51.097.706.29a.97.97 0 0 1 .292.706.96.96 0 0 1-.292.702.957.957 0 0 1-.705.293.956.956 0 0 1-.7-.292.96.96 0 0 1-.293-.702.97.97 0 0 1 .292-.705zm.155 10.466c.34 0 .69.007 1.055.02.366.013.716.02 1.054.02.363 0 .73-.003 1.093-.01.366-.007.73-.018 1.094-.03L216.466 5.8l-2.13 4.956zM218.025.29a.963.963 0 0 1 .704-.29.96.96 0 0 1 .7.29.97.97 0 0 1 .293.706.96.96 0 0 1-.292.702.95.95 0 0 1-.7.293.958.958 0 0 1-.705-.292.955.955 0 0 1-.292-.702c0-.273.097-.508.292-.705zM234.86 16.37c-.254.12-.56.23-.916.33-.358.098-.76.186-1.202.263-.44.08-.903.117-1.384.117-1.03 0-1.98-.146-2.85-.438a6.023 6.023 0 0 1-2.255-1.34 6.273 6.273 0 0 1-1.483-2.193c-.36-.868-.537-1.852-.537-2.96 0-1.106.178-2.092.537-2.956.357-.865.858-1.6 1.5-2.197a6.496 6.496 0 0 1 2.315-1.366c.9-.31 1.888-.47 2.967-.47.86 0 1.643.09 2.352.265.71.176 1.337.39 1.883.634a2.58 2.58 0 0 0-.253.742 44.48 44.48 0 0 0-.156.78l-.117.04a4.38 4.38 0 0 0-.545-.528 5.91 5.91 0 0 0-.82-.564 5.19 5.19 0 0 0-1.054-.46 4.29 4.29 0 0 0-1.287-.186 5.98 5.98 0 0 0-2.137.373 4.533 4.533 0 0 0-1.717 1.14c-.49.515-.87 1.165-1.143 1.953-.273.787-.41 1.72-.41 2.8 0 1.08.137 2.015.41 2.8.273.79.654 1.44 1.142 1.954a4.53 4.53 0 0 0 1.716 1.143 6.05 6.05 0 0 0 2.137.37c.47 0 .9-.06 1.298-.176a6.822 6.822 0 0 0 1.992-.945c.266-.19.49-.354.673-.497l.08.077-.177 1.15c-.118.107-.305.22-.557.344zM248.154 5.945c-.033-.83-.068-1.67-.108-2.528.17.024.332.05.488.067.155.02.313.03.47.03.155 0 .31-.01.467-.03.158-.018.32-.043.49-.067-.04.858-.076 1.7-.108 2.528-.032.826-.05 1.668-.05 2.526v3.358c0 .86.018 1.707.05 2.538.032.833.068 1.653.108 2.46-.3-.026-.618-.04-.957-.04-.34 0-.658.014-.957.04.04-.808.075-1.627.108-2.46.032-.83.05-1.677.05-2.538v-1.756a192.323 192.323 0 0 0-6.12-.03c-.66.007-1.34.02-2.043.03v1.756c0 .86.018 1.707.05 2.538.033.833.07 1.653.108 2.46-.3-.026-.618-.04-.956-.04-.34 0-.657.014-.958.04.04-.808.074-1.627.108-2.46.032-.83.047-1.677.047-2.538V8.47c0-.857-.017-1.7-.048-2.525-.034-.83-.07-1.67-.108-2.528.17.024.332.05.487.067a3.542 3.542 0 0 0 .938 0c.158-.018.32-.043.49-.067-.04.858-.077 1.7-.108 2.528-.033.826-.05 1.668-.05 2.526v.685c.704.014 1.384.025 2.04.04a103.092 103.092 0 0 0 4.082 0c.657-.015 1.336-.026 2.04-.04V8.47c0-.857-.016-1.7-.048-2.525zM253.717 15c.176.242.39.46.644.655a3.253 3.253 0 0 0 2.02.664 2.9 2.9 0 0 0 1.163-.223 2.618 2.618 0 0 0 1.435-1.504 3.11 3.11 0 0 0 .196-1.104c0-.6-.152-1.072-.458-1.425a3.776 3.776 0 0 0-1.143-.878c-.455-.234-.946-.45-1.473-.643a7.655 7.655 0 0 1-1.476-.733 3.88 3.88 0 0 1-1.143-1.123c-.305-.457-.457-1.066-.457-1.833 0-.55.097-1.045.292-1.495.195-.45.48-.836.85-1.16.37-.326.816-.582 1.337-.765a5.355 5.355 0 0 1 1.757-.273c.624 0 1.164.077 1.618.226.456.15.88.38 1.27.693-.117.222-.215.458-.292.703-.078.25-.156.56-.234.937h-.234a5.143 5.143 0 0 0-.263-.596 2.27 2.27 0 0 0-.45-.593 2.508 2.508 0 0 0-.672-.46 2.207 2.207 0 0 0-.938-.185c-.364 0-.7.06-1.005.176a2.375 2.375 0 0 0-.8.5c-.23.215-.404.473-.528.77-.123.3-.185.626-.185.976 0 .612.152 1.095.458 1.445.307.353.687.65 1.143.89.455.24.947.456 1.474.643.526.188 1.018.42 1.474.693a3.76 3.76 0 0 1 1.142 1.054c.306.43.46 1.003.46 1.718 0 .6-.107 1.165-.323 1.698a4.03 4.03 0 0 1-.936 1.396 4.21 4.21 0 0 1-1.505.92c-.593.21-1.266.32-2.02.32-.81 0-1.462-.11-1.962-.32a5.44 5.44 0 0 1-1.26-.735 4.6 4.6 0 0 0 .244-.81c.045-.24.088-.55.126-.927h.234c.104.23.244.47.42.71zM263.536 5.945c-.033-.83-.07-1.67-.107-2.528.168.024.33.05.486.067.156.02.313.03.47.03.156 0 .312-.01.468-.03.157-.018.318-.043.488-.067-.04.858-.075 1.7-.106 2.528-.035.826-.05 1.668-.05 2.526v3.358c0 .86.015 1.707.05 2.538.03.833.066 1.653.106 2.46-.3-.026-.618-.04-.956-.04-.34 0-.658.014-.957.04.037-.808.073-1.627.106-2.46.032-.83.048-1.677.048-2.538V8.47c0-.857-.016-1.7-.048-2.525zM269.1 15c.174.242.39.46.643.655a3.25 3.25 0 0 0 2.02.664 2.9 2.9 0 0 0 1.163-.223c.345-.152.64-.353.88-.608.24-.252.425-.553.556-.896.13-.346.195-.713.195-1.104 0-.6-.15-1.072-.46-1.425a3.76 3.76 0 0 0-1.14-.878c-.456-.234-.947-.45-1.475-.643a7.61 7.61 0 0 1-1.473-.733 3.868 3.868 0 0 1-1.143-1.123c-.306-.457-.458-1.066-.458-1.833 0-.55.097-1.045.29-1.495.197-.45.48-.836.852-1.16.37-.326.815-.582 1.336-.765a5.357 5.357 0 0 1 1.758-.273c.625 0 1.164.077 1.62.226.454.15.88.38 1.27.693-.118.222-.216.458-.294.703-.08.25-.155.56-.235.937h-.233a5.143 5.143 0 0 0-.263-.596 2.266 2.266 0 0 0-.45-.593 2.53 2.53 0 0 0-.672-.46 2.2 2.2 0 0 0-.938-.185c-.363 0-.698.06-1.006.176a2.38 2.38 0 0 0-.798.5 2.218 2.218 0 0 0-.528.77c-.123.3-.185.626-.185.976 0 .612.152 1.095.457 1.445.308.353.687.65 1.143.89.456.24.947.456 1.474.643.526.188 1.02.42 1.475.693.454.273.834.624 1.14 1.054.307.43.46 1.003.46 1.718 0 .6-.108 1.165-.323 1.698a3.99 3.99 0 0 1-.937 1.396c-.41.398-.91.702-1.504.92-.59.21-1.265.32-2.02.32-.807 0-1.462-.11-1.962-.32-.5-.218-.92-.462-1.258-.735.117-.298.2-.57.244-.81.045-.24.088-.55.126-.927h.234c.103.23.243.47.42.71zM288.502 16.37c-.255.12-.56.23-.916.33-.36.098-.76.186-1.203.263-.44.08-.904.117-1.384.117-1.03 0-1.98-.146-2.853-.438a6.03 6.03 0 0 1-2.254-1.34 6.26 6.26 0 0 1-1.483-2.193c-.358-.868-.537-1.852-.537-2.96 0-1.106.18-2.092.537-2.956.356-.865.857-1.6 1.503-2.197a6.475 6.475 0 0 1 2.313-1.366c.9-.31 1.888-.47 2.967-.47.86 0 1.644.09 2.353.265.71.176 1.338.39 1.884.634a2.61 2.61 0 0 0-.254.742 35.9 35.9 0 0 0-.155.78l-.117.04a4.45 4.45 0 0 0-.546-.528 5.984 5.984 0 0 0-.82-.564 5.206 5.206 0 0 0-1.054-.46 4.297 4.297 0 0 0-1.29-.186c-.767 0-1.478.124-2.136.373a4.533 4.533 0 0 0-1.717 1.14c-.49.515-.87 1.165-1.143 1.953-.273.787-.41 1.72-.41 2.8 0 1.08.137 2.015.41 2.8.273.79.653 1.44 1.143 1.954a4.52 4.52 0 0 0 1.717 1.143 6.05 6.05 0 0 0 2.137.37c.47 0 .902-.06 1.3-.176a6.87 6.87 0 0 0 1.094-.42c.33-.162.63-.335.896-.525.267-.19.49-.354.672-.497l.08.077-.177 1.15c-.12.107-.305.22-.558.344zM301.795 5.945c-.033-.83-.067-1.67-.107-2.528.17.024.333.05.486.067a3.557 3.557 0 0 0 .94 0c.156-.018.318-.043.488-.067-.04.858-.076 1.7-.11 2.528a65.262 65.262 0 0 0-.047 2.526v3.358c0 .86.016 1.707.048 2.538.033.833.068 1.653.11 2.46-.302-.026-.62-.04-.958-.04-.34 0-.658.014-.957.04.04-.808.074-1.627.107-2.46.032-.83.05-1.677.05-2.538v-1.756a192.132 192.132 0 0 0-6.12-.03c-.657.007-1.338.02-2.04.03v1.756c0 .86.016 1.707.048 2.538.032.833.07 1.653.11 2.46-.302-.026-.62-.04-.958-.04-.34 0-.658.014-.958.04.04-.808.076-1.627.108-2.46.03-.83.047-1.677.047-2.538V8.47c0-.857-.016-1.7-.047-2.525-.032-.83-.068-1.67-.108-2.528.17.024.332.05.488.067.157.02.313.03.47.03.155 0 .312-.01.47-.03.155-.018.317-.043.487-.067-.04.858-.077 1.7-.11 2.528a65.262 65.262 0 0 0-.047 2.526v.685c.702.014 1.383.025 2.04.04a103.27 103.27 0 0 0 4.08 0c.656-.015 1.336-.026 2.04-.04V8.47c-.002-.857-.018-1.7-.05-2.525zM307.32 5.913c-.035-.83-.07-1.664-.11-2.497.587.024 1.168.05 1.75.067.578.02 1.16.03 1.746.03.585 0 1.164-.01 1.736-.03.574-.018 1.152-.043 1.737-.067-.04.194-.06.39-.06.584 0 .197.02.39.06.587a86.507 86.507 0 0 1-1.143-.08l-1.093-.076a36.845 36.845 0 0 0-2.9-.1c-.013.42-.028.817-.05 1.194-.02.377-.028.806-.028 1.287 0 .51.004 1.003.01 1.484.007.483.01.847.01 1.095a50.87 50.87 0 0 0 2.793-.07c.374-.02.725-.04 1.043-.06.317-.02.62-.04.907-.068a3.088 3.088 0 0 0 0 1.19c-.34-.04-.732-.07-1.18-.097a33.65 33.65 0 0 0-1.35-.048l-1.268-.02c-.396-.007-.71-.01-.946-.01 0 .115-.004.244-.01.38-.007.137-.01.31-.01.517V13.037c0 .742.003 1.354.01 1.835.006.483.017.847.03 1.092h1.366a38.247 38.247 0 0 0 2.8-.105c.424-.034.79-.082 1.103-.147-.027.09-.043.192-.05.303-.006.11-.01.21-.01.302 0 .208.022.377.06.508a37.913 37.913 0 0 0-1.747-.04h-3.542c-.586 0-1.18.013-1.777.04.038-.833.073-1.665.108-2.49.03-.827.047-1.67.047-2.527v-3.36a64.203 64.203 0 0 0-.045-2.535zM322.74 15c.175.242.39.46.644.655a3.237 3.237 0 0 0 2.02.664c.43 0 .817-.074 1.16-.223.346-.152.64-.353.88-.608.24-.252.427-.553.557-.896a3.11 3.11 0 0 0 .196-1.104c0-.6-.153-1.072-.458-1.425a3.8 3.8 0 0 0-1.143-.878c-.455-.234-.946-.45-1.473-.643a7.598 7.598 0 0 1-1.475-.733 3.907 3.907 0 0 1-1.144-1.123c-.304-.457-.458-1.066-.458-1.833 0-.55.1-1.045.294-1.495.192-.45.478-.836.85-1.16.37-.326.815-.582 1.335-.765a5.344 5.344 0 0 1 1.756-.273c.627 0 1.166.077 1.622.226.455.15.878.38 1.27.693a4.19 4.19 0 0 0-.294.703c-.076.25-.155.56-.234.937h-.234a4.996 4.996 0 0 0-.264-.596 2.223 2.223 0 0 0-.45-.593 2.498 2.498 0 0 0-.672-.46 2.2 2.2 0 0 0-.937-.185c-.366 0-.7.06-1.006.176a2.37 2.37 0 0 0-.8.5c-.23.215-.404.473-.527.77-.122.3-.186.626-.186.976 0 .612.153 1.095.458 1.445.307.353.688.65 1.143.89.456.24.948.456 1.475.643.527.188 1.018.42 1.474.693.455.273.835.624 1.143 1.054.305.43.458 1.003.458 1.718 0 .6-.107 1.165-.323 1.698a4 4 0 0 1-.936 1.396c-.41.398-.912.702-1.504.92-.593.21-1.266.32-2.02.32-.808 0-1.46-.11-1.962-.32-.5-.218-.92-.462-1.26-.735.118-.298.2-.57.244-.81.045-.24.088-.55.128-.927h.233c.103.23.242.47.42.71zM335.26 4.432c-.338 0-.692.002-1.064.01-.37.006-.74.017-1.11.038-.372.02-.73.043-1.075.067-.344.027-.653.06-.927.1.066-.235.1-.442.1-.625 0-.145-.033-.346-.1-.605.86.024 1.7.05 2.52.067.82.02 1.657.03 2.52.03.857 0 1.696-.01 2.516-.03.82-.018 1.66-.043 2.518-.067-.064.26-.1.467-.1.625 0 .167.035.37.1.605-.273-.04-.584-.072-.927-.1a68.915 68.915 0 0 0-1.074-.067c-.37-.02-.74-.032-1.11-.04a56.09 56.09 0 0 0-1.064-.008c-.04 1.34-.06 2.687-.06 4.04v3.356c0 .86.017 1.707.05 2.538.03.833.067 1.653.108 2.46-.3-.026-.618-.04-.957-.04-.34 0-.658.014-.958.04.038-.808.076-1.627.108-2.46.03-.83.047-1.677.047-2.538V8.47c-.002-1.35-.02-2.7-.06-4.038zM352.888 16.827a3.553 3.553 0 0 0-.518-.04h-1.037c-.162 0-.334.013-.517.04-.09-.3-.214-.662-.37-1.084a36.332 36.332 0 0 0-.518-1.328l-.576-1.407c-.194-.474-.376-.925-.546-1.356l-1.27-.03c-.43-.004-.857-.008-1.287-.008-.404 0-.802.004-1.192.01-.39.008-.788.017-1.19.028a86.877 86.877 0 0 0-1.133 2.898 32.43 32.43 0 0 0-.76 2.276 6.002 6.002 0 0 0-.724-.04c-.26 0-.5.013-.72.04a500.033 500.033 0 0 0 3.082-6.794 828.427 828.427 0 0 0 3.026-6.872h.37c.314.756.652 1.57 1.016 2.452a518.403 518.403 0 0 0 2.245 5.337 313.262 313.262 0 0 0 1.96 4.51c.27.6.488 1.053.658 1.367zm-8.647-6.07c.34 0 .69.006 1.055.018.364.014.717.02 1.056.02a57.164 57.164 0 0 0 2.186-.038L346.37 5.8l-2.13 4.956zM366.005 16.827a3.53 3.53 0 0 0-.517-.04H364.453c-.163 0-.336.013-.518.04a21.26 21.26 0 0 0-.37-1.084 40.372 40.372 0 0 0-.518-1.328c-.188-.463-.382-.93-.576-1.407-.193-.474-.377-.925-.546-1.356l-1.27-.03c-.43-.004-.857-.008-1.286-.008-.404 0-.802.004-1.192.01-.39.008-.787.017-1.19.028a86.666 86.666 0 0 0-1.132 2.898 31.49 31.49 0 0 0-.762 2.276 5.99 5.99 0 0 0-.723-.04c-.26 0-.502.013-.724.04a488.31 488.31 0 0 0 3.085-6.794c1.003-2.25 2.012-4.542 3.026-6.872h.37l1.016 2.452c.366.876.736 1.766 1.112 2.664.378.896.754 1.79 1.133 2.673.38.883.732 1.708 1.064 2.47.333.76.632 1.44.898 2.04.27.6.488 1.053.657 1.367zm-8.648-6.07c.34 0 .69.006 1.056.018.362.014.715.02 1.054.02a56.962 56.962 0 0 0 2.186-.038L359.487 5.8l-2.13 4.956zM369.557 4.432c-.338 0-.692.002-1.064.01-.37.006-.74.017-1.11.038-.372.02-.73.043-1.075.067-.346.027-.654.06-.927.1.065-.235.1-.442.1-.625 0-.145-.034-.346-.1-.605.86.024 1.7.05 2.52.067.82.02 1.658.03 2.517.03.86 0 1.698-.01 2.52-.03.82-.018 1.657-.043 2.518-.067a2.71 2.71 0 0 0-.098.625c0 .167.032.37.098.605-.272-.04-.583-.072-.928-.1a69.396 69.396 0 0 0-1.073-.067c-.372-.02-.742-.032-1.112-.04-.37-.006-.727-.008-1.064-.008-.04 1.34-.058 2.687-.058 4.04v3.356c0 .86.016 1.707.047 2.538.034.833.07 1.653.11 2.46-.3-.026-.62-.04-.96-.04-.337 0-.656.014-.956.04.04-.808.076-1.627.11-2.46.03-.83.048-1.677.048-2.538V8.47c-.002-1.35-.02-2.7-.06-4.038zM377.843 15c.177.242.392.46.646.655a3.235 3.235 0 0 0 2.02.664c.428 0 .815-.074 1.16-.223.345-.152.638-.353.88-.608.238-.252.424-.553.556-.896.13-.346.194-.713.194-1.104 0-.6-.153-1.072-.458-1.425a3.79 3.79 0 0 0-1.143-.878 13.24 13.24 0 0 0-1.474-.643 7.627 7.627 0 0 1-1.475-.733 3.89 3.89 0 0 1-1.142-1.123c-.305-.457-.46-1.066-.46-1.833 0-.55.1-1.045.294-1.495.195-.45.48-.836.85-1.16.37-.326.816-.582 1.337-.765a5.355 5.355 0 0 1 1.756-.273c.625 0 1.165.077 1.62.226.456.15.878.38 1.27.693-.117.222-.215.458-.294.703-.077.25-.156.56-.233.937h-.236a4.538 4.538 0 0 0-.263-.596 2.202 2.202 0 0 0-.448-.593 2.498 2.498 0 0 0-.673-.46 2.2 2.2 0 0 0-.938-.185c-.366 0-.7.06-1.006.176a2.375 2.375 0 0 0-.8.5c-.23.215-.405.473-.527.77-.124.3-.187.626-.187.976 0 .612.152 1.095.458 1.445a3.93 3.93 0 0 0 1.143.89c.456.24.948.456 1.475.643.526.188 1.02.42 1.474.693.456.273.836.624 1.143 1.054.305.43.458 1.003.458 1.718 0 .6-.107 1.165-.322 1.698a4.015 4.015 0 0 1-.935 1.396c-.41.397-.91.702-1.504.92-.592.21-1.265.32-2.02.32-.808 0-1.46-.11-1.96-.32a5.44 5.44 0 0 1-1.26-.735c.116-.298.197-.57.242-.81.045-.24.088-.55.128-.927h.234c.104.23.244.47.42.71zM391.48 11.672v1.21h-4.86v-1.21h4.86zM409.983 5.484c-.014-1-.045-1.69-.096-2.068.14.024.277.05.408.067.13.02.26.03.39.03.17 0 .366-.032.588-.097-.04.456-.08.998-.117 1.63-.04.63-.072 1.307-.1 2.03-.025.723-.052 1.465-.077 2.226-.028.76-.046 1.5-.06 2.215-.014.872-.146 1.653-.4 2.34a4.92 4.92 0 0 1-1.083 1.757 4.513 4.513 0 0 1-1.728 1.095c-.685.245-1.468.37-2.353.37-1.953 0-3.37-.443-4.256-1.33-.884-.884-1.326-2.283-1.326-4.195 0-.612.016-1.154.05-1.63.03-.475.047-.96.047-1.454 0-1.09-.012-2.06-.037-2.907a155.8 155.8 0 0 0-.08-2.147c.156.024.325.05.51.067.182.02.352.03.507.03.143 0 .282-.01.42-.03.136-.018.275-.043.42-.067-.027.287-.055.66-.08 1.122a104.126 104.126 0 0 0-.134 3.465c-.014.675-.02 1.38-.02 2.108 0 .44.007.902.02 1.376.01.477.06.937.135 1.386.08.45.207.878.383 1.287.177.41.424.77.752 1.074.325.307.733.546 1.23.722.492.176 1.104.264 1.834.264.715 0 1.317-.106 1.805-.314a3.44 3.44 0 0 0 1.2-.82c.313-.338.556-.728.732-1.17a6.6 6.6 0 0 0 .382-1.385c.075-.482.12-.963.134-1.444.014-.48.02-.923.02-1.328 0-1.845-.007-3.27-.02-4.274zM421.325 11.76c-1.692-1.815-3.386-3.62-5.076-5.416-.013.363-.026.85-.04 1.463a115.463 115.463 0 0 0-.01 3.513l.02 1.27c.007.444.018.89.03 1.347a255.627 255.627 0 0 0 .078 2.294c.014.294.025.493.04.597a5.997 5.997 0 0 0-1.408 0c.026-.13.056-.373.09-.723.03-.353.06-.772.085-1.26l.088-1.59a90.29 90.29 0 0 0 .127-3.397c.014-.546.02-1.034.02-1.463 0-1.25-.002-2.323-.008-3.222a41.612 41.612 0 0 0-.05-2.012h.313l2.547 2.764c.902.982 1.8 1.95 2.693 2.908.892.957 1.738 1.86 2.537 2.713.8.852 1.5 1.578 2.098 2.177v-2.655c0-1.366-.01-2.696-.026-3.99a88.88 88.88 0 0 0-.13-3.66c.26.064.483.096.664.096.156 0 .366-.032.625-.097-.026.287-.056.716-.088 1.29-.033.57-.065 1.183-.097 1.832a182.3 182.3 0 0 0-.088 1.913c-.027.626-.04 1.127-.04 1.504v1.17c0 .443.003.907.01 1.387.007.482.015.967.02 1.455l.02 1.366c.007.426.01.79.01 1.105v.643h-.273a201.293 201.293 0 0 0-4.782-5.318zM430.352 5.945a243.8 243.8 0 0 0-.108-2.528c.494.024.987.05 1.475.067.486.02.978.03 1.474.03.494 0 .985-.016 1.475-.047.486-.034.976-.05 1.472-.05 1.146 0 2.125.15 2.938.45.813.297 1.48.724 2 1.277.523.553.9 1.23 1.143 2.03.24.8.362 1.702.362 2.704 0 1.3-.227 2.398-.676 3.29-.447.892-1.022 1.61-1.717 2.156a6.46 6.46 0 0 1-2.305 1.163 9.306 9.306 0 0 1-2.412.34c-.442 0-.875-.006-1.307-.02a40.06 40.06 0 0 0-1.31-.02h-1.306c-.432 0-.867.013-1.31.04.04-.81.077-1.628.108-2.46.03-.832.05-1.678.05-2.54V8.472c0-.857-.02-1.7-.05-2.525zm1.768 10.02c.274.067.645.117 1.11.148.47.034.95.05 1.445.05.717 0 1.432-.086 2.147-.255a4.642 4.642 0 0 0 1.924-.955c.563-.47 1.026-1.11 1.386-1.924.356-.814.535-1.865.535-3.153 0-1.133-.138-2.063-.417-2.792-.28-.727-.666-1.303-1.152-1.727a4.09 4.09 0 0 0-1.748-.878 9.51 9.51 0 0 0-2.225-.244 23.638 23.638 0 0 0-3.006.196c-.04.624-.07 1.278-.09 1.96a79.035 79.035 0 0 0-.028 2.08v3.356c0 1.407.04 2.786.118 4.138zM144.67 29.404c-.013-1.003-.046-1.693-.1-2.07.145.026.28.05.412.07.13.02.26.026.39.026.17 0 .364-.03.585-.097a79.81 79.81 0 0 0-.214 3.66l-.078 2.226c-.025.76-.046 1.5-.058 2.213-.013.875-.146 1.655-.4 2.344a4.926 4.926 0 0 1-1.083 1.757c-.47.48-1.044.847-1.73 1.093-.68.248-1.465.372-2.35.372-1.952 0-3.37-.445-4.255-1.33-.887-.883-1.33-2.282-1.33-4.195 0-.61.017-1.155.05-1.63.03-.477.05-.96.05-1.454a95.72 95.72 0 0 0-.04-2.91 147.02 147.02 0 0 0-.08-2.145c.157.026.326.05.51.07.18.02.35.026.505.026.144 0 .284-.007.42-.026.137-.02.277-.043.42-.07-.025.287-.053.662-.077 1.123-.027.463-.052.986-.08 1.57a80.965 80.965 0 0 0-.06 1.895c-.012.678-.017 1.38-.017 2.11 0 .44.006.9.02 1.373.013.478.058.938.137 1.387.077.45.204.88.38 1.29.175.407.426.768.75 1.07.326.31.737.55 1.23.724.496.176 1.107.265 1.836.265.716 0 1.317-.103 1.805-.31a3.42 3.42 0 0 0 1.2-.82 3.74 3.74 0 0 0 .733-1.173 6.57 6.57 0 0 0 .38-1.386c.08-.48.125-.963.138-1.444.012-.48.02-.923.02-1.327a343.21 343.21 0 0 0-.018-4.276zM156.01 35.68a1592.84 1592.84 0 0 0-5.074-5.418c-.014.366-.026.854-.04 1.463-.012.612-.02 1.445-.02 2.5 0 .272.003.61.01 1.016l.02 1.27c.008.443.017.893.03 1.346.013.456.026.88.04 1.27.013.39.025.733.038 1.024.013.294.026.492.04.596a6.458 6.458 0 0 0-1.406 0c.027-.13.057-.37.088-.723.034-.353.062-.77.088-1.26.025-.487.056-1.018.088-1.59.03-.573.06-1.144.08-1.717.018-.574.033-1.134.047-1.678.013-.55.02-1.036.02-1.465 0-1.25-.004-2.323-.01-3.222a45.346 45.346 0 0 0-.05-2.008h.313c.795.857 1.644 1.778 2.55 2.76a548.8 548.8 0 0 0 2.692 2.91c.89.955 1.736 1.86 2.538 2.71.8.855 1.5 1.58 2.097 2.18v-2.656c0-1.366-.01-2.696-.03-3.99a87.476 87.476 0 0 0-.125-3.66c.26.064.48.096.664.096.155 0 .362-.03.624-.097a36.61 36.61 0 0 0-.09 1.29c-.032.572-.064 1.182-.095 1.834-.035.65-.064 1.286-.09 1.912-.026.625-.04 1.126-.04 1.504v1.17c0 .44.003.904.01 1.386.005.483.012.965.02 1.455.006.485.013.94.02 1.366.006.423.01.79.01 1.103V41h-.274a194.06 194.06 0 0 0-4.785-5.32zM165.04 29.862c-.034-.826-.07-1.668-.11-2.528.17.026.333.05.49.07a3.7 3.7 0 0 0 .468.026c.156 0 .312-.008.468-.027.157-.02.32-.043.49-.07-.04.86-.077 1.703-.11 2.53-.03.825-.048 1.668-.048 2.527v3.358c0 .857.017 1.703.05 2.537.03.833.067 1.652.107 2.458a11.54 11.54 0 0 0-.957-.038c-.338 0-.658.013-.957.038.04-.806.076-1.625.11-2.458.03-.834.047-1.68.047-2.537V32.39c0-.86-.016-1.702-.048-2.528zM173.383 37.972a442.01 442.01 0 0 0-1.377-3.415c-.488-1.197-.99-2.42-1.5-3.67a669.83 669.83 0 0 0-1.476-3.553c.182.026.358.05.526.07a4.38 4.38 0 0 0 .977 0c.17-.02.344-.044.527-.07.287.86.602 1.76.946 2.705.346.942.71 1.902 1.094 2.877.382.976.778 1.964 1.182 2.967.4 1.003.813 1.998 1.228 2.986.235-.532.49-1.128.762-1.785a125.32 125.32 0 0 0 1.66-4.218c.272-.733.537-1.44.792-2.117.253-.676.483-1.308.692-1.895a76.03 76.03 0 0 0 .527-1.52c.285.064.527.096.722.096.194 0 .436-.03.723-.096a313.037 313.037 0 0 0-2.928 6.734 241.985 241.985 0 0 0-2.695 6.676 5.393 5.393 0 0 0-.643-.038c-.26 0-.475.013-.645.038-.3-.768-.665-1.69-1.094-2.772zM183.68 29.833a421.14 421.14 0 0 0-.108-2.5c.586.027 1.168.05 1.748.07.58.02 1.16.027 1.748.027.584 0 1.164-.008 1.736-.027.573-.02 1.152-.043 1.738-.07a2.922 2.922 0 0 0 0 1.173 62.733 62.733 0 0 1-1.143-.08l-1.093-.076c-.384-.026-.804-.05-1.26-.07a40.478 40.478 0 0 0-1.64-.026c-.013.415-.03.813-.05 1.19-.018.376-.027.805-.027 1.288 0 .508.003 1.003.01 1.483.006.48.01.844.01 1.093.572 0 1.085-.007 1.54-.02.458-.012.873-.03 1.25-.048.377-.02.727-.04 1.045-.06.318-.02.62-.042.908-.07a3.087 3.087 0 0 0 0 1.192c-.34-.04-.73-.07-1.18-.1-.45-.024-.9-.04-1.35-.046l-1.268-.02c-.396-.007-.71-.01-.946-.01 0 .118-.004.244-.01.382-.007.136-.01.31-.01.518v1.933c0 .74.003 1.35.01 1.834.006.48.016.844.03 1.093h1.365a38.335 38.335 0 0 0 2.802-.108c.42-.03.79-.082 1.1-.146a1.37 1.37 0 0 0-.05.302c-.005.11-.008.213-.008.303 0 .208.02.377.06.508a40.916 40.916 0 0 0-1.75-.038h-3.542c-.585 0-1.18.013-1.777.038.04-.832.076-1.66.11-2.487a65.33 65.33 0 0 0 .046-2.53v-3.356a62.338 62.338 0 0 0-.046-2.54zM193.537 29.862c-.033-.826-.07-1.668-.108-2.528.377.026.748.05 1.112.07.366.02.736.026 1.113.026s.748-.016 1.113-.047a13.1 13.1 0 0 1 1.113-.05c.546 0 1.066.052 1.56.155a3.79 3.79 0 0 1 1.3.518c.37.242.663.558.878.947.215.392.322.88.322 1.464 0 .625-.14 1.162-.42 1.612a3.9 3.9 0 0 1-1.025 1.11 5.02 5.02 0 0 1-1.296.683c-.463.163-.884.27-1.26.323.156.193.37.468.643.82.273.35.578.738.917 1.16.34.424.69.866 1.055 1.327.365.463.715.905 1.054 1.327.338.423.656.81.957 1.163.3.35.54.616.723.8a4.64 4.64 0 0 0-.587-.04h-1.152c-.195 0-.384.014-.567.04-.194-.273-.49-.685-.887-1.23a91.157 91.157 0 0 0-2.79-3.622c-.502-.616-.96-1.14-1.377-1.57h-.74v1.428c0 .857.017 1.703.05 2.537.032.833.068 1.652.107 2.458-.3-.025-.62-.038-.957-.038-.338 0-.657.013-.957.038.04-.806.075-1.625.108-2.458.034-.834.05-1.68.05-2.537V32.39c-.004-.86-.02-1.702-.053-2.528zm2.245 3.72c.214.013.453.02.713.02.403 0 .822-.046 1.26-.138.435-.09.835-.25 1.2-.48.364-.225.666-.532.907-.916.242-.384.36-.87.36-1.453 0-.51-.094-.928-.28-1.26a2.27 2.27 0 0 0-.733-.79c-.3-.194-.626-.33-.976-.4a5.16 5.16 0 0 0-1.036-.107c-.456 0-.833.01-1.132.03-.3.02-.553.04-.76.066l-.08 2.13c-.026.7-.04 1.404-.04 2.107v1.11c.183.042.382.067.596.08zM205.6 38.92a3.28 3.28 0 0 0 2.664 1.316c.43 0 .817-.073 1.163-.222.345-.15.638-.353.878-.605.242-.257.427-.555.557-.9.13-.343.195-.713.195-1.102 0-.598-.154-1.074-.458-1.424a3.81 3.81 0 0 0-1.144-.88c-.456-.233-.946-.45-1.474-.645a7.748 7.748 0 0 1-1.473-.732 3.95 3.95 0 0 1-1.143-1.122c-.307-.456-.46-1.068-.46-1.836 0-.546.1-1.044.293-1.492.195-.45.48-.837.85-1.162.37-.325.816-.578 1.338-.76.52-.184 1.105-.273 1.756-.273.625 0 1.163.074 1.62.223.455.15.877.382 1.268.693a4.305 4.305 0 0 0-.292.703 9.647 9.647 0 0 0-.234.935h-.235a5.126 5.126 0 0 0-.262-.594 2.274 2.274 0 0 0-.45-.596 2.513 2.513 0 0 0-.673-.46c-.26-.122-.57-.185-.937-.185-.363 0-.698.06-1.004.177a2.372 2.372 0 0 0-.8.497 2.223 2.223 0 0 0-.527.77c-.124.3-.185.626-.185.978 0 .612.152 1.093.458 1.444.306.35.686.647 1.142.887.455.242.946.456 1.474.644a8.3 8.3 0 0 1 1.473.694c.455.272.836.625 1.142 1.054.306.43.46 1.003.46 1.72 0 .597-.108 1.164-.322 1.697-.215.534-.528 1-.937 1.396-.41.397-.912.703-1.503.918-.593.214-1.267.322-2.02.322-.808 0-1.46-.108-1.962-.322-.5-.215-.92-.46-1.26-.73.118-.3.2-.572.245-.812.046-.24.088-.55.127-.928h.233c.102.233.242.47.418.713zM215.42 29.862c-.032-.826-.068-1.668-.107-2.528.168.026.332.05.488.07.157.018.313.026.47.026.155 0 .312-.008.468-.027.156-.02.318-.043.487-.07-.038.86-.074 1.703-.107 2.53-.032.825-.048 1.668-.048 2.527v3.358c0 .857.016 1.703.048 2.537.033.833.07 1.652.107 2.458-.3-.025-.62-.038-.956-.038-.34 0-.66.013-.957.038.04-.806.075-1.625.106-2.458.033-.834.05-1.68.05-2.537V32.39c-.002-.86-.017-1.702-.05-2.528zM223.647 28.35a41.008 41.008 0 0 0-2.175.048c-.37.02-.73.043-1.074.07-.346.024-.654.058-.927.097.065-.235.1-.442.1-.625a2.75 2.75 0 0 0-.1-.605c.86.026 1.7.05 2.52.07.82.02 1.658.026 2.517.026.86 0 1.698-.007 2.52-.026.82-.02 1.657-.043 2.517-.07-.065.26-.1.47-.1.626 0 .17.034.37.1.605-.273-.04-.583-.072-.928-.098a37.783 37.783 0 0 0-3.25-.117c-.04 1.34-.058 2.687-.058 4.04v3.36c0 .856.016 1.702.047 2.536.033.833.07 1.652.108 2.458-.3-.025-.62-.038-.958-.038-.34 0-.657.013-.957.038.04-.806.077-1.625.108-2.458.032-.834.05-1.68.05-2.537v-3.36c0-1.354-.02-2.702-.06-4.04zM237.857 29.53c.365.88.735 1.768 1.113 2.664a330.74 330.74 0 0 0 3.093 7.185c.267.598.485 1.054.655 1.365a3.818 3.818 0 0 0-.517-.038h-1.036c-.162 0-.334.013-.516.038-.09-.3-.215-.66-.37-1.083a41.66 41.66 0 0 0-.518-1.327c-.188-.46-.38-.93-.576-1.403-.194-.478-.377-.93-.546-1.357a79.076 79.076 0 0 0-4.94 0 89.79 89.79 0 0 0-1.13 2.898c-.34.918-.592 1.677-.76 2.274a6.464 6.464 0 0 0-.724-.038c-.262 0-.5.013-.723.038 1.056-2.277 2.082-4.54 3.084-6.793 1.003-2.25 2.012-4.54 3.025-6.868h.37c.315.754.653 1.57 1.017 2.448zm-3.942-5.318a.953.953 0 0 1 .702-.294c.273 0 .507.098.702.294.195.193.293.43.293.702a.95.95 0 0 1-.294.7.95.95 0 0 1-.703.295.95.95 0 0 1-.702-.295.95.95 0 0 1-.294-.7c0-.274.1-.51.295-.703zm.154 10.462c.338 0 .688.006 1.054.02.364.012.717.02 1.054.02.364 0 .728-.004 1.093-.01.365-.008.73-.016 1.095-.03l-2.167-4.957-2.13 4.957zm3.69-10.462a.953.953 0 0 1 .702-.294c.273 0 .508.098.703.294.195.193.292.43.292.702a.953.953 0 0 1-.292.7.953.953 0 0 1-.703.295.95.95 0 0 1-.702-.295.946.946 0 0 1-.293-.7c0-.274.096-.51.293-.703zM247.714 28.35a41.152 41.152 0 0 0-2.175.048c-.37.02-.728.043-1.072.07-.346.024-.655.058-.928.097.065-.235.097-.442.097-.625 0-.143-.032-.346-.097-.605.86.026 1.698.05 2.52.07.82.018 1.657.026 2.517.026.857 0 1.698-.007 2.518-.026.82-.02 1.66-.043 2.518-.07a2.85 2.85 0 0 0-.097.626c0 .17.034.37.098.605-.27-.04-.582-.072-.925-.098a37.356 37.356 0 0 0-2.186-.108c-.372-.006-.727-.01-1.065-.01-.038 1.34-.057 2.687-.057 4.04v3.36c0 .856.016 1.702.048 2.536.03.833.068 1.652.107 2.458a11.48 11.48 0 0 0-.956-.038c-.34 0-.657.013-.957.038.037-.806.073-1.625.107-2.458.03-.834.048-1.68.048-2.537v-3.36c-.002-1.354-.02-2.702-.06-4.04zM256 38.92a3.234 3.234 0 0 0 1.535 1.13c.337.126.714.187 1.13.187.43 0 .817-.074 1.163-.223.344-.15.637-.353.878-.605a2.7 2.7 0 0 0 .556-.9 3.08 3.08 0 0 0 .194-1.102c0-.598-.15-1.074-.458-1.424a3.788 3.788 0 0 0-1.14-.88c-.456-.233-.948-.45-1.475-.645a7.765 7.765 0 0 1-1.475-.732 3.947 3.947 0 0 1-1.14-1.122c-.308-.456-.46-1.068-.46-1.836 0-.546.098-1.044.292-1.492.194-.45.48-.837.85-1.162a4.02 4.02 0 0 1 1.336-.76c.52-.184 1.106-.273 1.758-.273.625 0 1.164.074 1.62.223.455.15.878.382 1.27.693a4.308 4.308 0 0 0-.294.703 9.914 9.914 0 0 0-.235.935h-.233a4.96 4.96 0 0 0-.263-.594 2.274 2.274 0 0 0-.45-.596 2.508 2.508 0 0 0-.673-.46 2.185 2.185 0 0 0-.938-.185c-.365 0-.7.06-1.006.177a2.363 2.363 0 0 0-.8.497c-.23.215-.405.472-.528.77-.124.3-.185.626-.185.978 0 .612.152 1.093.46 1.444.305.35.686.647 1.142.887.454.242.946.456 1.473.644.527.19 1.02.42 1.475.694.455.272.835.625 1.142 1.054.306.43.46 1.003.46 1.72a4.5 4.5 0 0 1-.324 1.697c-.214.534-.526 1-.937 1.396-.408.397-.91.703-1.503.918-.592.214-1.265.322-2.02.322-.808 0-1.46-.108-1.96-.322-.502-.215-.922-.46-1.26-.73.116-.3.198-.572.243-.812.047-.24.088-.55.128-.928h.233c.104.233.244.47.42.713zM265.82 29.833c-.032-.832-.068-1.666-.108-2.5.338.027.683.05 1.035.07.352.02.695.027 1.034.027.34 0 .684-.016 1.035-.047.35-.03.698-.05 1.034-.05.56 0 1.087.043 1.582.126.494.085.93.234 1.307.45.376.213.676.504.897.868.222.363.33.82.33 1.365 0 .964-.3 1.718-.906 2.264-.603.547-1.395.93-2.372 1.152v.04c1.16.052 2.073.332 2.744.837.67.508 1.004 1.32 1.004 2.44 0 .73-.148 1.34-.447 1.836-.3.494-.69.894-1.173 1.2a4.86 4.86 0 0 1-1.59.645 8.228 8.228 0 0 1-1.728.185c-.314 0-.63-.006-.95-.02-.317-.012-.63-.02-.946-.02h-.945c-.32 0-.636.014-.948.04.04-.833.076-1.662.107-2.488.032-.826.048-1.668.048-2.53V32.37c0-.86-.016-1.704-.05-2.537zm4.06 3.356a3.66 3.66 0 0 0 1.2-.46c.353-.213.635-.5.85-.858.214-.356.32-.81.32-1.355 0-.534-.096-.96-.292-1.28a2.117 2.117 0 0 0-.74-.74 2.88 2.88 0 0 0-1.017-.352 7.29 7.29 0 0 0-1.13-.088 10.45 10.45 0 0 0-1.483.096c-.027.626-.054 1.244-.078 1.856-.028.61-.04 1.228-.04 1.852v1.466h1.053c.454 0 .907-.048 1.357-.14zm-2.372 4.823c.024.65.05 1.308.078 1.972.247.025.54.05.877.066.34.022.684.03 1.036.03.415 0 .814-.07 1.2-.214a2.83 2.83 0 0 0 1.004-.634c.286-.28.514-.626.683-1.034.17-.41.255-.877.255-1.397 0-.558-.102-1.016-.303-1.374a2.148 2.148 0 0 0-.87-.84c-.377-.2-.83-.34-1.357-.42a12.402 12.402 0 0 0-1.765-.115h-.88v1.99c0 .663.013 1.32.04 1.973zM277.843 29.862a385.02 385.02 0 0 0-.108-2.528c.17.026.332.05.49.07.155.02.312.026.467.026.156 0 .313-.008.47-.027.157-.02.318-.043.487-.07-.04.86-.076 1.703-.108 2.53-.032.825-.048 1.668-.048 2.527v3.358c0 .857.016 1.703.048 2.537.032.833.068 1.652.107 2.458a11.52 11.52 0 0 0-.958-.038c-.34 0-.656.013-.957.038.04-.806.076-1.625.108-2.458.032-.834.048-1.68.048-2.537V32.39c0-.86-.014-1.702-.047-2.528zM283.368 29.833c-.032-.832-.07-1.666-.108-2.5.34.027.684.05 1.035.07.35.02.696.027 1.035.027.338 0 .682-.016 1.034-.047.352-.03.696-.05 1.033-.05.56 0 1.088.043 1.582.126.495.085.93.234 1.308.45.376.213.676.504.897.868.222.363.33.82.33 1.365 0 .964-.3 1.718-.905 2.264-.605.547-1.397.93-2.372 1.152v.04c1.157.052 2.07.332 2.743.837.67.508 1.005 1.32 1.005 2.44 0 .73-.148 1.34-.45 1.836-.298.494-.688.894-1.17 1.2a4.86 4.86 0 0 1-1.59.645 8.228 8.228 0 0 1-1.728.185c-.313 0-.627-.006-.948-.02-.318-.012-.634-.02-.946-.02h-.947c-.32 0-.635.014-.947.04.04-.833.076-1.662.108-2.488.03-.826.047-1.668.047-2.53V32.37c0-.86-.016-1.704-.047-2.537zm4.06 3.356c.448-.09.848-.244 1.2-.46.35-.213.634-.5.85-.858.213-.356.322-.81.322-1.355 0-.534-.1-.96-.294-1.28a2.12 2.12 0 0 0-.74-.74c-.3-.176-.64-.292-1.017-.352a7.316 7.316 0 0 0-1.133-.088 10.4 10.4 0 0 0-1.483.096c-.027.626-.054 1.244-.078 1.856-.026.61-.04 1.228-.04 1.852v1.466h1.054c.456 0 .908-.048 1.357-.14zm-2.372 4.823c.024.65.05 1.308.078 1.972.248.025.538.05.877.066.34.022.686.03 1.037.03.416 0 .815-.07 1.2-.214.384-.143.72-.354 1.005-.634.286-.28.514-.626.683-1.034.17-.41.255-.877.255-1.397 0-.558-.102-1.016-.303-1.374a2.155 2.155 0 0 0-.868-.84c-.38-.2-.83-.34-1.358-.42a12.442 12.442 0 0 0-1.767-.115h-.878v1.99c0 .663.013 1.32.04 1.973zM295.392 29.862c-.034-.826-.07-1.668-.108-2.528.17.026.332.05.487.07.158.02.315.026.47.026.157 0 .313-.008.47-.027.155-.02.32-.043.487-.07-.04.86-.075 1.703-.106 2.53-.033.825-.05 1.668-.05 2.527 0 1.64.008 3.063.022 4.265.012 1.204.024 2.28.037 3.23.924 0 1.81-.01 2.654-.028.848-.02 1.757-.095 2.734-.226a2.23 2.23 0 0 0-.098.587c0 .143.03.32.098.526-.6-.025-1.2-.038-1.797-.038h-3.6c-.58 0-1.18.013-1.807.038.038-.806.074-1.625.108-2.458.032-.834.05-1.68.05-2.537V32.39c0-.86-.017-1.702-.048-2.528zM305.25 29.862c-.033-.826-.07-1.668-.11-2.528.17.026.334.05.49.07a3.7 3.7 0 0 0 .47.026c.154 0 .312-.008.468-.027.156-.02.318-.043.488-.07-.04.86-.075 1.703-.11 2.53-.03.825-.047 1.668-.047 2.527v3.358c0 .857.016 1.703.047 2.537.034.833.07 1.652.11 2.458-.302-.025-.62-.038-.958-.038-.34 0-.66.013-.96.038.04-.806.077-1.625.11-2.458.03-.834.048-1.68.048-2.537V32.39c0-.86-.017-1.702-.05-2.528zM310.265 31.11a6.156 6.156 0 0 1 1.503-2.195 6.485 6.485 0 0 1 2.313-1.367c.9-.312 1.88-.466 2.948-.466 1.08 0 2.07.154 2.967.466.898.313 1.67.768 2.313 1.367.645.6 1.146 1.33 1.503 2.196.36.867.537 1.852.537 2.958s-.178 2.094-.536 2.957a6.152 6.152 0 0 1-1.502 2.197c-.644.6-1.415 1.043-2.313 1.337-.897.29-1.887.438-2.967.438-1.067 0-2.05-.148-2.947-.44-.897-.293-1.668-.737-2.312-1.336a6.173 6.173 0 0 1-1.503-2.197c-.357-.863-.537-1.85-.537-2.957 0-1.106.18-2.09.537-2.957zm11.76.157c-.273-.785-.65-1.436-1.14-1.95a4.58 4.58 0 0 0-1.72-1.143 6.05 6.05 0 0 0-2.137-.37c-.755 0-1.46.124-2.117.37a4.544 4.544 0 0 0-1.717 1.143c-.488.515-.87 1.165-1.143 1.95-.273.788-.41 1.723-.41 2.802 0 1.078.137 2.013.41 2.802.273.787.655 1.438 1.143 1.95a4.51 4.51 0 0 0 1.718 1.142 5.92 5.92 0 0 0 2.118.37c.768 0 1.48-.12 2.138-.37a4.522 4.522 0 0 0 1.718-1.142c.49-.513.867-1.163 1.142-1.95.272-.79.41-1.724.41-2.803 0-1.08-.138-2.015-.41-2.803zM329.112 28.35a41.226 41.226 0 0 0-2.176.048c-.372.02-.73.043-1.074.07-.344.024-.653.058-.927.097a2.41 2.41 0 0 0 .097-.625c0-.143-.032-.346-.097-.605.858.026 1.697.05 2.518.07.82.02 1.658.026 2.518.026.858 0 1.698-.007 2.52-.026.818-.02 1.658-.043 2.516-.07-.063.26-.096.47-.096.626 0 .17.032.37.096.605-.272-.04-.582-.072-.926-.098a37.677 37.677 0 0 0-2.187-.108 65.72 65.72 0 0 0-1.064-.01 146.3 146.3 0 0 0-.06 4.04v3.36c0 .856.017 1.702.05 2.536.033.833.068 1.652.107 2.458a11.48 11.48 0 0 0-.957-.038c-.338 0-.657.013-.956.038.038-.806.074-1.625.107-2.458.03-.834.05-1.68.05-2.537v-3.36c-.002-1.354-.023-2.702-.062-4.04zM347.12 29.862a384.07 384.07 0 0 0-.107-2.528c.168.026.332.05.485.07.158.02.315.026.47.026.157 0 .312-.008.47-.027.157-.02.32-.043.488-.07-.04.86-.076 1.703-.108 2.53-.032.825-.048 1.668-.048 2.527v3.358c0 .857.016 1.703.048 2.537.032.833.067 1.652.108 2.458-.3-.025-.62-.038-.957-.038-.34 0-.658.013-.957.038.04-.806.075-1.625.107-2.458.03-.834.048-1.68.048-2.537V33.99c-.703-.013-1.383-.024-2.04-.028a167.81 167.81 0 0 0-4.078 0c-.658.004-1.34.016-2.04.03v1.756c0 .857.015 1.703.048 2.537.033.833.068 1.652.108 2.458-.3-.025-.62-.038-.957-.038-.34 0-.658.013-.96.038.04-.806.077-1.625.11-2.458.03-.834.047-1.68.047-2.537V32.39c0-.86-.016-1.702-.047-2.528-.033-.826-.07-1.668-.11-2.528.17.026.334.05.49.07.156.02.313.026.47.026.155 0 .31-.008.468-.027.157-.02.32-.043.488-.07-.04.86-.075 1.703-.108 2.53-.033.825-.05 1.668-.05 2.527v.682l2.042.04c.656.013 1.336.02 2.04.02.702 0 1.38-.007 2.04-.02l2.038-.04v-.682c0-.86-.017-1.702-.048-2.528zM352.644 29.833c-.032-.832-.07-1.666-.108-2.5.587.027 1.168.05 1.747.07.58.02 1.162.027 1.747.027.586 0 1.165-.008 1.737-.027.573-.02 1.152-.043 1.738-.07a3 3 0 0 0-.06.588c0 .195.02.392.06.586a62.585 62.585 0 0 1-1.142-.08l-1.095-.076c-.384-.026-.803-.05-1.258-.07a40.517 40.517 0 0 0-1.64-.026c-.014.415-.03.813-.05 1.19a23.7 23.7 0 0 0-.027 1.288c0 .508.002 1.003.008 1.483.01.48.01.844.01 1.093.574 0 1.09-.007 1.544-.02.455-.012.87-.03 1.25-.048.376-.02.725-.04 1.043-.06.318-.02.622-.042.907-.07a3.087 3.087 0 0 0 0 1.192c-.34-.04-.73-.07-1.18-.1-.45-.024-.898-.04-1.348-.046l-1.27-.02a65.8 65.8 0 0 0-.946-.01c0 .118-.002.244-.01.382-.006.136-.008.31-.008.518v1.933c0 .74.002 1.35.008 1.834.008.48.018.844.03 1.093h1.366a37.695 37.695 0 0 0 2.802-.108c.42-.03.788-.082 1.102-.146-.025.092-.042.19-.048.302a5.76 5.76 0 0 0-.01.303c0 .208.02.377.06.508a41.023 41.023 0 0 0-1.75-.038h-3.542c-.585 0-1.178.013-1.776.038.04-.832.076-1.66.108-2.487.032-.827.048-1.67.048-2.53v-3.356a62.338 62.338 0 0 0-.046-2.54zM362.5 38.286c.035-.834.05-1.68.05-2.537v-3.36c0-.858-.015-1.7-.05-2.527-.03-.826-.066-1.668-.105-2.528.17.026.33.05.488.07.155.02.312.026.467.026.157 0 .314-.007.47-.026.156-.02.32-.043.488-.07-.038.86-.075 1.703-.108 2.53a67.42 67.42 0 0 0-.047 2.527v1.074c0 .104.037.155.117.155.05 0 .142-.06.272-.175.454-.39.933-.833 1.434-1.33a70.67 70.67 0 0 0 3.016-3.17c.494-.555.968-1.09 1.424-1.61.145.025.28.05.41.068.13.02.26.027.392.027.155 0 .31-.008.467-.027.157-.02.313-.043.47-.07-.456.392-.97.854-1.544 1.388a149.66 149.66 0 0 0-1.728 1.64 89.48 89.48 0 0 0-1.658 1.65 34.09 34.09 0 0 0-1.317 1.415 464.413 464.413 0 0 1 3.19 3.622 376.305 376.305 0 0 0 3.27 3.697 4.608 4.608 0 0 0-.584-.038h-1.124c-.176 0-.354.013-.538.038a69.01 69.01 0 0 1-1.55-1.835c-.566-.69-1.12-1.355-1.66-2.002-.54-.643-1.027-1.224-1.463-1.735-.437-.515-.76-.877-.967-1.084-.105-.105-.183-.156-.235-.156-.064 0-.096.037-.096.117v1.7c0 .856.016 1.702.047 2.536.034.833.07 1.652.11 2.458-.302-.025-.62-.038-.96-.038-.338 0-.655.013-.954.038.037-.806.073-1.625.105-2.458zM390.55 29.013a5.395 5.395 0 0 0-.976-.615 6.208 6.208 0 0 0-1.19-.43c-.435-.11-.9-.165-1.395-.165-.81 0-1.562.125-2.257.37a4.81 4.81 0 0 0-1.815 1.144c-.514.515-.917 1.165-1.21 1.95-.293.788-.44 1.723-.44 2.802 0 .95.13 1.808.392 2.578.26.768.64 1.412 1.142 1.94.5.526 1.113.933 1.835 1.22.723.286 1.54.43 2.45.43.273 0 .56-.015.857-.04.3-.026.59-.064.87-.117.28-.05.54-.116.78-.192.24-.08.445-.17.615-.276.013-.388.02-.777.028-1.17.006-.39.008-.786.008-1.19 0-.454-.008-.91-.027-1.366a56.32 56.32 0 0 0-.07-1.308c.325.066.64.098.937.098.145 0 .288-.008.43-.02.145-.01.28-.038.41-.077a25.49 25.49 0 0 0-.06 1.415c-.012.644-.018 1.492-.018 2.547 0 .26.002.523.01.79.005.266.008.53.008.79-.272.104-.613.212-1.024.323-.41.11-.845.202-1.308.272a47.09 47.09 0 0 1-1.386.194c-.462.06-.882.09-1.26.09-1.158 0-2.2-.14-3.132-.418-.93-.28-1.723-.714-2.372-1.3a5.85 5.85 0 0 1-1.504-2.187c-.35-.87-.525-1.88-.525-3.025 0-1.106.18-2.09.546-2.957a6.098 6.098 0 0 1 1.542-2.196c.663-.6 1.468-1.054 2.41-1.367.944-.312 1.987-.466 3.135-.466.663 0 1.25.035 1.765.105.515.07.97.166 1.366.283.398.117.746.24 1.047.37.3.13.566.253.8.37-.104.184-.2.417-.283.703-.085.286-.14.555-.166.8h-.233a5.075 5.075 0 0 0-.734-.703zM394.827 31.11a6.177 6.177 0 0 1 1.5-2.195 6.488 6.488 0 0 1 2.314-1.367c.9-.312 1.88-.466 2.95-.466 1.078 0 2.067.154 2.966.466.9.313 1.67.768 2.312 1.367.646.6 1.147 1.33 1.504 2.196.36.867.538 1.852.538 2.958s-.18 2.094-.538 2.957a6.13 6.13 0 0 1-1.504 2.197c-.643.6-1.412 1.043-2.312 1.337-.898.29-1.888.438-2.966.438-1.07 0-2.05-.148-2.95-.44-.896-.293-1.667-.737-2.312-1.336a6.18 6.18 0 0 1-1.5-2.197c-.36-.863-.54-1.85-.54-2.957 0-1.106.18-2.09.54-2.957zm11.76.157c-.273-.785-.653-1.436-1.143-1.95a4.553 4.553 0 0 0-1.716-1.143 6.05 6.05 0 0 0-2.138-.37c-.757 0-1.46.124-2.12.37a4.54 4.54 0 0 0-1.716 1.143c-.488.515-.87 1.165-1.143 1.95-.272.788-.41 1.723-.41 2.802 0 1.078.138 2.013.41 2.802.273.787.655 1.438 1.144 1.95.487.515 1.06.896 1.717 1.142.66.25 1.363.37 2.12.37.768 0 1.48-.12 2.138-.37a4.515 4.515 0 0 0 1.716-1.142c.49-.513.87-1.163 1.142-1.95.273-.79.41-1.724.41-2.803 0-1.08-.137-2.015-.41-2.803zm-7.614-7.055a.963.963 0 0 1 .704-.294c.273 0 .507.098.702.294.193.193.29.43.29.702a.957.957 0 0 1-.29.7.95.95 0 0 1-.703.295.96.96 0 0 1-.704-.295.956.956 0 0 1-.29-.7c0-.274.096-.51.29-.703zm3.845 0a.962.962 0 0 1 .705-.294c.272 0 .507.098.7.294.198.193.295.43.295.702a.947.947 0 0 1-.294.7.95.95 0 0 1-.7.295.958.958 0 0 1-.706-.295.957.957 0 0 1-.292-.7c0-.274.098-.51.292-.703zM414.395 28.35a41.148 41.148 0 0 0-2.175.048c-.37.02-.73.043-1.075.07-.345.024-.652.058-.926.097a2.46 2.46 0 0 0 .097-.625 2.75 2.75 0 0 0-.098-.605c.856.026 1.696.05 2.517.07.82.02 1.66.026 2.517.026.86 0 1.698-.007 2.52-.026.82-.02 1.657-.043 2.52-.07-.067.26-.1.47-.1.626 0 .17.032.37.1.605a14.16 14.16 0 0 0-.93-.098 37.783 37.783 0 0 0-3.247-.117c-.04 1.34-.06 2.687-.06 4.04v3.36c0 .856.017 1.702.048 2.536.033.833.07 1.652.108 2.458-.3-.025-.62-.038-.958-.038-.34 0-.656.013-.956.038.04-.806.075-1.625.106-2.458.032-.834.05-1.68.05-2.537v-3.36a146.157 146.157 0 0 0-.06-4.04zM425.344 28.35a41.37 41.37 0 0 0-2.176.048c-.37.02-.728.043-1.07.07-.346.024-.655.058-.93.097.066-.235.098-.442.098-.625 0-.143-.03-.346-.097-.605.86.026 1.697.05 2.518.07.82.018 1.658.026 2.52.026.856 0 1.696-.007 2.517-.026.82-.02 1.66-.043 2.517-.07-.063.26-.096.47-.096.626 0 .17.033.37.096.605-.272-.04-.582-.072-.925-.098a37.32 37.32 0 0 0-2.188-.108 65.72 65.72 0 0 0-1.062-.01 146.3 146.3 0 0 0-.06 4.04v3.36c0 .856.018 1.702.052 2.536.03.833.066 1.652.105 2.458a11.436 11.436 0 0 0-.954-.038c-.34 0-.656.013-.957.038.037-.806.073-1.625.107-2.458.03-.834.048-1.68.048-2.537v-3.36c0-1.354-.022-2.702-.06-4.04zM433.592 29.862c-.03-.826-.068-1.668-.106-2.528.17.026.332.05.488.07.155.02.312.026.467.026.16 0 .314-.008.47-.027.158-.02.32-.043.488-.07-.04.86-.074 1.703-.108 2.53-.03.825-.048 1.668-.048 2.527v3.358c0 .857.017 1.703.048 2.537.034.833.07 1.652.108 2.458-.3-.025-.62-.038-.957-.038-.336 0-.656.013-.954.038.038-.806.075-1.625.106-2.458.033-.834.05-1.68.05-2.537V32.39c0-.86-.016-1.702-.05-2.528zM445.373 35.68c-1.69-1.816-3.382-3.622-5.075-5.418-.012.366-.025.854-.04 1.463-.013.612-.02 1.445-.02 2.5 0 .272.005.61.013 1.016.005.405.01.827.02 1.27.005.442.017.893.028 1.346l.04 1.27c.01.39.024.733.038 1.024.014.294.025.492.04.596a6.45 6.45 0 0 0-1.405 0c.023-.13.053-.37.087-.723.032-.353.062-.77.087-1.26.025-.487.055-1.018.088-1.59.033-.573.058-1.144.078-1.717a115.398 115.398 0 0 0 .07-3.143c0-1.25-.003-2.323-.01-3.222a40.505 40.505 0 0 0-.05-2.008h.314c.792.857 1.64 1.778 2.546 2.76.903.984 1.802 1.953 2.694 2.91.892.955 1.737 1.86 2.537 2.71.8.855 1.5 1.58 2.1 2.18v-2.656c0-1.366-.01-2.696-.028-3.99a89.014 89.014 0 0 0-.13-3.66c.263.064.484.096.665.096.156 0 .365-.03.625-.097-.024.286-.056.716-.088 1.29a269.623 269.623 0 0 0-.185 3.747c-.028.625-.04 1.126-.04 1.504v1.17c0 .44.003.904.01 1.386l.02 1.455c.005.485.012.94.02 1.366.006.423.01.79.01 1.103V41h-.272a192.434 192.434 0 0 0-4.785-5.32zM464.904 29.013a5.44 5.44 0 0 0-.978-.615 6.208 6.208 0 0 0-1.19-.43 5.63 5.63 0 0 0-1.396-.165c-.808 0-1.56.125-2.255.37-.695.25-1.3.63-1.815 1.144-.515.515-.916 1.165-1.21 1.95-.293.788-.44 1.723-.44 2.802 0 .95.13 1.808.39 2.578.26.768.643 1.412 1.144 1.94.5.526 1.112.933 1.835 1.22.722.286 1.537.43 2.45.43.272 0 .56-.015.856-.04.3-.026.59-.064.87-.117.28-.05.54-.116.78-.192.24-.08.445-.17.615-.276.015-.388.022-.777.03-1.17.006-.39.008-.786.008-1.19 0-.454-.008-.91-.027-1.366-.018-.456-.042-.893-.068-1.308.325.066.64.098.937.098.144 0 .287-.008.43-.02.144-.01.28-.038.41-.077-.025.297-.046.77-.06 1.415-.012.644-.018 1.492-.018 2.547 0 .26.002.523.01.79.006.266.008.53.008.79a11.864 11.864 0 0 1-2.332.595 47.09 47.09 0 0 1-1.386.194c-.46.06-.884.09-1.258.09-1.16 0-2.203-.14-3.133-.418-.93-.28-1.723-.714-2.372-1.3a5.85 5.85 0 0 1-1.504-2.187c-.35-.87-.526-1.88-.526-3.025 0-1.106.184-2.09.546-2.957a6.125 6.125 0 0 1 1.543-2.196c.663-.6 1.467-1.054 2.41-1.367.944-.312 1.987-.466 3.134-.466.665 0 1.252.035 1.767.105.515.07.97.166 1.366.283.397.117.745.24 1.045.37.3.13.567.253.802.37-.105.184-.2.417-.285.703-.083.286-.14.555-.164.8h-.234a5.106 5.106 0 0 0-.732-.703zM469.685 29.833c-.03-.832-.07-1.666-.108-2.5.587.027 1.17.05 1.748.07.58.02 1.162.027 1.747.027.585 0 1.165-.008 1.736-.027.573-.02 1.153-.043 1.738-.07a2.997 2.997 0 0 0 0 1.173 64.01 64.01 0 0 1-1.143-.08l-1.093-.076c-.384-.026-.804-.05-1.26-.07a40.41 40.41 0 0 0-1.64-.026c-.013.415-.028.813-.05 1.19a27.42 27.42 0 0 0-.026 1.288c0 .508.003 1.003.01 1.483.006.48.01.844.01 1.093.572 0 1.084-.007 1.54-.02.456-.012.87-.03 1.25-.048.38-.02.726-.04 1.045-.06.316-.02.62-.042.905-.07-.037.197-.06.398-.06.608 0 .193.022.388.06.585-.338-.04-.73-.072-1.18-.1-.45-.025-.9-.04-1.348-.047l-1.268-.02c-.398-.007-.714-.01-.948-.01 0 .118-.003.244-.01.382-.006.136-.01.31-.01.518v1.933c0 .74.004 1.35.01 1.834.007.48.016.844.03 1.093h1.365a37.71 37.71 0 0 0 2.8-.108c.425-.03.793-.082 1.105-.146-.026.092-.042.19-.046.302a4.27 4.27 0 0 0-.012.303c0 .208.02.377.06.508a40.87 40.87 0 0 0-1.748-.038h-3.542c-.586 0-1.18.013-1.777.038.038-.832.077-1.66.108-2.487.03-.827.048-1.67.048-2.53v-3.356a64.196 64.196 0 0 0-.045-2.54zM485.798 35.68c-1.69-1.816-3.384-3.622-5.074-5.418-.014.366-.025.854-.04 1.463a116.626 116.626 0 0 0-.01 3.516l.02 1.27a174.99 174.99 0 0 0 .108 3.64c.015.294.024.492.038.596a6.49 6.49 0 0 0-1.407 0c.027-.13.057-.37.09-.723.032-.353.062-.77.087-1.26l.088-1.59c.03-.573.06-1.144.078-1.717.02-.574.037-1.134.05-1.678.013-.55.02-1.036.02-1.465 0-1.25-.003-2.323-.01-3.222a40.505 40.505 0 0 0-.05-2.008h.312c.795.857 1.644 1.778 2.55 2.76.902.984 1.8 1.953 2.692 2.91.893.955 1.736 1.86 2.538 2.71.8.855 1.5 1.58 2.097 2.18v-2.656c0-1.366-.008-2.696-.03-3.99a85.798 85.798 0 0 0-.125-3.66c.26.064.48.096.664.096.155 0 .365-.03.625-.097a34.78 34.78 0 0 0-.09 1.29c-.033.572-.064 1.182-.097 1.834-.033.65-.063 1.286-.088 1.912a37.618 37.618 0 0 0-.038 1.504v1.17c0 .44.002.904.01 1.386.006.483.01.965.02 1.455.004.485.012.94.018 1.366.008.423.01.79.01 1.103V41h-.273a189.183 189.183 0 0 0-4.784-5.32z"/></g><path fill="#fff" d="M115.4 3.07v37.952h-1.01V3.07z"/><g><path d="M76.19 26.946v8.74h9.018c.373 0 .73-.02 1.073-.06a5.236 5.236 0 0 1-2.153 2.1c-.932.483-2.045.725-3.34.725h-9.016V26.947h4.42zm0-15.984v8.065h8.474c.413 0 .812-.02 1.19-.067a4.43 4.43 0 0 1-1.106 1.406c-1.104.95-2.608 1.426-4.507 1.426h-8.47v-10.83h4.42zm14.907 16.4c-.202-.275-.41-.54-.628-.784-.474-.692-1.123-1.248-1.947-1.668-.53-.313-1-.544-1.494-.735.897-.345 1.734-.89 2.51-1.63.78-.76 1.4-1.685 1.866-2.774.484-1.104.727-2.305.727-3.6 0-2.09-.468-3.91-1.4-5.465-.916-1.57-2.245-2.772-3.99-3.603-1.728-.845-3.73-1.267-6.01-1.267H70.44V3.07h14.715c2.28 0 4.284.422 6.012 1.27 1.74.83 3.07 2.03 3.986 3.6.934 1.556 1.4 3.378 1.4 5.465 0 1.296-.242 2.498-.725 3.6-.465 1.09-1.087 2.014-1.865 2.774-.776.742-1.614 1.286-2.514 1.63 1.623.622 2.978 1.683 4.066 3.187 1.09 1.504 1.633 3.36 1.633 5.57 0 2.28-.485 4.224-1.45 5.83-.953 1.588-2.3 2.797-4.042 3.624-.458.22-.935.407-1.428.563.39-.435.74-.908 1.05-1.422.964-1.608 1.448-3.55 1.448-5.83 0-2.208-.543-4.065-1.63-5.568zM23.97 5.652c.574.415 1.135.876 1.677 1.382l-3.68 3.626c-.76-.742-1.57-1.32-2.432-1.734a10.18 10.18 0 0 0-2.696-.907c-.932-.19-1.962-.285-3.084-.285-1.107 0-2.097.15-2.97.448a5.32 5.32 0 0 1 .567-1.283c.55-.898 1.343-1.6 2.38-2.1 1.038-.5 2.273-.752 3.708-.752 1.12 0 2.15.096 3.083.287a10.1 10.1 0 0 1 2.693.907c.257.123.51.26.754.41zM21.11 31.75c.122-.474.184-.984.184-1.53 0-1.71-.5-3.013-1.5-3.91a4.384 4.384 0 0 0-1.583-1.01c-.585-.243-1.43-.44-2.536-.597l-4.458-.622c-3.074-.43-5.467-1.44-7.176-3.03-1.83-1.71-2.746-4.11-2.746-7.203 0-2.192.51-4.126 1.53-5.802.863-1.42 2.042-2.567 3.54-3.44-.922 1.618-1.385 3.47-1.385 5.56 0 3.092.914 5.493 2.746 7.202 1.71 1.59 4.1 2.6 7.176 3.03l4.456.62c1.104.16 1.953.358 2.54.6.603.222 1.13.56 1.58 1.01 1 .897 1.504 2.2 1.504 3.91-.004 1.832-.693 3.256-2.075 4.274-.524.385-1.123.7-1.797.94zM0 36.18l3.708-3.66c1.774 1.767 3.716 3.037 5.83 3.81 2.144.76 4.656 1.14 7.54 1.14 1.986 0 3.8-.242 5.44-.725a13.653 13.653 0 0 0 3.1-1.37 9.97 9.97 0 0 1-2.483 2.852c-1.226.967-2.66 1.703-4.3 2.202-1.64.482-3.453.724-5.44.726-2.885 0-5.397-.38-7.54-1.14C3.73 39.236 1.78 37.956 0 36.18zM35.37 3.07h4.422v24.768c0 1.656.318 3.11.958 4.352.125.24.26.466.403.685a7.45 7.45 0 0 1-2.104-.783 6.844 6.844 0 0 1-2.72-2.85c-.64-1.243-.96-2.695-.96-4.352V3.07zm25.794 25.027c0 2.555-.587 4.827-1.76 6.814-1.176 1.985-2.798 3.524-4.872 4.61-2.053 1.09-4.37 1.634-6.942 1.634-2.556 0-4.862-.544-6.917-1.634a12.195 12.195 0 0 1-3.136-2.35c1.716.69 3.594 1.033 5.632 1.033 2.57 0 4.887-.543 6.94-1.633 2.072-1.085 3.697-2.623 4.872-4.61 1.174-1.984 1.762-4.256 1.762-6.81V3.07h4.42v25.027z" fill="#fff"/></g></svg>